<svg xmlns="http://www.w3.org/2000/svg" width="24" height="18.999" viewBox="0 0 24 18.999">
  <g id="Group_51" data-name="Group 51" transform="translate(0 -0.001)">
    <path id="Path_40" data-name="Path 40" d="M23.5,10a.5.5,0,0,1-.354-.146l-9-9a.5.5,0,1,1,.707-.707l9,9A.5.5,0,0,1,23.5,10Z" fill="#fff"/>
    <path id="Path_41" data-name="Path 41" d="M14.5,19a.5.5,0,0,1-.354-.853l9-9a.5.5,0,0,1,.707.707l-9,9A.5.5,0,0,1,14.5,19Z" fill="#fff"/>
    <path id="Path_42" data-name="Path 42" d="M23.5,10H.5a.5.5,0,0,1,0-1h23a.5.5,0,0,1,0,1Z" fill="#fff"/>
  </g>
</svg>
