<svg xmlns="http://www.w3.org/2000/svg" width="24" height="24" viewBox="0 0 24 24">
  <g id="Group_49" data-name="Group 49" transform="translate(-176 -517)">
    <path id="Path_37" data-name="Path 37" d="M12,24A12,12,0,1,1,24,12,12.013,12.013,0,0,1,12,24ZM12,1A11,11,0,1,0,23,12,11.013,11.013,0,0,0,12,1Z" transform="translate(176 517)" fill="#fff"/>
    <path id="Path_38" data-name="Path 38" d="M10.5,17a.5.5,0,0,1-.374-.832l8-9a.5.5,0,1,1,.748.664l-8,9A.5.5,0,0,1,10.5,17Z" transform="translate(176 517)" fill="#fff"/>
    <path id="Path_39" data-name="Path 39" d="M10.5,17a.5.5,0,0,1-.312-.109l-5-4a.5.5,0,1,1,.625-.781l5,4A.5.5,0,0,1,10.5,17Z" transform="translate(176 517)" fill="#fff"/>
  </g>
</svg>
