<svg id="Group_49" data-name="Group 49" xmlns="http://www.w3.org/2000/svg" width="24" height="24" viewBox="0 0 24 24">
  <path id="Path_18" data-name="Path 18" d="M10.5,18h-9A1.5,1.5,0,0,1,0,16.5v-6a5.5,5.5,0,0,1,11,0v7A.5.5,0,0,1,10.5,18ZM5.5,6A4.505,4.505,0,0,0,1,10.5v6a.5.5,0,0,0,.5.5H10V10.5A4.505,4.505,0,0,0,5.5,6Z"/>
  <path id="Path_19" data-name="Path 19" d="M22.5,18H5.5a.5.5,0,0,1,0-1h17a.5.5,0,0,0,.5-.5v-6A4.505,4.505,0,0,0,18.5,6H5.5a.5.5,0,0,1,0-1h13A5.506,5.506,0,0,1,24,10.5v6A1.5,1.5,0,0,1,22.5,18Z"/>
  <path id="Path_20" data-name="Path 20" d="M13.5,11a.5.5,0,0,1-.5-.5V.5a.5.5,0,0,1,1,0v10A.5.5,0,0,1,13.5,11Z"/>
  <path id="Path_21" data-name="Path 21" d="M18.5,4h-5a.5.5,0,0,1-.5-.5V.5a.5.5,0,0,1,.5-.5h5a.5.5,0,0,1,.5.5v3A.5.5,0,0,1,18.5,4ZM14,3h4V1H14Z"/>
  <rect id="Rectangle_56" data-name="Rectangle 56" width="1" height="6.5" transform="translate(14 17.5)"/>
  <rect id="Rectangle_57" data-name="Rectangle 57" width="1" height="6.5" transform="translate(11 17.5)"/>
</svg>
