<svg id="Group_50" data-name="Group 50" xmlns="http://www.w3.org/2000/svg" width="13" height="24" viewBox="0 0 13 24">
  <path id="Path_34" data-name="Path 34" d="M12.5,4H.5A.5.5,0,0,1,0,3.5V2.071A2.073,2.073,0,0,1,2.071,0h8.857A2.073,2.073,0,0,1,13,2.071V3.5A.5.5,0,0,1,12.5,4ZM1,3H12V2.071A1.072,1.072,0,0,0,10.929,1H2.071A1.072,1.072,0,0,0,1,2.071Z"/>
  <path id="Path_35" data-name="Path 35" d="M10.929,24h-8.8A2.131,2.131,0,0,1,0,21.871V19.5A.5.5,0,0,1,.5,19h12a.5.5,0,0,1,.5.5v2.429A2.073,2.073,0,0,1,10.929,24ZM1,20v1.871A1.131,1.131,0,0,0,2.129,23h8.8A1.072,1.072,0,0,0,12,21.929V20Z"/>
  <path id="Path_36" data-name="Path 36" d="M12.5,20H.5a.5.5,0,0,1-.5-.5V3.5A.5.5,0,0,1,.5,3h12a.5.5,0,0,1,.5.5v16A.5.5,0,0,1,12.5,20ZM1,19H12V4H1Z"/>
</svg>
