<svg xmlns="http://www.w3.org/2000/svg" width="24" height="24" viewBox="0 0 24 24">
  <g id="Group_52" data-name="Group 52" transform="translate(-186 -640)">
    <path id="Path_15" data-name="Path 15" d="M11.993,12.2a4.148,4.148,0,0,1-.734-.066A4.306,4.306,0,0,1,8,8.028V6.972a4.3,4.3,0,0,1,3.259-4.1A4,4,0,0,1,16,6.8V8.2a4,4,0,0,1-4.007,4Zm.014-8.4a3.172,3.172,0,0,0-.57.052A3.3,3.3,0,0,0,9,6.972V8.029a3.3,3.3,0,0,0,2.437,3.12A3,3,0,0,0,15,8.2V6.8a3,3,0,0,0-1.078-2.3A2.961,2.961,0,0,0,12.007,3.8Z" transform="translate(186 640)"/>
    <path id="Path_16" data-name="Path 16" d="M12,24A12,12,0,1,1,24,12,12.013,12.013,0,0,1,12,24ZM12,1A11,11,0,1,0,23,12,11.013,11.013,0,0,0,12,1Z" transform="translate(186 640)"/>
    <path id="Path_17" data-name="Path 17" d="M19.84,20.91a.5.5,0,0,1-.458-.3A8,8,0,0,0,12,16a8,8,0,0,0-7.383,4.613.5.5,0,0,1-.914-.406A9,9,0,0,1,12,15a9,9,0,0,1,8.3,5.207.5.5,0,0,1-.457.7Z" transform="translate(186 640)"/>
  </g>
</svg>
