<svg id="Group_485" data-name="Group 485" xmlns="http://www.w3.org/2000/svg" width="12.463" height="11.425" viewBox="0 0 12.463 11.425">
  <path id="Path_271" data-name="Path 271" d="M0-.689V3.3" transform="translate(8.049 5.606)" fill="none" stroke="#707070" stroke-width="0.75"/>
  <path id="Path_265" data-name="Path 265" d="M12.646,14.79H2.26a.26.26,0,1,1,0-.519H12.646a.26.26,0,0,0,.26-.26V8.3a.78.78,0,0,0-.779-.779H4.337a.78.78,0,0,0-.779.779v4.674a.26.26,0,1,1-.519,0V8.3A1.3,1.3,0,0,1,4.337,7h7.79a1.3,1.3,0,0,1,1.3,1.3v5.712A.78.78,0,0,1,12.646,14.79Z" transform="translate(-0.961 -3.365)" fill="#707070"/>
  <path id="Path_266" data-name="Path 266" d="M1.3,11.425a1.3,1.3,0,0,1-1.3-1.3V.779A.78.78,0,0,1,.779,0H2.951A.781.781,0,0,1,3.68.505l.332.884a.261.261,0,0,0,.243.169h5.872a1.3,1.3,0,0,1,1.3,1.3V3.895a.262.262,0,0,1-.076.184.258.258,0,0,1-.184.076H3.375a.78.78,0,0,0-.779.779v5.193A1.3,1.3,0,0,1,1.3,11.425ZM.779.519a.26.26,0,0,0-.26.26v9.348a.779.779,0,0,0,1.558,0V4.933a1.3,1.3,0,0,1,1.3-1.3h7.53V2.856a.78.78,0,0,0-.779-.779H4.255a.782.782,0,0,1-.729-.505L3.194.688A.261.261,0,0,0,2.951.519Z" fill="#707070"/>
  <path id="Path_328" data-name="Path 328" d="M4.046,0H0" transform="translate(5.972 7.011)" fill="none" stroke="#707070" stroke-width="0.75"/>
</svg>
