<svg xmlns="http://www.w3.org/2000/svg" width="26.649" height="26.647" viewBox="0 0 26.649 26.647">
  <g id="Group_484" data-name="Group 484" transform="translate(11.063 2.585)">
    <path id="Path_340" data-name="Path 340" d="M.565,26.647A.565.565,0,0,1,0,26l1.13-7.909a.566.566,0,0,1,.16-.32L18.575.495a1.7,1.7,0,0,1,2.4,0l5.182,5.182a1.7,1.7,0,0,1,0,2.4L8.874,25.352a.573.573,0,0,1-.32.16L.645,26.642A.636.636,0,0,1,.565,26.647Zm1.663-8.207-1,6.978,6.978-1L25.354,7.274a.565.565,0,0,0,0-.8L20.173,1.294a.565.565,0,0,0-.8,0Z" transform="translate(-11.063 -2.585)" fill="#1da2f4"/>
    <path id="Path_341" data-name="Path 341" d="M8.5,15.584a.5.5,0,0,1-.354-.853l12-12a.5.5,0,0,1,.707.707l-12,12A.494.494,0,0,1,8.5,15.584Z" transform="translate(-8 -2.585)" fill="#1da2f4"/>
    <path id="Path_342" data-name="Path 342" d="M7.5,22.584a.5.5,0,0,1-.354-.146l-6-6a.5.5,0,0,1,.707-.707l6,6a.5.5,0,0,1,0,.707A.494.494,0,0,1,7.5,22.584Z" transform="translate(-11.063 0.478)" fill="#1da2f4"/>
  </g>
</svg>
