<svg xmlns="http://www.w3.org/2000/svg" width="512" height="422.034" viewBox="0 0 512 422.034">
  <path id="path4170" d="M214.4,468.6c-4.613-4.613-4.613-8.587,0-13.2,5.65-5.65,13.131-4.159,16.219,3.231,1.21,2.9,1.21,3.842,0,6.739-3.088,7.39-10.569,8.88-16.219,3.231Zm36.71,2c-8.768-4.859-5.155-18.6,4.89-18.6,2.961,0,4.554.708,6.923,3.077,8.129,8.129-1.745,21.108-11.813,15.528Zm34.007-.235a13.422,13.422,0,0,1-3.736-5c-2.627-6.286,2.375-13.369,9.442-13.369C295.45,452,301,457.453,301,462s-5.55,10-10.177,10a11.671,11.671,0,0,1-5.706-1.631ZM0,241.5V50H512V433H0Zm496,0V66H16V417H496ZM44.5,258,27.522,241,44.5,224l16.978-17,5.493,5.493,5.493,5.493-7.457,7.507L57.55,233H211.084l-.292,7.75-.292,7.75-75.969.256-75.969.256L66,256.5l7.439,7.489L68,269.5c-2.99,3.028-5.682,5.5-5.981,5.5S53.838,267.35,44.5,258ZM446,269.5l-5.436-5.5L448,256.5l7.439-7.489-75.469-.256L304.5,248.5l-.292-7.75-.292-7.75H454.45l-7.457-7.507-7.457-7.507,5.493-5.493L450.522,207,468,224.5,485.478,242,469,258.5c-9.062,9.075-16.723,16.5-17.023,16.5s-2.992-2.477-5.982-5.5Z" transform="translate(0 -50)" fill="#1da2f4"/>
</svg>
