<svg id="Group_488" data-name="Group 488" xmlns="http://www.w3.org/2000/svg" width="39.557" height="31.316" viewBox="0 0 39.557 31.316">
  <path id="Path_253" data-name="Path 253" d="M9.824,20.482a.836.836,0,0,1-.349-.077A.825.825,0,0,1,9,19.657V4.823A.821.821,0,0,1,9.435,4.1a.831.831,0,0,1,.847.04l9.889,6.593a.824.824,0,0,1,.071,1.319L10.353,20.29A.822.822,0,0,1,9.824,20.482Zm.824-14.117V17.9l7.689-6.408Z" transform="translate(5.834 2.594)" fill="#1da2f4"/>
  <path id="Path_254" data-name="Path 254" d="M37.037,31.316H2.52A2.525,2.525,0,0,1,0,28.8V2.52A2.525,2.525,0,0,1,2.52,0H37.035a2.526,2.526,0,0,1,2.522,2.52V28.794A2.526,2.526,0,0,1,37.037,31.316ZM2.52,1.648a.872.872,0,0,0-.872.872V28.794a.873.873,0,0,0,.872.874H37.035a.873.873,0,0,0,.874-.872V2.52a.872.872,0,0,0-.872-.872Z" fill="#1da2f4"/>
  <path id="Path_255" data-name="Path 255" d="M9.065,31.316H2.472A2.475,2.475,0,0,1,0,28.844V2.472A2.475,2.475,0,0,1,2.472,0H9.065a.824.824,0,0,1,.824.824V30.492A.824.824,0,0,1,9.065,31.316ZM2.472,1.648a.827.827,0,0,0-.824.824V28.844a.827.827,0,0,0,.824.824H8.241V1.648Z" fill="#1da2f4"/>
  <path id="Path_256" data-name="Path 256" d="M25.417,31.316H18.824A.824.824,0,0,1,18,30.492V.824A.824.824,0,0,1,18.824,0h6.593a2.475,2.475,0,0,1,2.472,2.472V28.844A2.475,2.475,0,0,1,25.417,31.316Zm-5.769-1.648h5.769a.827.827,0,0,0,.824-.824V2.472a.827.827,0,0,0-.824-.824H19.648Z" transform="translate(11.668 0)" fill="#1da2f4"/>
  <path id="Path_257" data-name="Path 257" d="M9.065,7.648H.824A.824.824,0,1,1,.824,6H9.065a.824.824,0,1,1,0,1.648Z" transform="translate(0 3.889)" fill="#1da2f4"/>
  <path id="Path_258" data-name="Path 258" d="M9.065,13.648H.824A.824.824,0,1,1,.824,12H9.065a.824.824,0,1,1,0,1.648Z" transform="translate(0 7.779)" fill="#1da2f4"/>
  <path id="Path_259" data-name="Path 259" d="M27.065,7.648H18.824a.824.824,0,1,1,0-1.648h8.241a.824.824,0,1,1,0,1.648Z" transform="translate(11.668 3.889)" fill="#1da2f4"/>
  <path id="Path_260" data-name="Path 260" d="M27.065,13.648H18.824a.824.824,0,1,1,0-1.648h8.241a.824.824,0,1,1,0,1.648Z" transform="translate(11.668 7.779)" fill="#1da2f4"/>
</svg>
