<svg xmlns="http://www.w3.org/2000/svg" width="23" height="23.95" viewBox="0 0 23 23.95">
  <g id="Group_650" data-name="Group 650" transform="translate(-0.05 -0.05)">
    <g id="Group_648" data-name="Group 648">
      <path id="Path_514" data-name="Path 514" d="M22.5,12a.6.6,0,0,1-.4-.1L11.5,1.2.9,11.9a.483.483,0,0,1-.7,0,.483.483,0,0,1,0-.7l11-11a.483.483,0,0,1,.7,0l11,11a.483.483,0,0,1,0,.7A.6.6,0,0,1,22.5,12Z" fill="#1da2f4"/>
    </g>
    <g id="Group_649" data-name="Group 649">
      <path id="Path_515" data-name="Path 515" d="M20.5,24h-6a.472.472,0,0,1-.5-.5V15H9v8.5a.472.472,0,0,1-.5.5h-6a.472.472,0,0,1-.5-.5V9.5A.472.472,0,0,1,2.5,9a.472.472,0,0,1,.5.5V23H8V14.5a.472.472,0,0,1,.5-.5h6a.472.472,0,0,1,.5.5V23h5V9.5a.5.5,0,0,1,1,0v14A.472.472,0,0,1,20.5,24Z" fill="#1da2f4"/>
    </g>
  </g>
</svg>
