<svg id="Group_383" data-name="Group 383" xmlns="http://www.w3.org/2000/svg" width="48" height="48" viewBox="0 0 24 24">
  <path id="Path_282" data-name="Path 282" d="M13.5,24h-3a.5.5,0,0,1-.485-.379l-.761-3.054A8.42,8.42,0,0,1,7.886,20l-2.7,1.623a.5.5,0,0,1-.611-.075L2.455,19.425a.5.5,0,0,1-.075-.611L4,16.114a8.491,8.491,0,0,1-.568-1.368L.38,13.985A.5.5,0,0,1,0,13.5v-3a.5.5,0,0,1,.379-.485l3.054-.761A8.491,8.491,0,0,1,4,7.886l-1.622-2.7a.5.5,0,0,1,.075-.611L4.575,2.454a.5.5,0,0,1,.612-.075L7.886,4a8.586,8.586,0,0,1,1.368-.569L10.015.379A.5.5,0,0,1,10.5,0h3a.5.5,0,0,1,.485.379l.761,3.054A8.42,8.42,0,0,1,16.114,4l2.7-1.623a.5.5,0,0,1,.611.075l2.121,2.121a.5.5,0,0,1,.075.611L20,7.886a8.491,8.491,0,0,1,.568,1.368l3.054.761A.5.5,0,0,1,24,10.5v3a.5.5,0,0,1-.379.485l-3.054.761A8.582,8.582,0,0,1,20,16.114l1.622,2.7a.5.5,0,0,1-.075.611l-2.121,2.121a.5.5,0,0,1-.611.075L16.115,20a8.586,8.586,0,0,1-1.368.569l-.761,3.054A.5.5,0,0,1,13.5,24Zm-2.609-1H13.11l.735-2.951a.5.5,0,0,1,.351-.36,7.443,7.443,0,0,0,1.687-.7.5.5,0,0,1,.5,0,.489.489,0,0,1,.06.041L19,20.562l1.568-1.568-1.543-2.568L19,16.4a.5.5,0,0,1-.017-.52,7.5,7.5,0,0,0,.7-1.687.5.5,0,0,1,.36-.35L23,13.109V10.89l-2.951-.735a.5.5,0,0,1-.36-.35,7.5,7.5,0,0,0-.7-1.687A.5.5,0,0,1,19,7.6c.01-.014.02-.027.029-.041l1.533-2.552L18.994,3.437,16.425,4.98a.257.257,0,0,1-.044.029.5.5,0,0,1-.5,0,7.469,7.469,0,0,0-1.687-.7.5.5,0,0,1-.351-.36L13.109,1H10.89l-.735,2.951a.5.5,0,0,1-.351.36,7.5,7.5,0,0,0-1.686.7.5.5,0,0,1-.5,0,.619.619,0,0,1-.059-.041L5.006,3.438,3.438,5.006,4.971,7.558,5,7.6a.5.5,0,0,1,.014.52,7.5,7.5,0,0,0-.7,1.687.5.5,0,0,1-.36.35L1,10.891V13.11l2.951.735a.5.5,0,0,1,.36.35,7.5,7.5,0,0,0,.7,1.687A.5.5,0,0,1,5,16.4c-.01.014-.02.027-.029.041L3.437,19l1.568,1.568L7.574,19.02a.257.257,0,0,1,.044-.029.5.5,0,0,1,.5,0,7.469,7.469,0,0,0,1.687.7.5.5,0,0,1,.351.36Z" fill="#1da2f4"/>
  <path id="Path_283" data-name="Path 283" d="M12,17.5A5.5,5.5,0,1,1,17.5,12,5.506,5.506,0,0,1,12,17.5Zm0-10A4.5,4.5,0,1,0,16.5,12,4.505,4.505,0,0,0,12,7.5Z" fill="#1da2f4"/>
</svg>