<svg id="Group_595" data-name="Group 595" xmlns="http://www.w3.org/2000/svg" xmlns:xlink="http://www.w3.org/1999/xlink" width="83" height="83" viewBox="0 0 83 83">
  <defs>
    <linearGradient id="linear-gradient" x1="0.5" x2="0.5" y2="1" gradientUnits="objectBoundingBox">
      <stop offset="0" stop-color="#1da2f4"/>
      <stop offset="1" stop-color="#0fedb2"/>
    </linearGradient>
  </defs>
  <path id="Path_467" data-name="Path 467" d="M81.271,10.375H13.833V1.729A1.728,1.728,0,0,0,12.1,0,12.119,12.119,0,0,0,0,12.1V70.9A12.119,12.119,0,0,0,12.1,83H81.271A1.728,1.728,0,0,0,83,81.271V12.1A1.728,1.728,0,0,0,81.271,10.375ZM3.458,12.1A8.664,8.664,0,0,1,10.375,3.63V58.913a12.106,12.106,0,0,0-6.917,3.519ZM79.542,79.542H12.1a8.646,8.646,0,0,1,0-17.292,1.728,1.728,0,0,0,1.729-1.729V13.833H79.542V79.542Z" fill="url(#linear-gradient)"/>
  <path id="Path_468" data-name="Path 468" d="M85.973,86.516a10.366,10.366,0,0,0,6.754,9.567l-1.791,6.39c-.006.02-.011.04-.017.061l-4.8,17.124a1.729,1.729,0,1,0,3.33.932l4.446-15.86h5.738l4.446,15.86a1.729,1.729,0,1,0,3.33-.932l-4.185-14.928h2.486a1.729,1.729,0,1,0,0-3.458h-3.455l-1.466-5.228a10.195,10.195,0,0,0-2.3-19.689V71.717a1.729,1.729,0,0,0-3.458,0v4.622A10.463,10.463,0,0,0,85.973,86.516Zm8.891,14.755,1.9-6.775,1.9,6.775Zm1.852-21.6A7.085,7.085,0,0,1,104,86.516a6.775,6.775,0,0,1-4.156,6.173l-1.42-5.065a1.8,1.8,0,0,0-3.33,0l-1.43,5.1a6.868,6.868,0,0,1-4.237-6.21A7.084,7.084,0,0,1,96.716,79.67Z" transform="translate(-60.471 -49.228)" fill="url(#linear-gradient)"/>
  <path id="Path_469" data-name="Path 469" d="M199.194,110.318c.2.759.814,2.734,2.733,8.755a2.522,2.522,0,0,0,2.361,2.114h0a2.41,2.41,0,0,0,2.31-2c1.95-6.095,2.576-8.1,2.778-8.864a1.718,1.718,0,0,0,.088-.409,1.2,1.2,0,0,0,.008-.155V73.23c0-2.128-1.233-3.242-2.449-3.242h-5.532c-1.152,0-2.394,1.017-2.394,3.245v36.525a1.176,1.176,0,0,0,.008.157A1.724,1.724,0,0,0,199.194,110.318Zm5.09,4.756c-.4-1.275-.807-2.558-1.128-3.587h2.259C205.095,112.511,204.691,113.789,204.284,115.075Zm1.733-41.628V108.03h-3.458V73.446Z" transform="translate(-140.042 -49.228)" fill="url(#linear-gradient)"/>
</svg>
