<svg xmlns="http://www.w3.org/2000/svg" xmlns:xlink="http://www.w3.org/1999/xlink" width="104.164" height="67.604" viewBox="0 0 104.164 67.604">
  <defs>
    <linearGradient id="linear-gradient" x1="0.5" x2="0.5" y2="1" gradientUnits="objectBoundingBox">
      <stop offset="0" stop-color="#1da2f4"/>
      <stop offset="1" stop-color="#0fedb2"/>
    </linearGradient>
  </defs>
  <g id="Group_484" data-name="Group 484" transform="translate(-1090 -971.42)">
    <path id="Path_151" data-name="Path 151" d="M15.085,3.208A11.885,11.885,0,1,0,27.038,15.093,11.893,11.893,0,0,0,15.085,3.208Zm0,20.7A8.777,8.777,0,1,1,23.9,15.093,8.819,8.819,0,0,1,15.085,23.9Z" transform="translate(1108.657 990.12)" fill="url(#linear-gradient)"/>
    <path id="Path_152" data-name="Path 152" d="M52.021,2.3H16.639a9.894,9.894,0,0,0-3.21.546A9.282,9.282,0,0,0,7.35,11.587V29.21a9.282,9.282,0,0,0,6.079,8.743,9.894,9.894,0,0,0,3.21.546h4.44L19.1,47.652a1.567,1.567,0,0,0,.683,1.639,1.313,1.313,0,0,0,.82.273,1.26,1.26,0,0,0,.888-.273L37.336,38.5H52.021A9.3,9.3,0,0,0,61.31,29.21V11.587A9.3,9.3,0,0,0,52.021,2.3ZM58.168,29.21a6.18,6.18,0,0,1-6.147,6.216H36.789a1.551,1.551,0,0,0-1.093.41l-12.7,8.675,1.571-7.24A1.549,1.549,0,0,0,23.4,35.425H16.639a6.18,6.18,0,0,1-6.147-6.216V11.587A6.122,6.122,0,0,1,16.639,5.44H52.021a6.122,6.122,0,0,1,6.147,6.147V29.21Z" transform="translate(1132.854 984.815)" fill="url(#linear-gradient)"/>
    <path id="Path_156" data-name="Path 156" d="M61.542,51.888a1.829,1.829,0,0,1-.342,1.571,33.4,33.4,0,0,1-7.718,7.787,2.049,2.049,0,0,1-2.459,0l-7.855-5.738a6.347,6.347,0,0,1-.683.342l-1.5,9.569a2.029,2.029,0,0,1-1.708,1.708,29.262,29.262,0,0,1-5.533.478,29.036,29.036,0,0,1-5.464-.478,2.029,2.029,0,0,1-1.708-1.708l-1.5-9.563a6.347,6.347,0,0,1-.683-.342L16.53,61.252a2.049,2.049,0,0,1-2.459,0,33.4,33.4,0,0,1-7.718-7.787,1.948,1.948,0,0,1,0-2.391l5.669-7.855a7.087,7.087,0,0,0-.273-.683l-9.563-1.5A2.1,2.1,0,0,1,.478,39.258,29.036,29.036,0,0,1,0,33.794,29.036,29.036,0,0,1,.478,28.33a2.029,2.029,0,0,1,1.708-1.708l9.563-1.571a7.087,7.087,0,0,0,.273-.683L6.352,16.581a2.049,2.049,0,0,1,0-2.459,33.4,33.4,0,0,1,7.718-7.787,2.287,2.287,0,0,1,2.459,0l7.855,5.738a2.855,2.855,0,0,1,.683-.273l1.5-9.631A2.029,2.029,0,0,1,28.278.462a33.018,33.018,0,0,1,11,0,2.029,2.029,0,0,1,1.708,1.708l1.5,9.631a2.046,2.046,0,0,1,.683.273l7.855-5.738a2.287,2.287,0,0,1,2.459,0A33.4,33.4,0,0,1,61.2,14.122a1.878,1.878,0,0,1,.342,1.571H59.493a9.894,9.894,0,0,0-3.21.546l.683-.888a34.147,34.147,0,0,0-4.713-4.713l-7.582,5.533a1.97,1.97,0,0,1-2.186.137,19.6,19.6,0,0,0-2.527-1.025,2,2,0,0,1-1.366-1.639l-1.5-9.289a35.781,35.781,0,0,0-6.626,0l-1.5,9.289a2,2,0,0,1-1.366,1.639,24.553,24.553,0,0,0-2.527,1.025,2.131,2.131,0,0,1-2.117-.137L15.3,10.639a30.31,30.31,0,0,0-4.645,4.713l5.464,7.582a2.107,2.107,0,0,1,.2,2.186A18.778,18.778,0,0,0,15.3,27.578a2.17,2.17,0,0,1-1.708,1.434L4.371,30.447a28.371,28.371,0,0,0-.2,3.347,27.512,27.512,0,0,0,.2,3.347l9.221,1.434A2.17,2.17,0,0,1,15.3,40.01a18.778,18.778,0,0,0,1.025,2.459,2.107,2.107,0,0,1-.2,2.186l-5.464,7.582A27.589,27.589,0,0,0,15.3,56.949l7.65-5.533a2.131,2.131,0,0,1,2.117-.137A16.309,16.309,0,0,0,27.595,52.3a2.1,2.1,0,0,1,1.366,1.639l1.5,9.289a35.78,35.78,0,0,0,6.626,0l1.5-9.289A2.1,2.1,0,0,1,39.958,52.3a16.309,16.309,0,0,0,2.527-1.025,2.272,2.272,0,0,1,2.186.137l7.582,5.533a30.746,30.746,0,0,0,4.713-4.713l-.683-.888a9.894,9.894,0,0,0,3.21.546h2.049Z" transform="translate(1090 971.419)" fill="url(#linear-gradient)"/>
    <path id="Path_157" data-name="Path 157" d="M42.952,5a1.589,1.589,0,0,1-1.571,1.571H10.371A1.589,1.589,0,0,1,8.8,5a1.637,1.637,0,0,1,1.571-1.571h31.01A1.642,1.642,0,0,1,42.952,5Z" transform="translate(1141.308 991.397)" fill="url(#linear-gradient)"/>
    <path id="Path_158" data-name="Path 158" d="M42.952,6.289A1.589,1.589,0,0,1,41.381,7.86H10.371a1.571,1.571,0,0,1,0-3.142h31.01A1.589,1.589,0,0,1,42.952,6.289Z" transform="translate(1141.308 998.924)" fill="url(#linear-gradient)"/>
    <path id="Path_159" data-name="Path 159" d="M31.818,7.579A1.589,1.589,0,0,1,30.247,9.15H10.371A1.637,1.637,0,0,1,8.8,7.579a1.589,1.589,0,0,1,1.571-1.571H30.247A1.542,1.542,0,0,1,31.818,7.579Z" transform="translate(1141.308 1006.445)" fill="url(#linear-gradient)"/>
  </g>
</svg>
