<svg xmlns="http://www.w3.org/2000/svg" width="93.623" height="81.645" viewBox="0 0 93.623 81.645">
  <g id="Group_41" data-name="Group 41" transform="translate(0 0.001)">
    <path id="Path_98" data-name="Path 98" d="M27.267,7.055H3.411a1.77,1.77,0,1,1,0-3.539H27.267a1.77,1.77,0,0,1,0,3.539Z" transform="translate(10.993 23.662)" fill="#ddd"/>
    <path id="Path_99" data-name="Path 99" d="M32.1,8.647H3.411a1.774,1.774,0,1,1,0-3.547H32.1a1.774,1.774,0,1,1,0,3.547Z" transform="translate(10.993 34.319)" fill="#ddd"/>
    <path id="Path_100" data-name="Path 100" d="M53.55,10.223H3.411a1.77,1.77,0,1,1,0-3.539H53.55a1.77,1.77,0,0,1,0,3.539Z" transform="translate(10.993 44.976)" fill="#ddd"/>
    <path id="Path_101" data-name="Path 101" d="M29.87,47.919A23.96,23.96,0,1,1,53.834,23.955,23.994,23.994,0,0,1,29.87,47.919Zm0-43.191A19.235,19.235,0,1,0,49.105,23.955,19.248,19.248,0,0,0,29.87,4.728Z" transform="translate(39.789)" fill="#ddd"/>
    <path id="Path_102" data-name="Path 102" d="M74.226,34.7v8.957A6.567,6.567,0,0,1,67.673,50.2H29.335a2.393,2.393,0,0,0-1.623.634L16.9,61.039V52.562A2.358,2.358,0,0,0,14.536,50.2H11.267a6.567,6.567,0,0,1-6.553-6.553V13.165A6.555,6.555,0,0,1,11.267,6.62H46.151A22.582,22.582,0,0,1,47.588,1.9H11.267A11.284,11.284,0,0,0,0,13.165V43.652A11.286,11.286,0,0,0,11.267,54.927h.9V66.511a2.357,2.357,0,0,0,1.422,2.164,2.331,2.331,0,0,0,.935.193,2.374,2.374,0,0,0,1.615-.641l14.127-13.3H67.681A11.279,11.279,0,0,0,78.948,43.659V33.273A23.815,23.815,0,0,1,74.226,34.7Z" transform="translate(0 12.776)" fill="#ddd"/>
    <path id="Path_103" data-name="Path 103" d="M18.094,23.112a2.338,2.338,0,0,1-1.808-.85L8.133,12.417A2.363,2.363,0,0,1,11.78,9.411l5.92,7.156L25.034,3.128a2.36,2.36,0,0,1,4.142,2.264L20.165,21.883A2.3,2.3,0,0,1,18.318,23.1,2.042,2.042,0,0,1,18.094,23.112Z" transform="translate(51.132 12.837)" fill="#ddd"/>
  </g>
</svg>
