<svg id="Group_31" data-name="Group 31" xmlns="http://www.w3.org/2000/svg" xmlns:xlink="http://www.w3.org/1999/xlink" width="287.408" height="235.66" viewBox="0 0 287.408 235.66">
  <defs>
    <linearGradient id="linear-gradient" x1="0.5" x2="0.5" y2="1" gradientUnits="objectBoundingBox">
      <stop offset="0" stop-color="#1da2f4"/>
      <stop offset="1" stop-color="#0fedb2"/>
    </linearGradient>
  </defs>
  <path id="Path_59" data-name="Path 59" d="M48.176,14.762A4.57,4.57,0,0,1,43.6,19.318H6.625a4.57,4.57,0,0,1-4.577-4.557h0a4.57,4.57,0,0,1,4.577-4.557H43.6a4.583,4.583,0,0,1,4.577,4.557Z" transform="translate(39.062 194.642)" fill="#474f59"/>
  <path id="Path_60" data-name="Path 60" d="M11.2,5.622A4.577,4.577,0,1,1,6.625,1.045,4.558,4.558,0,0,1,11.2,5.622Z" transform="translate(39.062 19.932)" fill="#474f59"/>
  <path id="Path_61" data-name="Path 61" d="M13.024,5.622A4.567,4.567,0,1,1,8.448,1.045,4.57,4.57,0,0,1,13.024,5.622Z" transform="translate(74.214 19.932)" fill="#474f59"/>
  <path id="Path_62" data-name="Path 62" d="M12.1,5.622A4.567,4.567,0,1,1,7.527,1.045,4.57,4.57,0,0,1,12.1,5.622Z" transform="translate(56.647 19.932)" fill="#474f59"/>
  <path id="Path_63" data-name="Path 63" d="M120.725,176.357c-21.759,0-42.9-4.737-61.143-13.73.06.08-.321-.08-1.144-.08-4.436,0-13.007,2.509-21.318,4.958-9.454,2.81-18.387,5.44-24.309,5.44-2.991,0-5.239-.662-6.885-2.027C-.939,165.2,4.662,153.975,10.6,142.132c2.73-5.46,7.327-14.633,6.6-17.082A71.161,71.161,0,0,1,6.85,88.215c0-48.577,51.086-88.1,113.9-88.1s113.9,39.524,113.9,88.1C234.62,136.833,183.534,176.357,120.725,176.357ZM58.438,153.333a11.568,11.568,0,0,1,5.219,1.044,130.079,130.079,0,0,0,57.088,12.787c57.731,0,104.7-35.409,104.7-78.948,0-43.519-46.971-78.908-104.7-78.908S16.023,44.7,16.023,88.215a62.124,62.124,0,0,0,9.153,32.238c3.553,5.982-1.044,15.175-6.363,25.794-2.569,5.119-7.226,14.433-6.885,17.444a7.9,7.9,0,0,0,.883.06c4.6,0,13.288-2.589,21.7-5.058C43.845,155.942,52.657,153.333,58.438,153.333Z" transform="translate(52.768 2.174)" fill="#474f59"/>
  <path id="Path_64" data-name="Path 64" d="M82.909,129.959v20.013H10.143V11.106H55.529a86.142,86.142,0,0,1,7.628-9.194H5.547A4.579,4.579,0,0,0,.97,6.509v148.06a4.592,4.592,0,0,0,4.577,4.6H87.486a4.583,4.583,0,0,0,4.6-4.6v-26.3A48.338,48.338,0,0,0,82.909,129.959Z" transform="translate(18.501 36.468)" fill="#474f59"/>
  <path id="Path_65" data-name="Path 65" d="M117.87,167.31v44.583c0,6.243-3.814,11.522-8.33,11.522H20.575c-4.516,0-8.33-5.279-8.33-11.522V23.807c0-6.243,3.814-11.522,8.33-11.522H109.54a7.072,7.072,0,0,1,5.219,2.67c1.586-.763,3.232-1.445,4.878-2.128.361-.141.7-.3,1.064-.462,1.867-.743,3.774-1.465,5.721-2.148C122.687,4.055,116.525,0,109.54,0H20.575C9.234,0,0,10.679,0,23.807V211.893C0,225,9.234,235.66,20.575,235.66H109.54c11.341,0,20.575-10.659,20.575-23.767V171.847A128.872,128.872,0,0,1,117.87,167.31Z" transform="translate(0 0)" fill="#474f59"/>
  <path id="Path_68" data-name="Path 68" d="M119.315,95.691a4.6,4.6,0,0,0-4.6-4.617H49.359L27.881,5.5a4.593,4.593,0,0,0-4.456-3.453H9.414a4.587,4.587,0,0,0,0,9.173H19.832L41.31,96.815a4.594,4.594,0,0,0,4.456,3.473h13.61a12.7,12.7,0,0,0-3.212,8.391,12.9,12.9,0,1,0,22.623-8.411h13.75a12.774,12.774,0,0,0-3.192,8.411,12.907,12.907,0,1,0,25.814,0,12.65,12.65,0,0,0-3.212-8.411h2.79A4.575,4.575,0,0,0,119.315,95.691Zm-50.243,16.7a3.714,3.714,0,1,1,3.714-3.714A3.718,3.718,0,0,1,69.071,112.391Zm33.161,0a3.714,3.714,0,1,1,3.714-3.714A3.7,3.7,0,0,1,102.232,112.391Z" transform="translate(92.257 39.081)" fill="url(#linear-gradient)"/>
  <path id="Path_69" data-name="Path 69" d="M104.394,4.387a4.544,4.544,0,0,0-3.633-1.807H11.134A4.611,4.611,0,0,0,7.481,4.387a4.717,4.717,0,0,0-.8,3.954L22.4,69.143A4.553,4.553,0,0,0,26.832,72.6H85.064a4.651,4.651,0,0,0,4.476-3.453L105.217,8.361A4.621,4.621,0,0,0,104.394,4.387ZM85.546,47.745h-11.7v-5.6H86.991Zm-37.8,0v-5.6H64.629v5.6Zm16.882,9.194v6.444H47.748V56.938Zm0-30.411v6.4H47.748v-6.4ZM47.748,17.354v-5.56H64.629v5.56Zm-9.173,15.6H22.536L20.89,26.527H38.574ZM24.9,42.144h13.67v5.6H26.35Zm48.938-9.194V26.527H91.026l-1.666,6.4H73.843Zm19.551-15.6H73.843v-5.56h21Zm-54.82-5.56v5.56H18.521l-1.445-5.56ZM28.738,56.938h9.816v6.444h-8.17Zm45.1,6.444V56.938H83.2l-1.686,6.444Z" transform="translate(124.741 49.209)" fill="url(#linear-gradient)"/>
</svg>
