<svg id="Group_135" data-name="Group 135" xmlns="http://www.w3.org/2000/svg" width="158.596" height="132.163" viewBox="0 0 158.596 132.163">
  <g id="Group_132" data-name="Group 132">
    <path id="Path_246" data-name="Path 246" d="M148.684,105.731H9.912A9.924,9.924,0,0,1,0,95.819V9.912A9.924,9.924,0,0,1,9.912,0H148.684A9.924,9.924,0,0,1,158.6,9.912V95.819A9.924,9.924,0,0,1,148.684,105.731ZM9.912,6.608a3.31,3.31,0,0,0-3.3,3.3V95.819a3.31,3.31,0,0,0,3.3,3.3H148.684a3.31,3.31,0,0,0,3.3-3.3V9.912a3.31,3.31,0,0,0-3.3-3.3Z" fill="#fff"/>
  </g>
  <g id="Group_133" data-name="Group 133" transform="translate(52.86 99.123)">
    <path id="Path_247" data-name="Path 247" d="M50.958,48.041H11.309a3.3,3.3,0,0,1-3.212-4.1L14.705,17.5A3.314,3.314,0,0,1,17.917,15H44.35a3.3,3.3,0,0,1,3.2,2.5l6.608,26.433a3.3,3.3,0,0,1-3.2,4.1ZM15.545,41.433H46.728L41.772,21.608H20.5Z" transform="translate(-7.999 -15)" fill="#fff"/>
  </g>
  <g id="Group_134" data-name="Group 134" transform="translate(39.649 125.555)">
    <path id="Path_248" data-name="Path 248" d="M75.386,25.608H9.3A3.3,3.3,0,1,1,9.3,19H75.386a3.3,3.3,0,1,1,0,6.608Z" transform="translate(-6 -19)" fill="#fff"/>
  </g>
</svg>
