<svg id="Group_393" data-name="Group 393" xmlns="http://www.w3.org/2000/svg" xmlns:xlink="http://www.w3.org/1999/xlink" width="123.524" height="111.477" viewBox="0 0 123.524 111.477">
  <defs>
    <linearGradient id="linear-gradient" x1="0.5" x2="0.5" y2="1" gradientUnits="objectBoundingBox">
      <stop offset="0" stop-color="#1da2f4"/>
      <stop offset="1" stop-color="#0fedb2"/>
    </linearGradient>
  </defs>
  <path id="Path_173" data-name="Path 173" d="M123.477,32.147c0-.07-.035-.117-.035-.2a2.964,2.964,0,0,0-.105-.63,1.216,1.216,0,0,0-.082-.327,1.977,1.977,0,0,0-.058-.28,5.587,5.587,0,0,0-.3-.49.848.848,0,0,0-.058-.105,3.567,3.567,0,0,0-2.965-1.634H93.664a32.133,32.133,0,0,0-63.851.012H3.607A3.6,3.6,0,0,0,.642,30.128c-.012.012-.035.058-.058.093a5.585,5.585,0,0,0-.3.49c-.035.105-.035.187-.058.28a2.4,2.4,0,0,0-.082.339,2.86,2.86,0,0,0-.105.619c0,.082-.035.128-.035.2V107.87c0,.07.035.152.035.222a1.589,1.589,0,0,0,.023.245,3.092,3.092,0,0,0,.222.887.043.043,0,0,0,.012.035h0a4.152,4.152,0,0,0,.479.817,2.028,2.028,0,0,0,.152.175,3.518,3.518,0,0,0,.689.619h.023a3.755,3.755,0,0,0,.817.385c.07.023.14.047.2.07a3.727,3.727,0,0,0,.957.152h116.31a3.617,3.617,0,0,0,3.607-3.607c0-.117-.035-.21-.035-.3V32.147ZM35.252,28.494a26.755,26.755,0,0,1,53.24,3.654,27.608,27.608,0,0,1-.268,3.549,26.731,26.731,0,0,1-53,0,27.449,27.449,0,0,1-.257-3.549A31.47,31.47,0,0,1,35.252,28.494ZM29.8,35.7a32.132,32.132,0,0,0,63.875,0h17.509L81.979,64.9,76.9,69.98,61.738,85.131,46.575,69.98,41.5,64.9,12.292,35.7ZM7.2,40.82,36.385,70.015,7.2,99.185V40.82Zm5.089,63.454L41.474,75.1,59.205,92.835a3.7,3.7,0,0,0,5.078,0L82.014,75.1,111.2,104.275Zm103.983-5.089L87.1,70.015,116.275,40.82Z" fill="url(#linear-gradient)"/>
  <path id="Path_174" data-name="Path 174" d="M32.105,9.491H27.016l-.479,2.124a5.55,5.55,0,0,0-5.078-2.6,8.629,8.629,0,0,0-5.416,1.879,12.13,12.13,0,0,0-3.689,4.786,14.432,14.432,0,0,0-1.307,5.953,8.867,8.867,0,0,0,1.261,4.879,6.991,6.991,0,0,0,3.3,2.837,7.128,7.128,0,0,0,4.214.4,7.473,7.473,0,0,0,3.84-2.1,2.665,2.665,0,0,0,1.167,1.693,4.776,4.776,0,0,0,2.428.525,11.307,11.307,0,0,0,5.019-1.144A13.214,13.214,0,0,0,36.343,25.6a14.422,14.422,0,0,0,2.65-4.447,14.6,14.6,0,0,0,.922-5.054,15.648,15.648,0,0,0-1.144-6.058,13.888,13.888,0,0,0-3.338-4.728A14.852,14.852,0,0,0,30.2,2.23a20.118,20.118,0,0,0-6.7-1.062A21.646,21.646,0,0,0,15.343,2.65a18.132,18.132,0,0,0-6.3,4.121,18.375,18.375,0,0,0-3.934,6.175A21.228,21.228,0,0,0,3.74,20.6a18.621,18.621,0,0,0,1.331,7.167,15.248,15.248,0,0,0,3.91,5.6,17.731,17.731,0,0,0,6.4,3.572A27.2,27.2,0,0,0,23.9,38.183a28.323,28.323,0,0,0,5.825-.572,19.562,19.562,0,0,0,4.844-1.681,15.13,15.13,0,0,0,3.759-2.72c.105-.117.2-.245.292-.35a3.439,3.439,0,0,0,.4-1.121,1.774,1.774,0,0,0-1.774-1.774,3.234,3.234,0,0,0-1.342.619,12,12,0,0,1-3.245,2.288,19.39,19.39,0,0,1-6.035,1.623,25.381,25.381,0,0,1-8.043-.327,15.679,15.679,0,0,1-6.082-2.626A12.449,12.449,0,0,1,8.666,26.93a13.641,13.641,0,0,1-1.319-6.058A19.6,19.6,0,0,1,7.966,16,16.812,16.812,0,0,1,9.752,11.65a13.084,13.084,0,0,1,3.315-3.77,14.092,14.092,0,0,1,4.611-2.346,19.02,19.02,0,0,1,5.743-.817,16.83,16.83,0,0,1,5.521.84,11.789,11.789,0,0,1,4.1,2.346,10.16,10.16,0,0,1,2.533,3.549,10.852,10.852,0,0,1,.875,4.342,10.939,10.939,0,0,1-1.214,5.113,12.381,12.381,0,0,1-2.895,3.7,4.784,4.784,0,0,1-2.685,1.354.68.68,0,0,1-.525-.245,1.014,1.014,0,0,1-.233-.7,11.635,11.635,0,0,1,.268-1.728Zm-7.331,11.79a9.533,9.533,0,0,1-2.1,3.642A4.251,4.251,0,0,1,19.5,26.37a3.071,3.071,0,0,1-2.521-1.226,5.645,5.645,0,0,1-.969-3.56,13.734,13.734,0,0,1,.724-4.354,8.619,8.619,0,0,1,2.089-3.42,4.323,4.323,0,0,1,3.058-1.331,3.494,3.494,0,0,1,1.517.327,2.99,2.99,0,0,1,1.132.934,4.354,4.354,0,0,1,.712,1.436,6.446,6.446,0,0,1,.245,1.833A14.487,14.487,0,0,1,24.775,21.281Z" transform="translate(39.917 12.466)" fill="url(#linear-gradient)"/>
</svg>
