<svg id="Group_30" data-name="Group 30" xmlns="http://www.w3.org/2000/svg" xmlns:xlink="http://www.w3.org/1999/xlink" width="272.961" height="198.843" viewBox="0 0 272.961 198.843">
  <defs>
    <linearGradient id="linear-gradient" x1="0.5" x2="0.5" y2="1" gradientUnits="objectBoundingBox">
      <stop offset="0" stop-color="#1da2f4"/>
      <stop offset="1" stop-color="#0fedb2"/>
    </linearGradient>
  </defs>
  <path id="Path_51" data-name="Path 51" d="M34.516,88.113c-.081,0-.291-.016-.355-.016-.21,0-.469-.016-.759-.032L32.916,88c-.226-.032-.436-.065-.646-.113-.178-.016-.339-.048-.533-.081l-.5-.129a3.64,3.64,0,0,1-.711-.226,4.331,4.331,0,0,1-.646-.242,1.84,1.84,0,0,1-.355-.113,15.757,15.757,0,0,1-2-1.05,1.927,1.927,0,0,0-.291-.242l-.323-.226c-.226-.162-.355-.275-.485-.372-.258-.21-.485-.42-.743-.646a1.521,1.521,0,0,0-.162-.162L10.46,69.324a12.754,12.754,0,0,1,0-18.03,7.647,7.647,0,0,1,5.38-2.229,12.091,12.091,0,0,1,6.026,1.955L21.8,12.747a12.723,12.723,0,1,1,25.445-.016l-.355,38.24a12.643,12.643,0,0,1,6.171-1.923,7.641,7.641,0,0,1,5.509,2.278,12.715,12.715,0,0,1-.016,18.013L43.514,84.4c-.032.016-.065.048-.1.065a8.444,8.444,0,0,1-.808.743,1.59,1.59,0,0,0-.162.113c0,.016,0,.016-.016.016a4.96,4.96,0,0,1-.727.533c-.065.065-.307.21-.372.258-.178.113-.4.258-.6.355-.065.048-.291.145-.339.178a5.5,5.5,0,0,1-.711.339l-1.648.614c-.21.065-.452.113-.662.162a2.283,2.283,0,0,1-.436.113c-.339.048-.582.081-.84.113a3.333,3.333,0,0,1-.339.032,7.72,7.72,0,0,1-1.034.065C34.661,88.1,34.6,88.113,34.516,88.113Zm2.019-7.8L38.1,83.67l-1.357-3.457.646-.372a1.438,1.438,0,0,0,.388-.258h0a2.2,2.2,0,0,1,.275-.194c0-.032.113-.129.21-.242.032-.016.048-.048.065-.048L53.337,64.073a5.285,5.285,0,0,0,0-7.512c-.081-.1-.1-.113-.275-.113-.808,0-2.86.614-7.464,4.75a3.657,3.657,0,0,1-3.99.614,3.733,3.733,0,0,1-2.181-3.393l.4-45.72a5.323,5.323,0,0,0-10.647.032l.1,45.882a3.7,3.7,0,0,1-2.2,3.377,3.648,3.648,0,0,1-3.958-.63c-1.5-1.325-5.461-4.879-7.286-4.879a5.091,5.091,0,0,0-1.712,3.845,5.23,5.23,0,0,0,1.567,3.748L30.622,79.017a1.174,1.174,0,0,1,.145.129c.145.129.275.258.4.355.032.032.21.162.226.178l.242.178a.016.016,0,0,0,.016.016,3.744,3.744,0,0,0,.759.388c.113.048.258.1.388.162a2.905,2.905,0,0,1,.355.1l.355.081.339.048.291.032.291.016h.145c.162,0,.339-.016.533-.016Z" transform="translate(101.967 0)" fill="url(#linear-gradient)"/>
  <path id="Path_52" data-name="Path 52" d="M18.78,115.938a3.692,3.692,0,0,1-2.617-6.3,71.785,71.785,0,0,0,0-101.393A3.7,3.7,0,0,1,21.4,3.026a79.167,79.167,0,0,1,0,111.845A3.691,3.691,0,0,1,18.78,115.938Z" transform="translate(228.433 29.334)" fill="#474f59"/>
  <path id="Path_53" data-name="Path 53" d="M17.9,75.393a3.64,3.64,0,0,1-2.617-1.082,3.686,3.686,0,0,1,0-5.234,42.138,42.138,0,0,0-.016-59.517,3.69,3.69,0,0,1,5.218-5.218,49.578,49.578,0,0,1,.032,69.97A3.764,3.764,0,0,1,17.9,75.393Z" transform="translate(214.986 49.263)" fill="#474f59"/>
  <path id="Path_54" data-name="Path 54" d="M25.736,115.973a3.667,3.667,0,0,1-2.617-1.082,79.2,79.2,0,0,1,0-111.845,3.7,3.7,0,0,1,5.234,5.218,71.785,71.785,0,0,0,0,101.393,3.708,3.708,0,0,1-2.617,6.317Z" transform="translate(0 29.622)" fill="#474f59"/>
  <path id="Path_55" data-name="Path 55" d="M18.523,75.361a3.64,3.64,0,0,1-2.617-1.082,49.519,49.519,0,0,1-.016-69.97,3.7,3.7,0,0,1,5.234,5.234,42.138,42.138,0,0,0,.016,59.517,3.692,3.692,0,0,1-2.617,6.3Z" transform="translate(21.591 48.956)" fill="#474f59"/>
  <path id="Path_56" data-name="Path 56" d="M44.25,83.888a38.151,38.151,0,1,1,38.16-38.16A38.191,38.191,0,0,1,44.25,83.888Zm0-68.936a30.76,30.76,0,1,0,30.76,30.76A30.782,30.782,0,0,0,44.25,14.952Z" transform="translate(92.298 114.955)" fill="#474f59"/>
  <path id="Path_57" data-name="Path 57" d="M153.612,2.194H96.777l-.065,7.4H152L104.548,52.357a2.883,2.883,0,0,0-.679.582c-.016.016-.016.032-.032.065L84.256,70.629,64.692,53c-.016-.016-.016-.048-.032-.065a2.883,2.883,0,0,0-.679-.582L16.516,9.593H71.59v-7.4H14.916A11.47,11.47,0,0,0,3.446,13.648V96.7a11.273,11.273,0,0,0,3,7.658,3.807,3.807,0,0,0,.355.614,3.713,3.713,0,0,0,1.341.953,11.555,11.555,0,0,0,6.769,2.229H51.444a38.7,38.7,0,0,1,5.622-7.4H17.017L61.881,60.4,81.8,78.351a3.67,3.67,0,0,0,2.456.953,3.71,3.71,0,0,0,2.472-.953L106.648,60.4l44.864,40.357H111.527a38.207,38.207,0,0,1,5.654,7.4H153.6A11.459,11.459,0,0,0,165.067,96.7V13.648A11.466,11.466,0,0,0,153.612,2.194ZM10.845,96.381V14.44L56.339,55.427Zm146.838-.016L112.189,55.427l45.494-40.971Z" transform="translate(52.226 33.251)" fill="#474f59"/>
  <path id="Path_58" data-name="Path 58" d="M46.274,42.243a3.8,3.8,0,0,0-1.583.711,13.852,13.852,0,0,1-3.8,2.7,22.362,22.362,0,0,1-7.044,1.874,29.615,29.615,0,0,1-9.386-.372,18.6,18.6,0,0,1-7.108-3.07A14.191,14.191,0,0,1,12.9,38.7a16.229,16.229,0,0,1-1.551-7.076,22.611,22.611,0,0,1,.743-5.687,17.929,17.929,0,0,1,2.084-5.073,14.95,14.95,0,0,1,3.861-4.41,16.945,16.945,0,0,1,5.38-2.763,23.107,23.107,0,0,1,6.7-.937,19.831,19.831,0,0,1,6.43.985,13.712,13.712,0,0,1,4.782,2.746,11.724,11.724,0,0,1,2.956,4.136A12.83,12.83,0,0,1,45.321,25.7,12.587,12.587,0,0,1,43.9,31.661a13.956,13.956,0,0,1-3.36,4.314,5.5,5.5,0,0,1-3.134,1.6.747.747,0,0,1-.614-.291,1.114,1.114,0,0,1-.258-.792,13.012,13.012,0,0,1,.323-2.019l3.409-16.123H34.335l-.582,2.472a6.494,6.494,0,0,0-5.929-3.053,10.138,10.138,0,0,0-6.349,2.2,14.61,14.61,0,0,0-4.3,5.606,17.11,17.11,0,0,0-1.519,6.947,10.454,10.454,0,0,0,1.47,5.719,8.347,8.347,0,0,0,8.789,3.748,8.747,8.747,0,0,0,4.475-2.423,2.989,2.989,0,0,0,1.357,1.955,5.576,5.576,0,0,0,2.843.63,12.85,12.85,0,0,0,5.848-1.341,15.135,15.135,0,0,0,4.734-3.651,16.978,16.978,0,0,0,4.152-11.083A18.223,18.223,0,0,0,48,19a15.6,15.6,0,0,0-3.861-5.558,17.224,17.224,0,0,0-6.107-3.57,23.621,23.621,0,0,0-7.819-1.26,25.3,25.3,0,0,0-9.548,1.745,20.562,20.562,0,0,0-7.335,4.782,21.1,21.1,0,0,0-4.588,7.238,24.752,24.752,0,0,0-1.6,8.966A21.625,21.625,0,0,0,8.7,39.707a17.974,17.974,0,0,0,4.572,6.527A20.529,20.529,0,0,0,20.732,50.4a31.823,31.823,0,0,0,9.952,1.454,32.138,32.138,0,0,0,6.8-.679,22.935,22.935,0,0,0,5.638-1.955,17.129,17.129,0,0,0,4.41-3.183c.129-.129.226-.291.355-.4a3.948,3.948,0,0,0,.469-1.309A2.089,2.089,0,0,0,46.274,42.243ZM31.7,32.113a11.172,11.172,0,0,1-2.439,4.249,4.937,4.937,0,0,1-3.7,1.7,3.569,3.569,0,0,1-2.956-1.438,6.668,6.668,0,0,1-1.115-4.136,15.509,15.509,0,0,1,.856-5.089,9.534,9.534,0,0,1,2.423-4.023,4.962,4.962,0,0,1,3.57-1.535,4.065,4.065,0,0,1,1.745.372,3.7,3.7,0,0,1,1.325,1.082,4.8,4.8,0,0,1,.824,1.68,7.374,7.374,0,0,1,.275,2.149A16.424,16.424,0,0,1,31.7,32.113Z" transform="translate(108.287 130.444)" fill="#474f59"/>
</svg>
