<svg id="Layer_1" enable-background="new 0 0 512 512" height="512" viewBox="0 0 512 512" width="512" xmlns="http://www.w3.org/2000/svg"><g><g><g><g><path d="m445.935 34.29v312.33c0 18.91-15.38 34.29-34.29 34.29h-311.29c-18.91 0-34.29-15.38-34.29-34.29v-312.33c0-18.91 15.38-34.29 34.29-34.29h311.29c18.91 0 34.29 15.38 34.29 34.29z" fill="#e5f5f9"/><path d="m445.935 34.29v312.33c0 18.91-15.38 34.29-34.29 34.29h-29.98c18.94 0 34.29-15.35 34.29-34.29v-312.33c0-18.94-15.35-34.29-34.29-34.29h29.98c18.91 0 34.29 15.38 34.29 34.29z" fill="#bfd5dd"/><path d="m415.955 37.56v260.69c0 4.15-3.35 7.5-7.5 7.5h-304.92c-4.14 0-7.5-3.35-7.5-7.5v-260.69c0-4.14 3.36-7.5 7.5-7.5h304.92c4.15 0 7.5 3.36 7.5 7.5z" fill="#5cd5ff"/><path d="m415.955 37.56v260.69c0 4.15-3.35 7.5-7.5 7.5h-30c4.14 0 7.5-3.36 7.5-7.5v-260.69c0-4.14-3.36-7.5-7.5-7.5h30c4.15 0 7.5 3.36 7.5 7.5z" fill="#5ab5ff"/><path d="m320.015 106.56c0 21.74-17.69 39.42-39.42 39.42-4.37 0-8.57-.71-12.5-2.03-15.63-5.24-26.92-20.02-26.92-37.39 0-17.36 11.29-32.15 26.92-37.39 3.93-1.32 8.13-2.03 12.5-2.03 21.73 0 39.42 17.69 39.42 39.42z" fill="#ffeb31"/><path d="m320.015 106.56c0 21.74-17.69 39.42-39.42 39.42-4.37 0-8.57-.71-12.5-2.03 15.63-5.24 26.92-20.02 26.92-37.39 0-17.36-11.29-32.15-26.92-37.39 3.93-1.32 8.13-2.03 12.5-2.03 21.73 0 39.42 17.69 39.42 39.42z" fill="#ffce00"/><path d="m415.955 247.99v50.26c0 4.15-3.35 7.5-7.5 7.5h-304.92c-4.14 0-7.5-3.35-7.5-7.5v-85.28h48.93l63.44-63.44c2.93-2.93 7.68-2.93 10.6 0l67.71 67.71 43.94-43.94c1.41-1.41 3.32-2.2 5.31-2.2s3.89.79 5.3 2.2z" fill="#91ff31"/><path d="m415.955 247.99v50.26c0 4.15-3.35 7.5-7.5 7.5h-30c4.14 0 7.5-3.36 7.5-7.5v-80.26z" fill="#00ea80"/></g></g><path d="m343.72 424.28c0 48.37-39.35 87.72-87.72 87.72-5.11 0-10.13-.44-15-1.29-41.26-7.13-72.73-43.17-72.73-86.43s31.47-79.3 72.73-86.43c4.87-.85 9.89-1.29 15-1.29 48.37 0 87.72 39.35 87.72 87.72z" fill="#91ff31"/><path d="m343.72 424.28c0 48.37-39.35 87.72-87.72 87.72-5.11 0-10.13-.44-15-1.29 41.25-7.13 72.72-43.17 72.72-86.43s-31.47-79.3-72.72-86.43c4.87-.85 9.89-1.29 15-1.29 48.37 0 87.72 39.35 87.72 87.72z" fill="#00ea80"/></g><path d="m256 470.875c4.142 0 7.5-3.357 7.5-7.5v-60.085l21.341 21.342c1.464 1.464 3.384 2.196 5.303 2.196s3.839-.732 5.303-2.196c2.929-2.93 2.929-7.678 0-10.607l-34.145-34.145c-2.929-2.928-7.678-2.928-10.606 0l-34.145 34.145c-2.929 2.93-2.929 7.678 0 10.607 2.929 2.928 7.678 2.928 10.606 0l21.341-21.342v60.085c.002 4.143 3.36 7.5 7.502 7.5z" fill="#354c5b"/></g></svg>