<svg xmlns="http://www.w3.org/2000/svg" width="54.341" height="61.151" viewBox="0 0 54.341 61.151">
  <g id="Group_87" data-name="Group 87" transform="translate(0.008 -0.001)">
    <g id="Group_79" data-name="Group 79" transform="translate(-0.008 0.001)">
      <path id="Path_186" data-name="Path 186" d="M52.148,55.539a1.018,1.018,0,0,1-1.745-.727.972.972,0,0,1,.315-.751.949.949,0,0,1,.7-.267.994.994,0,0,1,1.018,1.018.832.832,0,0,1-.291.727m-1.309-1.333a.788.788,0,0,0-.242.582.848.848,0,1,0,1.7,0,.752.752,0,0,0-.242-.582.826.826,0,0,0-.606-.267.93.93,0,0,0-.606.267m.921,1.115a.466.466,0,0,1-.291.1.568.568,0,0,1-.412-.17.584.584,0,0,1-.17-.436.677.677,0,0,1,.145-.436.5.5,0,0,1,.412-.17.646.646,0,0,1,.291.073.5.5,0,0,1,.242.388h-.267c-.024-.073-.048-.145-.1-.17a.344.344,0,0,0-.145-.048.221.221,0,0,0-.194.1.517.517,0,0,0-.073.291.39.39,0,0,0,.073.267.3.3,0,0,0,.194.1.35.35,0,0,0,.17-.048l.073-.145h.242a.474.474,0,0,1-.194.315m2.569-10.762c0-.1-.024-.194-.024-.291,0-.073-.024-.121-.024-.17a2.537,2.537,0,0,0-.1-.412,2.346,2.346,0,0,0-.436-.751,2.427,2.427,0,0,0-.63-.509,3.31,3.31,0,0,0-.679-.242c-.073,0-.121-.024-.17-.024a3.588,3.588,0,0,0-.291-2.472l.048-.048a11.063,11.063,0,0,0,.751-.824l.048-.048a2.649,2.649,0,0,0,.339-.7,2.262,2.262,0,0,0,.1-.533v-.461a3.493,3.493,0,0,0-.315-1.333,3.429,3.429,0,0,0-.509-.751,2.972,2.972,0,0,0-.8-.63c-.024-.024-.048-.024-.073-.048a11.82,11.82,0,0,0-2.036-2.254c-.339-.291-.654-.533-.921-.727s-.485-.339-.606-.436A4.186,4.186,0,0,0,47.4,30.5a5.947,5.947,0,0,1-.509-.339,1.784,1.784,0,0,0-.145-.121.188.188,0,0,0-.024-.073,1.192,1.192,0,0,1-.024-.339c0-.242,0-.606.024-1.091.048-.776.121-1.818.218-3.248.024-.461.024-.9.024-1.285a9.454,9.454,0,0,0-.242-1.769c-.024-.121-.073-.242-.1-.364a.821.821,0,0,0-.073-.194,1.673,1.673,0,0,0-.1-.242c-.024-.048-.024-.1-.073-.145a2.446,2.446,0,0,0-.17-.364l-.024-.024-.024-.073-.024-.048a3.55,3.55,0,0,0-.412-.582,8.86,8.86,0,0,0-.412-1.382,7.9,7.9,0,0,0-.8-1.551,4.457,4.457,0,0,0-.412-.533l.048-.048a24.876,24.876,0,0,0,3.127-4.193c2.5-4.339,1.672-6.981.533-8.435l-.024-.048-.024-.048a6.992,6.992,0,0,0-4.411-2.181c-3.806-.485-8.12,1.406-9.259,1.939L32,1.438A4.153,4.153,0,0,0,31.4.9a6.679,6.679,0,0,0-.7-.412A5.555,5.555,0,0,0,29.1.056,10.422,10.422,0,0,0,25.242.42,26.771,26.771,0,0,0,18.31,3.5,47.539,47.539,0,0,0,10.772,9.17a44.983,44.983,0,0,0-7.417,8.508,25.141,25.141,0,0,0-2.23,4.048A13.791,13.791,0,0,0,.058,25.362a6.587,6.587,0,0,0,.073,2.3,4.389,4.389,0,0,0,.97,1.891l2.157,2.254.242.242-.024.024-.073.145a1.352,1.352,0,0,1-.121.194l-.073.145c-.024.073-.073.145-.1.218l-.073.145c-.024.073-.073.145-.1.218a.344.344,0,0,0-.048.145l-.073.218c-.024.048-.024.1-.048.145-.024.073-.048.145-.073.242,0,.024-.024.048-.024.073s-.024.048-.024.073c-.024.073-.048.17-.073.242,0,.048-.024.1-.024.145,0,.024-.024.073-.024.1,0,.048-.024.1-.024.145s-.024.1-.024.145c-.024.1-.024.194-.048.315a.183.183,0,0,1-.024.1v.024c0,.073-.024.145-.024.194,0,.1-.024.218-.024.315v1.212a.307.307,0,0,0,.024.145.6.6,0,0,0,.024.194v.073c0,.048.024.121.024.17s.024.1.024.17a.089.089,0,0,0,.024.073c0,.024.024.073.024.1v.048a1.092,1.092,0,0,0,.048.194c0,.024,0,.024.024.048a.263.263,0,0,1,.024.121l.024.048c0,.024,0,.024.024.048l.024.048v.073c0,.024,0,.024.024.048l.024.048c0,.048.024.073.024.121a1.1,1.1,0,0,1,.048.194v0c0,.024,0,.024.024.048a.952.952,0,0,1,.048.145.82.82,0,0,1,.073.194l.024.024c.024.048.024.1.048.121l.024.048c0,.024.024.048.024.073a.184.184,0,0,0,.048.1l.024.048c.024.024.024.073.048.1a.089.089,0,0,1,.024.073,1.181,1.181,0,0,1,.073.17l.024.024c.024.024.024.048.048.073s.024.073.048.1a.4.4,0,0,1,.073.145l.024.024c.024.024.024.048.048.073.024.048.048.073.048.1a.53.53,0,0,1,.073.121v.024c.024.024.024.048.048.073a.334.334,0,0,0,.073.1,1.435,1.435,0,0,1,.1.145c.024.024.048.048.048.073a.334.334,0,0,0,.073.1.53.53,0,0,1,.073.121c.024.024.048.073.073.1a.189.189,0,0,0,.1.1l.073.073.024.024c.048.048.073.1.121.145l.048.048.073.073.145.145.048.048.073.073.024.024a1.119,1.119,0,0,1,.17.17l.024.024c.024.024.048.024.073.073.073.073.145.121.218.194l.048.024.024.024.048.024c.073.048.121.1.194.145l.024.024a.075.075,0,0,0,.048.024l.048.048c.048.048.1.073.145.121L6,43.129l.048.048.024.024c.048.024.121.073.17.1a.126.126,0,0,0,.1.048l.048.024.024.024h.024a2.128,2.128,0,0,1,.242.145l.048.024.291.145h.024l.048.024.145.073c.024,0,.048.024.073.024.024.024.048.024.1.048h.024a.344.344,0,0,0,.145.048H7.6a1.18,1.18,0,0,0,.17.073H7.79l.048.024c.024,0,.048.024.073.024h.024c.073.024.145.048.242.073H8.2a2.019,2.019,0,0,0,.364.1H8.59c.1.024.218.048.315.073H9a1.216,1.216,0,0,0,.291.048h.1c.073,0,.121.024.194.024,0,.024.024.048.024.073.17.461.339.921.533,1.357C13,53.722,20.928,59.879,29.969,61.018,39.01,62.133,48.681,56.122,52.608,48c.17-.315.315-.606.461-.921a4.659,4.659,0,0,0,.9-1.26,1.578,1.578,0,0,0,.364-1.26M4.13,41.408h0" transform="translate(0.008 -0.001)" fill="#664f44"/>
    </g>
    <path id="Path_187" data-name="Path 187" d="M108.419,67.834a4.764,4.764,0,0,0-1.5-1.115,1.2,1.2,0,0,0-.315-.1c-.048-.024-.1-.073-.145-.1a6.417,6.417,0,0,0-1.527-.388,15.968,15.968,0,0,0-7.32,1.309c-.1.048-.194.073-.291.121-.145.073-.291.121-.436.194-.242.1-.485.218-.751.339-.048.024-.073.024-.121.048l-.461-.533-.218-.242-.194-.218-.073-.1-1.769-2.036-.145-.17-.194-.218h-.024l-.509.121-.582.121a4.55,4.55,0,0,0-1.139-.315,8.934,8.934,0,0,0-3.248.315A21.082,21.082,0,0,0,83.259,66.5a43.338,43.338,0,0,0-9.623,6.763c-1.139,1.018-2.181,2.085-3.151,3.127-.945,1.018-1.794,2.06-2.569,3.054a28.441,28.441,0,0,0-3.539,5.842,12.364,12.364,0,0,0-.945,3.224,4.689,4.689,0,0,0,.048,1.769c.048.17.1.291.145.436a2.607,2.607,0,0,0,.461.751l1.963,2.06.218.218.024-.024a.738.738,0,0,1,.194-.194l.024-.024.073-.073c.048-.073.121-.121.17-.194a.425.425,0,0,1,.121-.1c.048-.024.073-.073.121-.1l.048-.048c.048-.024.073-.073.121-.1.048-.048.121-.1.17-.145.024-.024.073-.048.1-.073h.024c.073-.048.121-.1.194-.145a.426.426,0,0,0,.121-.1c.073-.048.121-.1.194-.145.048-.024.073-.048.121-.073A.983.983,0,0,1,68.3,92.1c.048-.024.073-.048.121-.073.073-.048.145-.073.218-.121.048-.024.073-.048.121-.073l.048-.024c.073-.024.121-.073.194-.1.024-.024.073-.024.1-.048a1.182,1.182,0,0,1,.17-.073l.145-.073.048-.024.364-.145c.048-.024.073-.024.121-.048s.073-.024.121-.048l.048-.024c.024,0,.048-.024.073-.024a1.539,1.539,0,0,1,.17-.048h.048c.073-.024.121-.024.194-.048.048-.024.121-.024.17-.048.073-.024.145-.024.218-.048.024,0,.048-.024.1-.024a.146.146,0,0,0,.1-.024.671.671,0,0,1,.218-.024c.073,0,.121-.024.194-.024.048,0,.1-.024.145-.024h.194c.242,0,.533,0,.824.024h.048a7.862,7.862,0,0,1,.97.145c.073.024.17.024.242.048.024-.024.024-.073.048-.1.194-.315.364-.654.557-.97a36.787,36.787,0,0,1,3.442-4.824c.412-.485.824-.921,1.236-1.357A32.133,32.133,0,0,1,84.3,79.614c.339-.242.7-.461,1.018-.679.461-.291.9-.533,1.309-.776.339-.194.654-.364.97-.509q.764-.4,1.382-.654l.364-.145c.17-.073.339-.145.485-.194a2.084,2.084,0,0,0-.388-.024h-.485a2.084,2.084,0,0,0-.388.024c-.242.024-.509.048-.776.073-.1.024-.17.024-.267.048A12.212,12.212,0,0,1,89.44,76c.412-.121.824-.218,1.212-.291a12.178,12.178,0,0,1,1.5-.194c.315-.024.606-.024.873-.024s.533.024.751.024a7.778,7.778,0,0,1,1.285.17,2.211,2.211,0,0,0-.412-.412,4.075,4.075,0,0,0-.9-.485c-.121-.048-.218-.073-.315-.121a.749.749,0,0,0-.194-.048,2.416,2.416,0,0,1,.388-.048c.145-.024.267-.024.412-.048a12,12,0,0,1,2.909.121,8.953,8.953,0,0,1,1.454.388,2.265,2.265,0,0,0-.533-.654,5.593,5.593,0,0,0-.461-.339c.315.073.582.145.873.242a14.393,14.393,0,0,1,1.818.7l.436.218c.048.024.073.048.1.048.436.242.679.412.679.412a1.824,1.824,0,0,0-.412-.727c-.048-.048-.1-.121-.145-.17h.024c.024,0,.048.024.1.024a.41.41,0,0,1,.121.048,8.839,8.839,0,0,1,.824.364c.024,0,.024.024.048.024l.145.073a2.889,2.889,0,0,1,.364.218l.364.218c.073.048.121.073.194.121a4.423,4.423,0,0,1,.388.315c.145.121.267.242.388.364l.073.073a2.9,2.9,0,0,1,.267.291,6,6,0,0,1,.461.63,5.059,5.059,0,0,1,.412.9c0,.024,0,.048.024.048.073-.073.218-.218.388-.412,1.406-1.648,5.623-6.981,3.078-10.229" transform="translate(-61.822 -62.929)" fill="#132134"/>
    <g id="Group_80" data-name="Group 80" transform="translate(3.791 15.327)">
      <path id="Path_188" data-name="Path 188" d="M203.692,653.214a1.235,1.235,0,0,0-.145-.7.085.085,0,0,0-.024-.048l-.024-.024-.073-.073a1.058,1.058,0,0,0-.17-.145.53.53,0,0,0-.121-.073,1.664,1.664,0,0,0-.412-.121,1.955,1.955,0,0,0-.388-.024h-.194v.048c0,.024.024.049.024.1,0,.024,0,.049.024.049.024.073.048.194.073.291a.188.188,0,0,1-.024.073v.024a3.912,3.912,0,0,1-.7,1.042,2.414,2.414,0,0,1-.242.267c-1.212,1.26-3.83,3.03-9.356,4.024a18.928,18.928,0,0,1-5.066.1c-2.182-.267-3.806-.97-4.581-1.915-.073-.073-.121-.17-.194-.243-.048-.073-.073-.121-.121-.194-.024-.024-.024-.048-.048-.073a3.821,3.821,0,0,1-.461-1.818,3.406,3.406,0,0,1,.63-1.988,2.334,2.334,0,0,1,1.236-.921,2.069,2.069,0,0,1,.776-.1.835.835,0,0,1,.218.024c.17.024.436.049.751.1a.146.146,0,0,1,.1.024,25.881,25.881,0,0,0,4.678.17A20.464,20.464,0,0,0,202.6,645.8v-.024a1.886,1.886,0,0,0-.436-1.382,2.165,2.165,0,0,0-.242-.218c-.048-.048-.121-.073-.17-.121a1.053,1.053,0,0,1-.17-.1l-.218-.145v-.024a.507.507,0,0,0-.1-.145,12.032,12.032,0,0,0-3.3-3.151,3.569,3.569,0,0,0-.485-.315c-1.333-.824-1.527-1.091-1.406-3.3.048-.8.121-1.842.218-3.272,0-.194.024-.364.024-.533v-.7c0-.121-.024-.243-.024-.339a.307.307,0,0,0-.024-.145c-.024-.121-.024-.242-.048-.364,0-.049-.024-.121-.024-.17a.571.571,0,0,0-.048-.194c-.024-.049-.024-.121-.048-.17a.7.7,0,0,1-.049-.218c0-.024-.024-.049-.024-.073s-.024-.049-.024-.073V630.6l-.024-.073a.344.344,0,0,1-.048-.146v-.024l-.024-.049-.024-.049a2.849,2.849,0,0,0-.121-.267l-.024-.073c-.048-.073-.1-.17-.145-.242l-.024-.024-.024-.024c-.048-.048-.073-.1-.121-.146l-.048-.073a1.053,1.053,0,0,0-.145-.17v-.194c-.024-.1-.048-.218-.073-.339,0-.024-.024-.073-.024-.1v-.024c0-.049-.024-.073-.024-.121a1.369,1.369,0,0,0-.1-.291c0-.024-.024-.073-.024-.1l-.073-.218c-.024-.049-.024-.1-.048-.121a.861.861,0,0,0-.1-.218l-.073-.145c-.024-.073-.073-.146-.1-.218l-.073-.145c-.048-.073-.073-.146-.121-.218l-.073-.146a2.141,2.141,0,0,1-.145-.242c-.024-.049-.048-.073-.073-.121-.024-.024-.049-.073-.073-.1-.073-.073-.121-.145-.194-.218l-.048-.024a2.765,2.765,0,0,0-.267-.267l-.024-.024a.53.53,0,0,1-.121-.1h-.024c-.048-.024-.073-.049-.121-.073l-.024-.024c-.048-.024-.121-.073-.218-.121-.024-.024-.073-.024-.121-.048-.218-.073-.485-.17-.824-.267a.089.089,0,0,1-.073-.024,7.635,7.635,0,0,0-.921-.194c-.121-.024-.218-.024-.339-.049a.472.472,0,0,1-.17-.024h-.073c-.267-.024-.509-.048-.776-.048h-.024a4.459,4.459,0,0,0-.994.1,1.689,1.689,0,0,1,.485-.388,5.326,5.326,0,0,1,.509-.242,2.672,2.672,0,0,0-.436.049c-.048,0-.1.024-.145.024a.146.146,0,0,0-.1.024h-.024a.089.089,0,0,0-.073.024,12.522,12.522,0,0,0-1.891.606l-.145.073h-.024a.217.217,0,0,0-.121.024,2.149,2.149,0,0,1,1.066-.994c.048-.024.121-.049.17-.073.024,0,.024,0,.048-.024.048-.024.1-.024.121-.048a.423.423,0,0,1,.121-.024h-.388a5.78,5.78,0,0,0-2.206.727,8.816,8.816,0,0,0-1.163.776,1.031,1.031,0,0,1-.267.049c-.921.194-1.963.436-3.054.776-.412.121-.824.267-1.236.412-.315.121-.654.242-.97.364-.242.1-.461.194-.7.291a16.53,16.53,0,0,0-4.727,3.078l-.145.145-.364.364-.145.145a1.387,1.387,0,0,1-.17.194,9.9,9.9,0,0,0-.751.945,8.356,8.356,0,0,0-.485.776l-.024.024a10.115,10.115,0,0,0-.824,1.794c-.121.315-.218.654-.315.994-.024.1-.048.17-.073.267l-.024.049a8.608,8.608,0,0,0-.218,1.139c0,.073-.024.146-.024.242a4.718,4.718,0,0,0-.048.606,4.29,4.29,0,0,0-.024.558v.751a5.908,5.908,0,0,0,.024.655v.024c0,.218.024.436.048.679,0,.1.024.194.024.291V641a.473.473,0,0,0,.024.17c.024.242.073.509.1.776,0,.073.024.145.024.218.048.218.073.461.121.679a3.648,3.648,0,0,1-.024-.727c0-.1.024-.218.024-.315a3.382,3.382,0,0,1,.17-.8l.073-.218c0-.024.024-.048.048-.1a2.883,2.883,0,0,1,.194-.388c.024.1.024.194.049.267v1.285a16.848,16.848,0,0,0,.267,2.666s.024-1.527.291-1.721a30.193,30.193,0,0,0,.873,3.927,1.222,1.222,0,0,0,.17.315v-.291l-.048-1.576V645c.315.654.679,1.309,1.091,2.012.121.194.218.388.339.582a8.537,8.537,0,0,0-2.036,2.836c-.073.194-.17.388-.242.582-.048.121-.073.218-.121.339,0,.024-.024.073-.024.1-.024.073-.048.17-.073.242,0,.048-.024.073-.024.121-.024.073-.048.17-.073.242,0,.048-.024.073-.024.121l-.073.364a1.872,1.872,0,0,0-.048.364.219.219,0,0,1-.024.121c0,.1-.024.17-.024.267a.308.308,0,0,1-.024.146c0,.1-.024.17-.024.267v.848a1.491,1.491,0,0,0,.024.315v.073a2.418,2.418,0,0,0,.048.388.218.218,0,0,0,.024.121,1.034,1.034,0,0,0,.048.267c0,.048.024.1.024.146.024.073.024.17.049.242,0,.049.024.1.024.146a.716.716,0,0,1,.048.242,1.527,1.527,0,0,1,.048.17c.024.073.048.17.073.242.024.049.024.1.048.146.024.073.048.17.073.242.024.048.024.1.048.146.024.1.073.194.1.267.024.048.024.073.048.121l.364.8c.024.049.048.073.073.121l.145.291a.507.507,0,0,0,.1.145c.048.073.1.17.145.242.024.048.073.1.1.145a1.477,1.477,0,0,0,.17.242,1.021,1.021,0,0,1,.121.17c.048.073.121.17.17.242a1.026,1.026,0,0,1,.121.17c.073.073.121.17.194.242.048.048.073.1.121.145a2.406,2.406,0,0,0,.242.267l.121.121c.121.121.242.267.364.388a2.08,2.08,0,0,1-.17-.291.185.185,0,0,1-.048-.121l-.073-.146a1.183,1.183,0,0,1-.073-.17,4.068,4.068,0,0,1-.339-1.745l.218.291c.073.17.194.388.315.63a1.132,1.132,0,0,1,.121.242c.194.339.388.727.63,1.091.291.461.582.9.9,1.309a8.728,8.728,0,0,1-.485-1.285.877.877,0,0,1-.024-.339c.024.024.048.073.1.1.024.024.048.073.1.1q.073.109.218.291l.048.048c.048.048.073.121.121.17a1.327,1.327,0,0,0,.17.218,21.139,21.139,0,0,0,1.7,1.988,2.662,2.662,0,0,0,.412.315l-.7-1.26c1.6,1.309,8.241,2.981,14.762,1.115a17.064,17.064,0,0,0,2.351-.848c.461-.194.921-.436,1.382-.679l.073-.049c.315-.17.63-.364.945-.557.242-.145.485-.315.7-.461q.582-.4,1.163-.873c.024-.024.048-.048.073-.048a13.568,13.568,0,0,0,1.042-.994A14.666,14.666,0,0,0,201,658.207l.024-.024a2.929,2.929,0,0,0,.242-.339l.024-.024c.024-.048.048-.073.073-.121.121-.17.218-.315.339-.485.024-.048.048-.073.073-.121a1.629,1.629,0,0,1,.17-.267c.048-.073.073-.121.121-.194a.979.979,0,0,0,.121-.218c.073-.121.145-.267.218-.388l.073-.145.145-.291.073-.145.024-.048c.048-.121.121-.242.17-.364v-.024a5.07,5.07,0,0,0,.509-.558c.024-.024.048-.049.048-.073a3.988,3.988,0,0,0,.242-1.163m-39-4.7a.183.183,0,0,0-.024-.1,10.932,10.932,0,0,1-.17-1.285v-.1c-.073.024-.145.121-.242.242a1.048,1.048,0,0,0-.1.17,7.918,7.918,0,0,0-.412.994,4.7,4.7,0,0,0,.048-.582v-.073c.024-.194.048-.412.073-.606v-.073a5.645,5.645,0,0,1,.121-.679.183.183,0,0,1,.024-.1v-.024a.089.089,0,0,1,.024-.073c0-.048.024-.073.024-.121.024-.17.073-.339.1-.509.024-.145.048-.291.073-.412v-.048c0-.024,0-.048.024-.048v-.049c0-.024.024-.073.024-.1a.089.089,0,0,1,.024-.073,1.049,1.049,0,0,1,.024-.121c0-.024.024-.073.024-.1a1.049,1.049,0,0,1,.024-.121.089.089,0,0,1,.024-.073c0-.024,0-.048.024-.048,0-.049.024-.073.024-.1v-.073l-.048.048c-.048.024-.073.073-.121.1l-.048.048a.644.644,0,0,0-.121.145l-.024.024-.145.218-.024.024c0,.024-.024.024-.024.048l-.073.145v.049c-.024.073-.073.145-.1.218-.073.194-.145.388-.194.558-.024.048-.024.121-.048.145a1.968,1.968,0,0,0-.048.218v0a.534.534,0,0,1,.024-.194c0-.121.024-.267.024-.388a1.422,1.422,0,0,1,.048-.315.145.145,0,0,1,.024-.1c0-.049.024-.1.024-.145s.024-.1.024-.146v-.073c0-.048.024-.121.024-.17v-.17a.089.089,0,0,1,.024-.073.863.863,0,0,0,.048-.242V644.2c.024-.048.024-.121.048-.17V644c.024-.121.073-.242.1-.364v-.048a.089.089,0,0,1,.024-.073c.048-.194.121-.388.17-.557v-.024c.048-.145.121-.315.17-.461v-.024c.024-.073.048-.121.073-.194.048-.1.073-.194.121-.291a.63.63,0,0,1,.073-.17c.024-.024.024-.073.048-.1a1.177,1.177,0,0,0,.073-.17l.024-.048.412-.751c.024-.024.024-.073.048-.1v-.024l.024-.048c.048-.073.1-.17.145-.242.073-.121.121-.242.194-.339.121-.218.218-.412.291-.509a.259.259,0,0,1,.073-.121c-.024,0-.145-.1-.339-.218a11.189,11.189,0,0,0-.994-.533c-.145-.073-.267-.121-.412-.194-.17-.073-.364-.145-.557-.218-.048-.024-.1-.024-.145-.048-.17-.048-.315-.1-.485-.145-.121-.024-.242-.048-.339-.073s-.194-.024-.291-.049a188.338,188.338,0,0,1-.291-.048c-.121,0-.267-.024-.388-.024h-.194a4.535,4.535,0,0,0-.824.073H160.5a7.059,7.059,0,0,0-1.406.364c-.145.048-.291.121-.461.194-.048.024-.073.049-.121.049l-.145.073a6.863,6.863,0,0,0-1.236.824H157.1a6.274,6.274,0,0,0-.9.9l-.218.291a3.159,3.159,0,0,0-.242.364,6.677,6.677,0,0,0-.412.7,1.3,1.3,0,0,0-.121.267c0,.024-.024.024-.024.048a6.69,6.69,0,0,0-.509,1.842c-.024.121-.024.242-.048.388v.049c0,.1-.024.194-.024.315v.436a1.178,1.178,0,0,0,.024.291v.121c0,.073.024.146.024.218v.024a.219.219,0,0,0,.024.121c0,.073.024.145.024.194s.024.1.024.145c.024.073.024.121.048.194a.345.345,0,0,0,.048.146v.024l.024.048v.049l.024.048c.024.049.024.1.048.145s.024.121.048.17a.35.35,0,0,1,.048.17l.024.049c.024.049.024.073.048.121a1.181,1.181,0,0,1,.073.17l.073.146c.024.024.024.048.048.073s.024.048.048.073l.073.145a.608.608,0,0,0,.1.17.53.53,0,0,0,.073.121c.024.049.073.121.1.17s.048.073.073.121a.738.738,0,0,0,.121.17.334.334,0,0,0,.073.1c.048.048.073.121.121.17.024.024.048.073.073.1.048.048.1.121.145.17a.336.336,0,0,1,.073.1c.048.048.1.121.145.17l.073.073a1.116,1.116,0,0,0,.17.17l.073.073.17.17c.024.024.048.049.073.049.048.049.121.1.194.17.024.024.048.024.073.048.073.048.121.1.194.145.024.024.049.024.049.049l.218.146.048.024.218.145.048.024c.073.048.17.1.242.145l.048.024a1.127,1.127,0,0,0,.242.121l.048.024c.1.048.17.073.267.121l.024.024a2.823,2.823,0,0,1,.267.121h.024c.1.024.194.073.291.1h.024c.048.024.1.024.145.048a1.546,1.546,0,0,0,.17.048h.024c.1.024.218.048.315.073a1.422,1.422,0,0,0,.315.048c.339.049.679.073,1.018.1h.242a1.6,1.6,0,0,0,.339-.024c.145-.024.315-.024.485-.049.145-.024.291-.048.412-.073a4.787,4.787,0,0,0,.63-.17,4.348,4.348,0,0,0,1.5-.679s-.218-.969-.388-1.939a.56.56,0,0,1-.1-.243" transform="translate(-154.608 -623.812)" fill="#90694c"/>
    </g>
    <path id="Path_189" data-name="Path 189" d="M92.22,65.973,92.147,65l.485-1.067.194-.048a4.551,4.551,0,0,0-1.139-.315,8.934,8.934,0,0,0-3.248.315,21.084,21.084,0,0,0-4.193,1.624,43.34,43.34,0,0,0-9.623,6.763c-1.139,1.018-2.181,2.085-3.151,3.127-.945,1.018-1.794,2.06-2.569,3.054A28.441,28.441,0,0,0,65.363,84.3a12.364,12.364,0,0,0-.945,3.224,4.689,4.689,0,0,0,.048,1.769c.048.17.1.291.145.436a2.607,2.607,0,0,0,.461.751l1.963,2.06.218.218.024-.024a.738.738,0,0,1,.194-.194l.024-.024.073-.073c.048-.073.121-.121.17-.194a.425.425,0,0,1,.121-.1c.048-.024.073-.073.121-.1l.048-.048c.048-.024.073-.073.121-.1.048-.048.121-.1.17-.145.024-.024.073-.048.1-.073h.024c.073-.048.121-.1.194-.145a.426.426,0,0,0,.121-.1c.073-.048.121-.1.194-.145.048-.024.073-.048.121-.073a.982.982,0,0,1,.218-.121c.048-.024.073-.048.121-.073.073-.048.145-.073.218-.121.048-.024.073-.048.121-.073l.048-.024a21.544,21.544,0,0,1,2.085-4.169,40.454,40.454,0,0,1,4.242-5.575,47.636,47.636,0,0,1,3.49-3.515,51.475,51.475,0,0,1,4.945-3.975c1.115-.776,2.206-1.479,3.272-2.085.1-.048.194-.121.315-.17.291-.17.557-.315.848-.461.606-.315,1.212-.606,1.794-.848l-.291-.339-.048-.048-.364-.412L88.075,66.8l.024-1.745-.024-.024,1.43-.436,2.715,1.382" transform="translate(-62.784 -61.966)" fill="#2f83c1"/>
    <g id="Group_81" data-name="Group 81" transform="translate(7.998 20.223)">
      <path id="Path_190" data-name="Path 190" d="M370.712,847.6a1.235,1.235,0,0,0-.145-.7.085.085,0,0,0-.024-.049l-.024-.024-.073-.073a1.061,1.061,0,0,0-.17-.145.535.535,0,0,0-.121-.073,1.665,1.665,0,0,0-.412-.121,1.959,1.959,0,0,0-.388-.024h-.194v.048c0,.024.024.048.024.1,0,.024,0,.049.024.049.024.073.049.194.073.291a.188.188,0,0,1-.024.073v.024a3.912,3.912,0,0,1-.7,1.042,2.4,2.4,0,0,1-.242.267c-1.212,1.26-3.83,3.03-9.356,4.024a18.923,18.923,0,0,1-5.066.1c-2.181-.267-3.805-.97-4.581-1.915-.073-.073-.121-.17-.194-.242-.048-.073-.073-.121-.121-.194-.024-.024-.024-.049-.048-.073a3.82,3.82,0,0,1-.461-1.818,3.406,3.406,0,0,1,.63-1.988,2.335,2.335,0,0,1,1.236-.921,2.071,2.071,0,0,1,.776-.1.835.835,0,0,1,.218.024c.17.024.436.048.751.1a.145.145,0,0,1,.1.024,25.887,25.887,0,0,0,4.678.17,20.465,20.465,0,0,0,12.75-5.284v-.024a1.886,1.886,0,0,0-.436-1.382,2.195,2.195,0,0,0-.242-.218c-.048-.049-.121-.073-.17-.121a1.055,1.055,0,0,1-.17-.1l-.218-.146v-.024a.506.506,0,0,0-.1-.145,12.037,12.037,0,0,0-3.3-3.151,3.57,3.57,0,0,0-.485-.315c-1.333-.824-1.527-1.091-1.406-3.3.049-.8.121-1.842.218-3.272,0-.194.024-.364.024-.533v-.7c0-.121-.024-.242-.024-.339a.307.307,0,0,0-.024-.145c-.024-.121-.024-.242-.048-.364,0-.048-.024-.121-.024-.17a.572.572,0,0,0-.048-.194c-.024-.048-.024-.121-.048-.17a.706.706,0,0,1-.048-.218c0-.024-.024-.049-.024-.073s-.024-.049-.024-.073v-.024l-.024-.073a.344.344,0,0,1-.048-.145v-.024l-.024-.048-.024-.049a2.82,2.82,0,0,0-.121-.267l-.024-.073c-.048-.073-.1-.17-.145-.242l-.024-.024-.024-.024c-.048-.049-.073-.1-.121-.145l-.048-.073a1.051,1.051,0,0,0-.145-.17l-.194-.194a.976.976,0,0,0-.218-.121.089.089,0,0,0-.073-.024l-.145-.073c-.024,0-.048-.024-.073-.024-.048-.024-.1-.024-.121-.048-.024,0-.048-.024-.1-.024s-.073-.024-.121-.024h-.533a122.026,122.026,0,0,1-.145.049.62.62,0,0,0-.17.048h-.048c-.146.049-.267.1-.412.145l-.048.024a1.174,1.174,0,0,1-.17.073l-.073.024-.145.073-.073.049-.145.073-.073.049c-.048.024-.1.073-.145.1l-.049.024c-.048.048-.121.073-.17.121l-.024.024a.845.845,0,0,1-.194.121c-.121.073-.242.17-.364.242a3.531,3.531,0,0,1-.315.218l-.048.024a2.212,2.212,0,0,1-.315.194l-.048.024c-.1.073-.218.121-.315.194l-.048.024a1.483,1.483,0,0,1-.339.17l-.048.024c-.121.048-.218.1-.339.145l-.048.024c-.121.049-.242.073-.364.121h-.024c-.121.024-.267.049-.388.073a6.372,6.372,0,0,1-.679.049,8.9,8.9,0,0,1-1.115-.073l-.364-.073a1.047,1.047,0,0,1-.121-.024c-.315-.073-.654-.145-.97-.218-.145-.024-.267-.073-.412-.1-.218-.048-.436-.1-.679-.145a1.051,1.051,0,0,1-.121-.024c-.024,0-.073-.024-.1-.024-.048,0-.1-.024-.145-.024s-.1-.024-.145-.024h-.048a1.052,1.052,0,0,1-.121-.024,1.231,1.231,0,0,0-.315-.048.146.146,0,0,1-.1-.024c-.073,0-.145-.024-.218-.024a.219.219,0,0,1-.121-.024c-.073,0-.121-.024-.194-.024h-1.115c-.121,0-.218.024-.339.024h-.1c-.073,0-.145.024-.218.024h-.024c-.048,0-.073.024-.121.024-.073.024-.145.024-.218.048a1.053,1.053,0,0,0-.121.024.707.707,0,0,1-.218.048c-.048,0-.073.024-.121.049-.073.024-.17.048-.242.073-.048.024-.073.024-.1.048-.121.049-.242.1-.339.145a7.7,7.7,0,0,0-2.327,2.085,9.091,9.091,0,0,0-.582.873,7.529,7.529,0,0,0-.485.994c-.048.1-.073.194-.121.291-.048.17-.121.339-.17.509,0,.024,0,.048-.024.048-.048.194-.1.388-.145.606a5.644,5.644,0,0,0-.1.63,1.6,1.6,0,0,0-.024.339,5.845,5.845,0,0,0,0,.921v.073a.909.909,0,0,0,.024.242,6.075,6.075,0,0,0,.1.655.717.717,0,0,1,.049.242c.024.073.024.145.048.218a5.609,5.609,0,0,0,.63,1.5,8.556,8.556,0,0,0,3.854,3.321c.461.194.945.388,1.454.558l-.048.049c-.1.024-.194.048-.315.073-.17.048-.388.121-.606.194-.242.073-.533.194-.824.315a9.632,9.632,0,0,0-2.424,1.406c-.1.073-.194.17-.291.242a4.135,4.135,0,0,0-.461.461l-.049.049-.073.073c-.048.073-.121.121-.17.194l-.073.073a2.021,2.021,0,0,0-.194.291c-.073.1-.121.194-.194.291a5.116,5.116,0,0,0-.654,2.933v-.048a.089.089,0,0,1,.024-.073v-.024c0-.024.024-.048.024-.1v-.024a1.048,1.048,0,0,0,.024-.121c0-.049.024-.073.048-.121v-.024c.024-.049.024-.1.048-.146v-.024c.024-.049.024-.1.048-.145v-.024a1.172,1.172,0,0,0,.073-.17l.024-.024a.6.6,0,0,1,.1-.17c.048-.1.1-.17.145-.267.024-.024.048-.073.073-.1l.024-.024.145-.218c.049-.049.1-.121.145-.17l.048-.048c.048-.048.073-.1.121-.121l.048-.048a1.123,1.123,0,0,0,.17-.17,7.925,7.925,0,0,0-.582,4.242v-.364a541.446,541.446,0,0,0,.048-.291v-.024c0-.048.024-.121.024-.17v-.048c.024-.073.024-.121.048-.194v-.024a.749.749,0,0,0,.048-.194c0-.024.024-.048.024-.073l.024-.048c.024-.049.048-.121.073-.17a.985.985,0,0,1,.121-.218.085.085,0,0,1,.024-.048l.145-.218s-.048.582-.048,1.285a1.6,1.6,0,0,0,.024.339.67.67,0,0,0,.024.218,9.569,9.569,0,0,1,.388-2.109,9.569,9.569,0,0,0-.388,2.109,9.726,9.726,0,0,0,.679,4.193,3.406,3.406,0,0,1,.145-2.181l.146.291c.048.315.1.776.194,1.285a9.05,9.05,0,0,0,2.23,5.163,3.041,3.041,0,0,1-.557-1.939c.073.145.145.267.194.388a12.1,12.1,0,0,0,1.527,2.3s-.509-.994-.388-1.212a13.654,13.654,0,0,0,2.23,2.3l-.7-1.163-.024-.024c2.448,1.794,5.842,2.448,10.011,1.285a18.862,18.862,0,0,0,2.23-.776c.461-.194.921-.436,1.382-.679l.073-.048c.315-.17.63-.364.945-.557.242-.145.485-.315.7-.461q.582-.4,1.163-.873c.024-.024.048-.048.073-.048a13.587,13.587,0,0,0,1.042-.994,14.655,14.655,0,0,0,1.163-1.382l.024-.024a2.949,2.949,0,0,0,.242-.339l.024-.024c.024-.049.048-.073.073-.121.121-.17.218-.315.339-.485.024-.048.048-.073.073-.121a1.641,1.641,0,0,1,.17-.267c.048-.073.073-.121.121-.194a.987.987,0,0,0,.121-.218c.073-.121.145-.267.218-.388l.073-.145.145-.291.073-.145.024-.049c.048-.121.121-.242.17-.364v-.024a5.07,5.07,0,0,0,.509-.557c.024-.024.048-.048.048-.073a1.794,1.794,0,0,0,.315-1.018m-39.194-6.181c-.073.024-.146.121-.242.242a1.048,1.048,0,0,0-.1.17,7.924,7.924,0,0,0-.412.994,4.7,4.7,0,0,0,.048-.582v-.073c.024-.194.048-.412.073-.606v-.073a5.646,5.646,0,0,1,.121-.679.182.182,0,0,1,.024-.1v-.024a.089.089,0,0,1,.024-.073c0-.049.024-.073.024-.121.024-.17.073-.339.1-.509.024-.145.048-.291.073-.412v-.048c0-.024,0-.048.024-.048v-.049c0-.024.024-.073.024-.1a.089.089,0,0,1,.024-.073,1.059,1.059,0,0,1,.024-.121c0-.024.024-.073.024-.1a1.053,1.053,0,0,1,.024-.121.089.089,0,0,1,.024-.073c0-.024,0-.049.024-.049,0-.048.024-.073.024-.1v-.073l-.048.049c-.048.024-.073.073-.121.1l-.049.048a.645.645,0,0,0-.121.145l-.024.024-.145.218-.024.024c0,.024-.024.024-.024.049l-.073.145v.049c-.024.073-.073.146-.1.218-.073.194-.145.388-.194.558-.024.048-.024.121-.048.145a1.976,1.976,0,0,0-.048.218v0a.534.534,0,0,1,.024-.194c0-.121.024-.267.024-.388a1.418,1.418,0,0,1,.049-.315.146.146,0,0,1,.024-.1c0-.048.024-.1.024-.145s.024-.1.024-.146v-.073c0-.049.024-.121.024-.17v-.17a.089.089,0,0,1,.024-.073.859.859,0,0,0,.048-.242v-.024c.024-.049.024-.121.048-.17v-.024c.024-.121.073-.242.1-.364v-.048a.089.089,0,0,1,.024-.073c.048-.194.121-.388.17-.558v-.024c.048-.145.121-.315.17-.461v-.024c.024-.073.048-.121.073-.194.048-.1.073-.194.121-.291a.633.633,0,0,1,.073-.17c.024-.024.024-.073.048-.1a1.186,1.186,0,0,0,.073-.17l.024-.048c-.024-.024-.073-.024-.1-.048h-.024l-.048-.024a6.035,6.035,0,0,0-.7-.267h-.048a3.424,3.424,0,0,0-.485-.1c-.1,0-.194-.024-.291-.024H329.7c-.121,0-.242.024-.364.024a.219.219,0,0,0-.121.024c-.048,0-.121.024-.17.024a.089.089,0,0,0-.073.024c-.048,0-.073.024-.121.024-.073.024-.17.048-.242.073-.024,0-.073.024-.1.024-.1.048-.218.073-.315.121-.048.024-.073.049-.121.049l-.145.073-.048.024a1804.675,1804.675,0,0,0-.291.194c-.048.024-.1.073-.145.1-.024.024-.073.048-.1.073-.073.073-.17.146-.242.218l-.121.121c-.073.073-.121.145-.194.218l-.024.024c-.024.048-.073.073-.1.121l-.073.073a4.264,4.264,0,0,0-.339.558c-.024.024-.024.048-.048.073-.049.1-.073.194-.121.291-.024.048-.024.073-.048.121-.024.1-.073.194-.1.315v.1c-.024.073-.024.145-.048.218a1274.832,1274.832,0,0,1-.049.242v.1a1.825,1.825,0,0,0,0,.364,1.178,1.178,0,0,0,.024.291v.049c0,.048.024.1.024.146a4.585,4.585,0,0,0,.121.557c.048.145.1.267.145.388a3.653,3.653,0,0,0,.364.679,3.844,3.844,0,0,0,1.139,1.115,3.209,3.209,0,0,0,.824.388,3.28,3.28,0,0,0,.873.194c.073,0,.145.024.194.024h.315c.1,0,.194-.024.291-.024a.412.412,0,0,0,.17-.024c.145-.024.267-.049.412-.073h.024a1.519,1.519,0,0,1,.17-.048,2.89,2.89,0,0,0,.485-.194l.024-.024a.407.407,0,0,1,.121-.048,10.937,10.937,0,0,1-.17-1.285c.121-.048.121-.073.121-.1" transform="translate(-325.835 -823.097)" fill="#fce9cd"/>
    </g>
    <path id="Path_191" data-name="Path 191" d="M1223.069,174.92l.073.049Z" transform="translate(-1193.027 -170.622)" fill="#4d9ed7"/>
    <path id="Path_192" data-name="Path 192" d="M1339.694,1612.642c0-.024,0-.048-.024-.048a.183.183,0,0,1-.024-.1,3.476,3.476,0,0,0-.412-.9,2.632,2.632,0,0,0-.315-.412l.073-.291a1.876,1.876,0,0,0,.048-.364,3.5,3.5,0,0,0-.315-1.939,1.158,1.158,0,0,0-.073-.17c-.145.1-.266.194-.412.291a21.144,21.144,0,0,1-8.726,3.393,25.076,25.076,0,0,1-6.884.073l.048.024a2.314,2.314,0,0,0-1.842,1.576l.024.024-.121.921a2.859,2.859,0,0,0,1.26,2.448,10.455,10.455,0,0,0,2.424.582,19.393,19.393,0,0,0,5.26-.145,22.206,22.206,0,0,0,8.459-3.345,13.431,13.431,0,0,0,1.527-1.212l.024-.024.024-.024c0-.17-.024-.267-.024-.364" transform="translate(-1288.298 -1568.907)" fill="#fff"/>
    <g id="Group_82" data-name="Group 82" transform="translate(8.227 21.096)">
      <path id="Path_193" data-name="Path 193" d="M1008.262,869.286c-1.333-.824-1.527-1.091-1.406-3.3.049-.8.121-1.842.218-3.272,0-.194.024-.364.024-.533v-.7c0-.121-.024-.242-.024-.339a.307.307,0,0,0-.024-.145c-.024-.121-.024-.242-.049-.364,0-.048-.024-.121-.024-.17a.569.569,0,0,0-.049-.194c-.024-.048-.024-.121-.048-.17a3.345,3.345,0,0,0-.679-.751l-.049-.048-.048-.024h-.024c-.049-.024-.073-.049-.121-.073a.529.529,0,0,1-.121-.073,3.522,3.522,0,0,0-1.309-.461,4.434,4.434,0,0,0-.8-.048c-.121,0-.267.024-.388.024a8.925,8.925,0,0,0-1.042.218c-.121.073-.242.17-.364.242a3.517,3.517,0,0,1-.315.218l-.048.024a2.217,2.217,0,0,1-.315.194l-.049.024c-.1.073-.218.121-.315.194l-.048.024a1.483,1.483,0,0,1-.339.17l-.048.024c-.121.048-.218.1-.339.145l-.048.024c-.121.048-.243.073-.364.121h-.024c-.121.024-.267.048-.388.073a6.4,6.4,0,0,1-.679.048,8.9,8.9,0,0,1-1.115-.073l-.364-.073a1.052,1.052,0,0,1-.121-.024c-.315-.073-.654-.145-.969-.218-.145-.024-.267-.073-.412-.1-.218-.049-.436-.1-.678-.145a1.049,1.049,0,0,1-.121-.024,3.981,3.981,0,0,0-.557.049h-.048a8.12,8.12,0,0,0-1.648.388c-.024,0-.049.024-.1.024-.1.024-.17.073-.267.1-.121.048-.218.1-.339.145a9.166,9.166,0,0,0-2.278,1.43c-.291.242-.557.509-.824.776a10.757,10.757,0,0,0-1.042,1.309c-.024.024-.024.049-.048.073a5.976,5.976,0,0,0-.436.751,2.644,2.644,0,0,1-.146.267v.024a7.275,7.275,0,0,0-.364.921c0,.024,0,.049-.024.049-.024.048-.024.1-.049.145a2.945,2.945,0,0,0-.121.436,2.569,2.569,0,0,0-.1.461c0,.024-.024.073-.024.1-.024.1-.024.194-.048.267-.049.339-.073.679-.1,1.018v.242a5.605,5.605,0,0,0,.63,1.5,8.557,8.557,0,0,0,3.854,3.321c.461.194.945.388,1.454.557l.024.024.024-.024c.072-.048.121-.1.194-.145.024-.024.048-.024.073-.048l.218-.146c.024-.024.048-.024.073-.048l.218-.145c.024-.024.048-.024.073-.049a2.155,2.155,0,0,1,.242-.145c.024-.024.049-.024.073-.049.073-.048.17-.1.242-.145.024-.024.049-.024.073-.048.073-.048.17-.1.242-.146.024-.024.073-.024.1-.049.073-.048.169-.1.242-.145a.184.184,0,0,1,.1-.049,2.677,2.677,0,0,1,.267-.145c.049-.024.073-.048.121-.048a1.314,1.314,0,0,1,.267-.121c.048-.024.073-.049.121-.049.1-.048.17-.073.267-.121l.145-.073c.1-.048.17-.073.267-.121a1.188,1.188,0,0,1,.17-.073c.1-.024.17-.073.267-.1.049-.024.121-.048.17-.073.1-.024.17-.073.267-.1.073-.024.121-.048.194-.073.1-.024.17-.073.267-.1l.218-.073a1.013,1.013,0,0,0,.242-.1c.073-.024.17-.048.242-.073s.17-.049.242-.073c.1-.024.194-.048.267-.073s.145-.048.242-.073a2.266,2.266,0,0,0,.315-.1c.048-.024.1-.024.145-.048.388-.994,1.576-3.466,3.587-3.733a5.557,5.557,0,0,1,.606-.048h.146a2.681,2.681,0,0,1-.049-.461c-.073-1.067.267-1.963.727-1.988.364-.024.655.509.7.679a3.3,3.3,0,0,1,.267,1.188,4.257,4.257,0,0,1-.1,1.139c.048.048.073.1.121.121a2.941,2.941,0,0,1,.509,1.939c.17-.024.363-.024.557-.048a.306.306,0,0,0,.145-.024h.1a6.4,6.4,0,0,1,.7-.048c.533-.048,1.066-.073,1.624-.1-.315-.17-.509-.267-.509-.267m5.066,14.931a15.007,15.007,0,0,1-2.715,1.915c-.461.242-.921.46-1.358.654a18.045,18.045,0,0,1-2.787.945,14.55,14.55,0,0,1-3.151.461,5.818,5.818,0,0,0,3.175.485,5.536,5.536,0,0,0,1.018-.17c-.024.364-.073.7-.121,1.042a5.067,5.067,0,0,1-.291.97v.024a5.265,5.265,0,0,1-.533.969c-.024.024-.049.073-.073.1l.073-.049c.315-.17.63-.364.945-.557.242-.146.485-.315.7-.461q.582-.4,1.164-.873c.024-.024.048-.048.073-.048a13.531,13.531,0,0,0,1.042-.994,14.654,14.654,0,0,0,1.164-1.382l.024-.024a2.957,2.957,0,0,0,.242-.339l.024-.024c.024-.048.048-.073.073-.121.121-.17.218-.315.339-.485.024-.048.049-.073.073-.121a1.631,1.631,0,0,1,.17-.267c.048-.073.073-.121.121-.194a.992.992,0,0,0,.121-.218c.073-.121.145-.267.218-.388l.073-.145.145-.291.073-.145.024-.049c.048-.121.121-.242.17-.364a.435.435,0,0,0-.218.145m-22.106-9.768c-.242.073-.533.194-.824.315a9.629,9.629,0,0,0-2.424,1.406c-.1.073-.194.17-.291.242a4.135,4.135,0,0,0-.461.461l-.048.049-.073.073c-.048.073-.121.121-.17.194l-.073.073a2.029,2.029,0,0,0-.194.291c-.073.1-.121.194-.194.291a5.116,5.116,0,0,0-.655,2.933v-.048a.089.089,0,0,1,.024-.073v-.024c0-.024.024-.048.024-.1v-.024a1.049,1.049,0,0,0,.024-.121c0-.048.024-.073.048-.121v-.024c.024-.048.024-.1.049-.145v-.024c.024-.049.024-.1.048-.145V879.9a1.182,1.182,0,0,0,.073-.17l.024-.024a.6.6,0,0,1,.1-.17c.049-.1.1-.17.146-.267.024-.024.048-.073.073-.1l.024-.024.145-.218c.048-.048.1-.121.145-.17l.049-.049c.048-.049.073-.1.121-.121l.048-.048a1.112,1.112,0,0,0,.17-.17,7.927,7.927,0,0,0-.582,4.242v-.364a180.71,180.71,0,0,1,.048-.291v-.024c0-.048.024-.121.024-.17v-.049c.024-.073.024-.121.048-.194V881.5a.748.748,0,0,0,.049-.194c0-.024.024-.048.024-.073l.024-.049c.024-.048.049-.121.073-.17a.979.979,0,0,1,.121-.218.085.085,0,0,1,.024-.049l.146-.218s-.049.582-.049,1.285a1.6,1.6,0,0,0,.024.339.669.669,0,0,0,.024.218,9.562,9.562,0,0,1,.388-2.109c.048-.17.121-.364.17-.533,0-.024.024-.048.024-.073.073-.17.121-.315.194-.485.024-.024.024-.048.048-.1.073-.145.145-.315.218-.461a.09.09,0,0,0,.024-.073q.255-.473.509-.873c.024-.024.024-.048.048-.073a3.5,3.5,0,0,0,.218-.315c.024-.024.024-.048.048-.073s.024-.048.049-.073c.1-.121.17-.242.267-.364.024-.024.024-.048.048-.048a4.247,4.247,0,0,1,.291-.339c.121-.145.242-.267.364-.412a2.773,2.773,0,0,1,.267-.267l.1-.1c.194-.194.388-.388.582-.557a10.6,10.6,0,0,1,1.115-.9c-.1.024-.194.048-.315.073a3.715,3.715,0,0,1-.582.218" transform="translate(-969.819 -858.621)" fill="#f2d2ac"/>
      <path id="Path_194" data-name="Path 194" d="M370.512,1241.138a.679.679,0,0,0-.024-.146,1.472,1.472,0,0,0-1.769-1.042,2.345,2.345,0,0,0-2.012,1.673.424.424,0,0,0-.024.121l.049.024a.7.7,0,0,1,.824.073,1.407,1.407,0,0,1,.339.315.55.55,0,0,1,.073.533l-.073.073a.775.775,0,0,0,.145.048,1.927,1.927,0,0,0,2.06-.412c.024-.048.048-.073.073-.121-.121-.049-.17-.218-.17-.436a1.667,1.667,0,0,1,.049-.315c.073-.291.291-.461.461-.388m-7.005,10.374c-.921.194-1.721.339-2.327.436a.145.145,0,0,1,.1.024,25.9,25.9,0,0,0,4.678.17,20.466,20.466,0,0,0,12.75-5.284v-.024a1.886,1.886,0,0,0-.436-1.381,2.157,2.157,0,0,0-.242-.218c-.024,0-.024-.024-.048-.024a3.594,3.594,0,0,1-.315-.194l-.218-.145v-.024a7.831,7.831,0,0,1-.921,1.091c-.121.121-.242.243-.388.364a16.55,16.55,0,0,1-4.411,2.715,42.689,42.689,0,0,1-8.217,2.5m-22.979-6.326c-.048.024-.073.073-.121.1l-.048.048a.646.646,0,0,0-.121.145l-.024.024-.145.218-.024.024c0,.024-.024.024-.024.048l-.073.146v.049c-.024.073-.073.146-.1.218-.073.194-.145.388-.194.557-.024.048-.024.121-.049.146a1.966,1.966,0,0,0-.048.218v0a.535.535,0,0,1,.024-.194c0-.121.024-.267.024-.388a1.418,1.418,0,0,1,.049-.315.146.146,0,0,1,.024-.1c0-.048.024-.1.024-.146s.024-.1.024-.146v-.073c0-.049.024-.121.024-.17v-.169a.089.089,0,0,1,.024-.073.863.863,0,0,0,.048-.243v-.024c.024-.048.024-.121.048-.17v-.024c.024-.121.073-.242.1-.364v-.048a.089.089,0,0,1,.024-.073c.048-.194.121-.388.17-.557v-.025c.048-.145.121-.315.17-.46v-.024c.024-.073.048-.121.073-.194.048-.1.073-.194.121-.291a.632.632,0,0,1,.073-.17c.024-.024.024-.072.048-.1a1.164,1.164,0,0,0,.073-.17l.024-.048c-.024-.024-.073-.024-.1-.048h-.024l-.048-.024a6.058,6.058,0,0,0-.7-.267h-.049a3.457,3.457,0,0,0-.485-.1c-.1,0-.194-.024-.291-.024h-.242c-.121,0-.242.024-.364.024a.217.217,0,0,0-.121.024c-.048,0-.121.024-.17.024a.089.089,0,0,0-.073.024c-.048,0-.073.024-.121.024-.073.024-.17.049-.242.073-.024,0-.073.024-.1.024-.1.048-.218.073-.315.121-.049.024-.073.049-.121.049l-.145.073-.048.024a902.185,902.185,0,0,1-.291.194c-.048.024-.1.073-.145.1-.024.024-.073.049-.1.073-.073.073-.17.146-.242.218l-.121.121c-.073.073-.121.146-.194.218l-.024.024c-.024.048-.073.072-.1.121l-.073.073a4.259,4.259,0,0,0-.339.558c-.024.024-.024.048-.049.073-.048.1-.073.194-.121.291-.024.049-.024.073-.049.121,0,.024.024.048.024.073.024.1.049.17.073.266v.048c.024.073.073.17.1.242a4.108,4.108,0,0,0,.315.655c.024.024.024.048.048.073v.024l.024.024a2.4,2.4,0,0,0,.218.364c.121.169.218.291.291.388l.048.049a.024.024,0,0,0,.024.024l.048.049a1.051,1.051,0,0,0-.024-.121,3.967,3.967,0,0,1-.1-.921v-.048a4.108,4.108,0,0,1,.024-.557l.073.218c.024.1.073.194.1.291v.049a5.013,5.013,0,0,0,.485,1.018,4.691,4.691,0,0,0,.485.7c.024.024.048.048.048.073l.048.048a4.615,4.615,0,0,1-.121-.97v-.315a1.967,1.967,0,0,1,.024-.388,4.787,4.787,0,0,0,.194.63v.024a7.074,7.074,0,0,0,.8,1.527l.024.025a.5.5,0,0,1,.1.145c.024.024.048.049.048.073l.048.048.024.024v-.049c0-.048-.024-.1-.024-.146-.024-.17-.048-.339-.073-.485,0-.1-.024-.218-.024-.315v-.533c0-.121.024-.267.024-.388.024.073.048.17.073.243.024.048.048.121.073.17v.024l.024.024a1.646,1.646,0,0,0,.073.194,1.475,1.475,0,0,0,.17.339,2.464,2.464,0,0,0,.194.364,1.393,1.393,0,0,1,.1.17,2.232,2.232,0,0,1,.121.194.51.51,0,0,1,.1.146l.024.025c.024.048.073.073.1.121.024.024.049.048.049.073.048.049.073.1.1.1l.024.024v-.073c.024-.194.048-.412.073-.606v-.073a5.652,5.652,0,0,1,.121-.679.183.183,0,0,1,.024-.1v-.024a.089.089,0,0,1,.024-.073c0-.049.024-.073.024-.121.024-.17.073-.339.1-.509.024-.145.049-.291.073-.412v-.049c0-.024,0-.048.024-.048v-.049c0-.024.024-.073.024-.1a.088.088,0,0,1,.024-.073,1.027,1.027,0,0,1,.024-.121c0-.024.024-.073.024-.1a1.054,1.054,0,0,1,.024-.121.089.089,0,0,1,.024-.073c0-.025,0-.049.024-.049,0-.048.024-.073.024-.1v-.073l.121.073m29.378,10.132c.339-.121.63-.218.873-.315.461-.194.7-.34.7-.388-.024-.048-.291-.024-.776.1-.242.048-.533.1-.9.194a3.818,3.818,0,0,1-.557.1c-.194.024-.412.073-.63.1-.436.073-.921.121-1.454.17l-.8.073c-.267.024-.557.024-.848.048a18.526,18.526,0,0,1-3.757-.266,8.252,8.252,0,0,1-2.278-.8l-.024-.024a2.314,2.314,0,0,1,1.842-1.576l-.048-.024h-.073c-.218-.024-.388-.048-.557-.073-.121-.024-.218-.024-.291-.049a1.377,1.377,0,0,1-.17-.024,1.631,1.631,0,0,0-1.5.994l-.073.146a3,3,0,0,0-.242.969,2.7,2.7,0,0,0,.63,1.964,4.069,4.069,0,0,0,1.672,1.066,2.837,2.837,0,0,1-1.26-2.448,11.369,11.369,0,0,0,2.254.63,15.756,15.756,0,0,0,3.927.218c.291-.024.606-.049.873-.073.291-.048.557-.073.824-.1.533-.1.994-.17,1.454-.267a4.756,4.756,0,0,0,.63-.17,3.039,3.039,0,0,0,.558-.17" transform="translate(-335.148 -1230.569)" fill="#f2d2ac"/>
    </g>
    <g id="Group_83" data-name="Group 83" transform="translate(30.648 27.228)">
      <path id="Path_195" data-name="Path 195" d="M1258.934,1110.619a2.177,2.177,0,0,1,1.551.582,4.08,4.08,0,0,0,.1-1.139,3.3,3.3,0,0,0-.267-1.188c-.048-.194-.339-.7-.7-.679-.461.024-.8.921-.727,1.988a2.668,2.668,0,0,0,.048.436m1.212,2.739a.562.562,0,0,0,.17.436c.17.1.388-.1.485-.412,0-.024.024-.048.024-.073.073-.291,0-.582-.17-.655-.17-.1-.388.1-.485.412,0,.1-.024.194-.024.291m-3.3.533a1.137,1.137,0,0,0,.339.339.735.735,0,0,0,.849.049l.073-.073a.55.55,0,0,0-.073-.533.857.857,0,0,0-.339-.315.747.747,0,0,0-.824-.073.333.333,0,0,0-.073.1.56.56,0,0,0,.048.509m12.047,4.436h0m-.388,6.714a11.592,11.592,0,0,1-1.551,1.236,21.82,21.82,0,0,1-8.459,3.345,19.413,19.413,0,0,1-5.26.146,10.8,10.8,0,0,1-2.424-.582,4.069,4.069,0,0,1-1.672-1.067,2.843,2.843,0,0,1-.63-1.963,2.6,2.6,0,0,1,.243-.97l.073-.146a1.625,1.625,0,0,1,1.5-.994.542.542,0,0,1,.17.024,1.445,1.445,0,0,1,.291.048c.17.024.339.049.558.073h.073a25.087,25.087,0,0,0,6.884-.073,21.141,21.141,0,0,0,8.726-3.393c.146-.1.267-.194.412-.291l1.43-2.133a20.374,20.374,0,0,1-12.75,5.308,23.806,23.806,0,0,1-4.678-.17c-.048,0-.073,0-.1-.024-.315-.048-.557-.073-.752-.1-.1,0-.17-.024-.218-.024a2.071,2.071,0,0,0-.776.1,2.431,2.431,0,0,0-1.236.921,3.462,3.462,0,0,0-.63,1.988,3.821,3.821,0,0,0,.461,1.818c.024.024.024.048.049.073.048.073.073.121.121.194a1.718,1.718,0,0,0,.194.243c.752.945,2.4,1.624,4.581,1.915a18.92,18.92,0,0,0,5.066-.1c5.526-.994,8.144-2.788,9.356-4.024a2.391,2.391,0,0,0,.242-.266,4.9,4.9,0,0,0,.7-1.042v-.024a.188.188,0,0,0,.024-.073l-.025.024" transform="translate(-1247.736 -1108.194)" fill="#664f44"/>
    </g>
    <g id="Group_84" data-name="Group 84" transform="translate(28.345 23.035)">
      <path id="Path_196" data-name="Path 196" d="M1159.51,939.458a2.229,2.229,0,0,0-.557-.218c-.121-.024-.242-.049-.388-.073a.305.305,0,0,1-.145-.024,5.526,5.526,0,0,0-1.212.049,1.39,1.39,0,0,0-.339.1,3.786,3.786,0,0,0-2.618,2.618.219.219,0,0,0-.024.121c-.024.121-.073.242-.1.339a5.739,5.739,0,0,0-.121,1.018c0,.388.024.63.024.63a8.2,8.2,0,0,1,.485-.921,8.618,8.618,0,0,1,1.309-1.745,6.532,6.532,0,0,1,2.448-1.624,5.1,5.1,0,0,1,1.236-.266m10.5-1.236-.024-.049a1.639,1.639,0,0,0-.364-.339,1.885,1.885,0,0,0-1.43-.218,2.488,2.488,0,0,0-1.188.679,2.933,2.933,0,0,1,2.715.436,4.385,4.385,0,0,1,.388.315,3.209,3.209,0,0,1,.388.412,2.634,2.634,0,0,0-.412-1.139.328.328,0,0,0-.073-.1" transform="translate(-1154.008 -937.567)" fill="#e9b784"/>
    </g>
    <path id="Path_197" data-name="Path 197" d="M1361.082,1178.676c.509-.146,1.042-.291,1.648-.436a5.071,5.071,0,0,0,.049-1.624c-.17-1.406-.8-2.5-1.43-2.424s-.994,1.284-.824,2.69a4.745,4.745,0,0,0,.557,1.794" transform="translate(-1327.066 -1145.339)" fill="#664f44"/>
    <path id="Path_198" data-name="Path 198" d="M1031.691,67.383l-1.309.291.267,2.375-3.466-1.769-1.43.436.024.024,4.217,4.8.048-.024.048-.024c.121-.073.267-.17.388-.242a.509.509,0,0,0,.145-.1c.194-.121.388-.242.582-.339l-1.794-2.06,2.884,1.406c.1-.048.17-.1.267-.145l-.267-2.06,1.309,1.527h.024c.121-.048.218-.121.339-.17l.049-.024.048-.024a.085.085,0,0,0,.049-.024l.145-.073a.024.024,0,0,0,.024-.024c.146-.073.315-.145.461-.218l-3.054-3.539" transform="translate(-1000.559 -65.727)" fill="#ffd250"/>
    <g id="Group_85" data-name="Group 85" transform="translate(8.687 1.537)">
      <path id="Path_199" data-name="Path 199" d="M375.05,63.024v0m0-.073.194-.048a4.551,4.551,0,0,0-1.139-.315,8.934,8.934,0,0,0-3.248.315,21.084,21.084,0,0,0-4.193,1.624,43.338,43.338,0,0,0-9.623,6.763c-1.139,1.018-2.182,2.085-3.151,3.127l3.927,4.848c1.067-1.163,2.206-2.327,3.466-3.466a49.174,49.174,0,0,1,5.042-4.048,39.727,39.727,0,0,1,4.775-2.884l-.679-3.1.024-1.745-.024-.024,1.43-.436,2.787,1.43-.073-.97.485-1.067" transform="translate(-353.89 -62.541)" fill="#4d9ed7"/>
    </g>
    <g id="Group_86" data-name="Group 86" transform="translate(28.854 1.947)">
      <path id="Path_200" data-name="Path 200" d="M1175.719,79.222l-.485,1.067.073.994.679.339Zm-.994,3.078,2.909,1.43-1.115.63Zm2.909-.8.266,2.06,1.042-.533Z" transform="translate(-1174.726 -79.222)" fill="#132134"/>
    </g>
    <path id="Path_201" data-name="Path 201" d="M607.336,128.014h.533a6.339,6.339,0,0,1,1.382.17.089.089,0,0,1,.073.024h.024l.048.024h.049c-.049-.024-.1-.073-.145-.1a6.42,6.42,0,0,0-1.527-.388,15.968,15.968,0,0,0-7.32,1.309c-.1.048-.194.073-.291.121-.146.073-.291.121-.436.194-.242.1-.485.218-.751.339-.048.024-.073.024-.121.048-.146.073-.315.145-.461.218a.024.024,0,0,0-.024.024l-.145.073a.085.085,0,0,0-.049.024h-.1l-.024.024a2.21,2.21,0,0,0-.339.17h-.024c-.024.024-.049.024-.073.048h-.024a.084.084,0,0,0-.048.024c-.17.1-.339.17-.509.267-.121.073-.243.121-.364.194h-.024c-.1.049-.17.1-.267.145-.291.145-.557.315-.848.485-.024.024-.048.024-.1.048-.024.024-.049.024-.073.048s-.048.024-.073.048l-.024.024c-.194.121-.388.218-.582.339a.508.508,0,0,0-.146.1c-.121.073-.267.17-.388.242l-.048.024-.048.024-1.091.727c-.606.412-1.188.824-1.769,1.26-.073.048-.146.121-.218.17-1.527,1.139-2.982,2.375-4.387,3.636-1.479,1.357-2.909,2.739-4.242,4.145-.727.727-1.358,1.382-1.842,1.915A16.107,16.107,0,0,0,578.952,146a2.85,2.85,0,0,0,.267-.242c-.121.145-.267.315-.388.461a97.123,97.123,0,0,1,7.32-7.078c1.6-1.382,3.272-2.715,4.993-3.951.751-.533,1.527-1.067,2.3-1.576.242-.17.509-.315.751-.485.121-.073.242-.145.388-.218a.985.985,0,0,1,.218-.121c.146-.073.267-.17.412-.242a3.379,3.379,0,0,0,.388-.242c.073-.048.145-.073.218-.121l.509-.291c.1-.048.194-.121.291-.17.315-.17.63-.339.969-.509.024-.024.049-.024.073-.048l.145-.073c.073-.024.121-.073.194-.1.024-.024.048-.024.073-.048l.145-.073a.024.024,0,0,0,.024-.024h.024c.145-.073.291-.145.412-.194.024,0,.048-.024.073-.048l.146-.073c.17-.073.315-.145.485-.218a.531.531,0,0,0,.121-.073c.024,0,.048-.024.073-.024a.345.345,0,0,1,.146-.048c.194-.073.364-.17.557-.242.17-.073.315-.145.485-.218.921-.388,1.769-.7,2.569-.97a18.5,18.5,0,0,1,4-.727" transform="translate(-564.617 -124.54)" fill="#fff"/>
  </g>
</svg>
