<svg xmlns="http://www.w3.org/2000/svg" width="125.292" height="140.993" viewBox="0 0 125.292 140.993">
  <g id="Group_87" data-name="Group 87" transform="translate(0.008 -0.001)" opacity="0.242">
    <g id="Group_79" data-name="Group 79" transform="translate(-0.008 0.001)">
      <path id="Path_186" data-name="Path 186" d="M120.245,128.054a2.347,2.347,0,0,1-4.024-1.677,2.241,2.241,0,0,1,.726-1.732,2.187,2.187,0,0,1,1.621-.615,2.292,2.292,0,0,1,2.347,2.347,1.919,1.919,0,0,1-.671,1.677m-3.018-3.074a1.816,1.816,0,0,0-.559,1.341,1.956,1.956,0,1,0,3.912,0,1.733,1.733,0,0,0-.559-1.341,1.9,1.9,0,0,0-1.4-.615,2.144,2.144,0,0,0-1.4.615m2.124,2.571a1.074,1.074,0,0,1-.671.224,1.309,1.309,0,0,1-.95-.391,1.347,1.347,0,0,1-.391-1.006,1.56,1.56,0,0,1,.335-1.006,1.151,1.151,0,0,1,.95-.391,1.489,1.489,0,0,1,.671.168,1.154,1.154,0,0,1,.559.894h-.615c-.056-.168-.112-.335-.224-.391a.794.794,0,0,0-.335-.112.508.508,0,0,0-.447.224,1.192,1.192,0,0,0-.168.671.9.9,0,0,0,.168.615.69.69,0,0,0,.447.224.808.808,0,0,0,.391-.112l.168-.335h.559a1.093,1.093,0,0,1-.447.727m5.924-24.814c0-.224-.056-.447-.056-.671,0-.168-.056-.279-.056-.391a5.848,5.848,0,0,0-.224-.95,5.409,5.409,0,0,0-1.006-1.732,5.6,5.6,0,0,0-1.453-1.174,7.631,7.631,0,0,0-1.565-.559c-.168,0-.279-.056-.391-.056a8.273,8.273,0,0,0-.671-5.7l.112-.112a25.51,25.51,0,0,0,1.733-1.9l.112-.112a6.109,6.109,0,0,0,.782-1.621,5.216,5.216,0,0,0,.224-1.23V85.469a8.055,8.055,0,0,0-.727-3.074,7.907,7.907,0,0,0-1.174-1.732,6.852,6.852,0,0,0-1.844-1.453c-.056-.056-.112-.056-.168-.112a27.254,27.254,0,0,0-4.695-5.2c-.782-.671-1.509-1.23-2.124-1.677s-1.118-.782-1.4-1.006a9.65,9.65,0,0,0-1.4-.894,13.708,13.708,0,0,1-1.174-.782,4.117,4.117,0,0,0-.335-.279.432.432,0,0,0-.056-.168,2.749,2.749,0,0,1-.056-.782c0-.559,0-1.4.056-2.515.112-1.788.279-4.192.5-7.489.056-1.062.056-2.068.056-2.962a21.8,21.8,0,0,0-.559-4.08c-.056-.279-.168-.559-.224-.838a1.894,1.894,0,0,0-.168-.447,3.859,3.859,0,0,0-.224-.559c-.056-.112-.056-.224-.168-.335a5.64,5.64,0,0,0-.391-.838l-.056-.056-.056-.168-.056-.112a8.185,8.185,0,0,0-.95-1.341,20.428,20.428,0,0,0-.95-3.186,18.217,18.217,0,0,0-1.844-3.577,10.276,10.276,0,0,0-.95-1.23l.112-.112a57.356,57.356,0,0,0,7.209-9.668c5.756-10,3.856-16.1,1.23-19.449l-.056-.112-.056-.112A16.122,16.122,0,0,0,99.958,4.1C91.183,2.979,81.235,7.339,78.609,8.568L73.8,3.315a9.576,9.576,0,0,0-1.4-1.23,15.4,15.4,0,0,0-1.621-.95A12.808,12.808,0,0,0,67.1.129,24.03,24.03,0,0,0,58.21.968a61.725,61.725,0,0,0-15.984,7.1A109.61,109.61,0,0,0,24.845,21.143a103.715,103.715,0,0,0-17.1,19.616A57.968,57.968,0,0,0,2.6,50.092,31.8,31.8,0,0,0,.143,58.475a15.188,15.188,0,0,0,.168,5.309,10.12,10.12,0,0,0,2.236,4.359l4.974,5.2.559.559-.056.056-.168.335a3.118,3.118,0,0,1-.279.447l-.168.335c-.056.168-.168.335-.224.5l-.168.335c-.056.168-.168.335-.224.5a.794.794,0,0,0-.112.335l-.168.5c-.056.112-.056.224-.112.335-.056.168-.112.335-.168.559,0,.056-.056.112-.056.168s-.056.112-.056.168c-.056.168-.112.391-.168.559,0,.112-.056.224-.056.335,0,.056-.056.168-.056.224,0,.112-.056.224-.056.335s-.056.224-.056.335c-.056.224-.056.447-.112.727a.422.422,0,0,1-.056.224v.056c0,.168-.056.335-.056.447,0,.224-.056.5-.056.727v2.794a.709.709,0,0,0,.056.335,1.388,1.388,0,0,0,.056.447V86.2c0,.112.056.279.056.391s.056.224.056.391a.205.205,0,0,0,.056.168c0,.056.056.168.056.224v.112a2.518,2.518,0,0,0,.112.447c0,.056,0,.056.056.112a.607.607,0,0,1,.056.279l.056.112c0,.056,0,.056.056.112l.056.112v.168c0,.056,0,.056.056.112l.056.112c0,.112.056.168.056.279a2.529,2.529,0,0,1,.112.447v0c0,.056,0,.056.056.112a2.194,2.194,0,0,1,.112.335,1.891,1.891,0,0,1,.168.447l.056.056c.056.112.056.224.112.279l.056.112c0,.056.056.112.056.168a.424.424,0,0,0,.112.224l.056.112c.056.056.056.168.112.224a.205.205,0,0,1,.056.168,2.724,2.724,0,0,1,.168.391l.056.056c.056.056.056.112.112.168s.056.168.112.224a.91.91,0,0,1,.168.335l.056.056c.056.056.056.112.112.168.056.112.112.168.112.224a1.222,1.222,0,0,1,.168.279v.056c.056.056.056.112.112.168a.771.771,0,0,0,.168.224,3.309,3.309,0,0,1,.224.335c.056.056.112.112.112.168a.771.771,0,0,0,.168.224,1.222,1.222,0,0,1,.168.279c.056.056.112.168.168.224a.436.436,0,0,0,.224.224l.168.168.056.056c.112.112.168.224.279.335l.112.112.168.168.335.335.112.112.168.168.056.056a2.58,2.58,0,0,1,.391.391l.056.056c.056.056.112.056.168.168.168.168.335.279.5.447l.112.056.056.056.112.056c.168.112.279.224.447.335l.056.056a.173.173,0,0,0,.112.056l.112.112c.112.112.224.168.335.279l.112.056.112.112.056.056c.112.056.279.168.391.224a.29.29,0,0,0,.224.112l.112.056.056.056h.056a4.908,4.908,0,0,1,.559.335l.112.056.671.335h.056l.112.056.335.168c.056,0,.112.056.168.056.056.056.112.056.224.112h.056a.794.794,0,0,0,.335.112h.056a2.722,2.722,0,0,0,.391.168h.056l.112.056c.056,0,.112.056.168.056h.056c.168.056.335.112.559.168h.056a4.655,4.655,0,0,0,.838.224h.056c.224.056.5.112.727.168h.224a2.8,2.8,0,0,0,.671.112h.224c.168,0,.279.056.447.056,0,.056.056.112.056.168.391,1.062.782,2.124,1.23,3.13,6.595,18.275,24.87,32.47,45.715,35.1,20.846,2.571,43.145-11.289,52.2-30.011.391-.727.727-1.4,1.062-2.124a10.742,10.742,0,0,0,2.068-2.906,3.638,3.638,0,0,0,.838-2.906M9.533,95.472h0" transform="translate(0.008 -0.001)" fill="#664f44"/>
    </g>
    <path id="Path_187" data-name="Path 187" d="M167.236,72.166a10.984,10.984,0,0,0-3.465-2.571,2.766,2.766,0,0,0-.727-.224c-.112-.056-.224-.168-.335-.224a14.8,14.8,0,0,0-3.521-.894c-6.036-.782-12.966,1.453-16.878,3.018-.224.112-.447.168-.671.279-.335.168-.671.279-1.006.447-.559.224-1.118.5-1.732.782-.112.056-.168.056-.279.112l-1.062-1.23-.5-.559-.447-.5-.168-.223-4.08-4.695-.335-.391-.447-.5h-.056l-1.174.279-1.341.279a10.492,10.492,0,0,0-2.627-.727,20.6,20.6,0,0,0-7.489.727,48.608,48.608,0,0,0-9.668,3.744A99.923,99.923,0,0,0,87.038,84.685c-2.627,2.347-5.03,4.806-7.265,7.209-2.18,2.347-4.136,4.75-5.924,7.042a65.574,65.574,0,0,0-8.16,13.469,28.507,28.507,0,0,0-2.18,7.433,10.811,10.811,0,0,0,.112,4.08c.112.391.224.671.335,1.006a6.01,6.01,0,0,0,1.062,1.732l4.527,4.75.5.5.056-.056a1.7,1.7,0,0,1,.447-.447l.056-.056.168-.168c.112-.168.279-.279.391-.447a.98.98,0,0,1,.279-.224c.112-.056.168-.168.279-.224l.112-.112c.112-.056.168-.168.279-.224.112-.112.279-.224.391-.335.056-.056.168-.112.224-.168h.056c.168-.112.279-.224.447-.335a.981.981,0,0,0,.279-.224c.168-.112.279-.224.447-.335.112-.056.168-.112.279-.168a2.267,2.267,0,0,1,.5-.279c.112-.056.168-.112.279-.168.168-.112.335-.168.5-.279.112-.056.168-.112.279-.168l.112-.056c.168-.056.279-.168.447-.224.056-.056.168-.056.224-.112a2.72,2.72,0,0,1,.391-.168l.335-.168.112-.056.838-.335c.112-.056.168-.056.279-.112s.168-.056.279-.112l.112-.056c.056,0,.112-.056.168-.056a3.537,3.537,0,0,1,.391-.112h.112c.168-.056.279-.056.447-.112.112-.056.279-.056.391-.112.168-.056.335-.056.5-.112.056,0,.112-.056.224-.056a.336.336,0,0,0,.224-.056,1.546,1.546,0,0,1,.5-.056c.168,0,.279-.056.447-.056.112,0,.224-.056.335-.056h.447c.559,0,1.23,0,1.9.056h.112a18.126,18.126,0,0,1,2.235.335c.168.056.391.056.559.112.056-.056.056-.168.112-.224.447-.727.838-1.509,1.285-2.235a84.816,84.816,0,0,1,7.936-11.122c.95-1.118,1.9-2.124,2.85-3.13a74.09,74.09,0,0,1,11.513-9.78c.782-.559,1.621-1.062,2.347-1.565,1.062-.671,2.068-1.23,3.018-1.788.782-.447,1.509-.838,2.235-1.174q1.76-.922,3.186-1.509l.838-.335c.391-.168.782-.335,1.118-.447a4.805,4.805,0,0,0-.894-.056h-1.118a4.805,4.805,0,0,0-.894.056c-.559.056-1.174.112-1.788.168-.224.056-.391.056-.615.112A28.153,28.153,0,0,1,123.477,91c.95-.279,1.9-.5,2.794-.671a28.078,28.078,0,0,1,3.465-.447c.727-.056,1.4-.056,2.012-.056s1.23.056,1.732.056a17.932,17.932,0,0,1,2.962.391,5.1,5.1,0,0,0-.95-.95,9.4,9.4,0,0,0-2.068-1.118c-.279-.112-.5-.168-.727-.279a1.728,1.728,0,0,0-.447-.112,5.573,5.573,0,0,1,.894-.112c.335-.056.615-.056.95-.112a27.663,27.663,0,0,1,6.706.279,20.64,20.64,0,0,1,3.353.894,5.221,5.221,0,0,0-1.229-1.509,12.893,12.893,0,0,0-1.062-.782c.727.168,1.341.335,2.012.559a33.188,33.188,0,0,1,4.192,1.621l1.006.5c.112.056.168.112.224.112,1.006.559,1.565.95,1.565.95a4.206,4.206,0,0,0-.95-1.677c-.112-.112-.224-.279-.335-.391h.056c.056,0,.112.056.224.056a.945.945,0,0,1,.279.112,20.374,20.374,0,0,1,1.9.838c.056,0,.056.056.112.056l.335.168a6.66,6.66,0,0,1,.838.5l.838.5c.168.112.279.168.447.279a10.2,10.2,0,0,1,.894.727c.335.279.615.559.894.838l.168.168a6.691,6.691,0,0,1,.615.671,13.835,13.835,0,0,1,1.062,1.453,11.668,11.668,0,0,1,.95,2.068c0,.056,0,.112.056.112.168-.168.5-.5.894-.95,3.242-3.8,12.966-16.1,7.1-23.584" transform="translate(-59.789 -60.86)" fill="#132134"/>
    <g id="Group_80" data-name="Group 80" transform="translate(8.751 35.338)">
      <path id="Path_188" data-name="Path 188" d="M267.779,691.6a2.847,2.847,0,0,0-.335-1.621.2.2,0,0,0-.056-.112l-.056-.056-.168-.168a2.431,2.431,0,0,0-.391-.335,1.23,1.23,0,0,0-.279-.168,3.846,3.846,0,0,0-.95-.279,4.506,4.506,0,0,0-.894-.056H264.2v.112c0,.056.056.112.056.224,0,.056,0,.112.056.112.056.167.112.447.168.671a.433.433,0,0,1-.056.168v.056a9.023,9.023,0,0,1-1.621,2.4,5.562,5.562,0,0,1-.559.615c-2.794,2.906-8.83,6.986-21.572,9.277a43.619,43.619,0,0,1-11.68.224c-5.03-.615-8.774-2.235-10.563-4.415-.168-.168-.279-.391-.447-.559-.112-.168-.168-.279-.279-.447-.056-.056-.056-.112-.112-.168a8.809,8.809,0,0,1-1.062-4.192,7.852,7.852,0,0,1,1.453-4.583,5.383,5.383,0,0,1,2.85-2.124,4.771,4.771,0,0,1,1.788-.224,1.929,1.929,0,0,1,.5.056c.391.056,1.006.112,1.732.224a.336.336,0,0,1,.224.056,59.648,59.648,0,0,0,10.786.391,47.184,47.184,0,0,0,29.4-12.183v-.056a4.35,4.35,0,0,0-1.006-3.186,5.012,5.012,0,0,0-.559-.5c-.112-.112-.279-.168-.391-.28a2.422,2.422,0,0,1-.391-.224l-.5-.335v-.056a1.168,1.168,0,0,0-.224-.335,27.748,27.748,0,0,0-7.6-7.265,8.221,8.221,0,0,0-1.118-.726c-3.074-1.9-3.521-2.515-3.241-7.6.112-1.844.279-4.247.5-7.545,0-.447.056-.838.056-1.23v-1.62c0-.28-.056-.559-.056-.783a.708.708,0,0,0-.056-.335c-.056-.28-.056-.559-.112-.838,0-.112-.056-.279-.056-.391a1.317,1.317,0,0,0-.112-.447c-.056-.112-.056-.279-.112-.391a1.628,1.628,0,0,1-.112-.5c0-.056-.056-.112-.056-.167s-.056-.112-.056-.168v-.056l-.056-.168a.793.793,0,0,1-.112-.335V638.9l-.056-.112-.056-.112a6.521,6.521,0,0,0-.279-.615l-.056-.168c-.112-.168-.224-.391-.335-.559l-.056-.056-.056-.056c-.112-.112-.168-.224-.279-.335l-.112-.168a2.422,2.422,0,0,0-.335-.391v-.447c-.056-.224-.112-.5-.168-.782,0-.056-.056-.168-.056-.224v-.056c0-.112-.056-.168-.056-.28a3.155,3.155,0,0,0-.224-.671c0-.056-.056-.167-.056-.224l-.168-.5c-.056-.112-.056-.224-.112-.279a1.986,1.986,0,0,0-.224-.5l-.168-.335c-.056-.168-.168-.335-.224-.5l-.168-.335c-.112-.168-.168-.335-.279-.5l-.168-.335a4.934,4.934,0,0,1-.335-.559c-.056-.112-.112-.168-.168-.28-.056-.056-.112-.168-.168-.224-.168-.168-.279-.335-.447-.5l-.112-.056a6.383,6.383,0,0,0-.615-.615l-.056-.056a1.228,1.228,0,0,1-.279-.224h-.056c-.112-.056-.168-.112-.279-.168l-.056-.056c-.112-.056-.279-.167-.5-.279-.056-.056-.168-.056-.279-.112-.5-.168-1.118-.391-1.9-.615a.2.2,0,0,1-.168-.056,17.613,17.613,0,0,0-2.124-.447c-.279-.056-.5-.056-.782-.112a1.091,1.091,0,0,1-.391-.056h-.168c-.615-.056-1.174-.112-1.788-.112h-.056a10.3,10.3,0,0,0-2.291.224,3.9,3.9,0,0,1,1.118-.894,12.318,12.318,0,0,1,1.174-.559,6.156,6.156,0,0,0-1.006.112c-.112,0-.224.056-.335.056a.335.335,0,0,0-.224.056h-.056a.206.206,0,0,0-.168.056,28.873,28.873,0,0,0-4.359,1.4l-.335.168h-.056a.5.5,0,0,0-.279.056,4.954,4.954,0,0,1,2.459-2.292c.112-.056.279-.112.391-.167.056,0,.056,0,.112-.056.112-.056.224-.056.279-.112a.976.976,0,0,1,.279-.056h-.894a13.328,13.328,0,0,0-5.086,1.677,20.311,20.311,0,0,0-2.683,1.788,2.376,2.376,0,0,1-.615.112c-2.124.447-4.527,1.006-7.042,1.788-.95.28-1.9.615-2.85.95-.727.279-1.509.559-2.235.838-.559.224-1.062.447-1.621.671a38.112,38.112,0,0,0-10.9,7.1l-.335.335-.838.838-.335.335a3.2,3.2,0,0,1-.391.447,22.854,22.854,0,0,0-1.733,2.18,19.287,19.287,0,0,0-1.118,1.788l-.056.056a23.334,23.334,0,0,0-1.9,4.136c-.279.727-.5,1.509-.727,2.291-.056.224-.112.391-.168.615l-.056.112a19.847,19.847,0,0,0-.5,2.626c0,.168-.056.335-.056.559a10.879,10.879,0,0,0-.112,1.4,9.885,9.885,0,0,0-.056,1.286v1.732a13.608,13.608,0,0,0,.056,1.509v.056c0,.5.056,1.006.112,1.565,0,.224.056.447.056.671v.167a1.091,1.091,0,0,0,.056.391c.056.559.168,1.174.224,1.788,0,.168.056.335.056.5.112.5.168,1.062.279,1.565a8.413,8.413,0,0,1-.056-1.677c0-.223.056-.5.056-.726a7.8,7.8,0,0,1,.391-1.844l.168-.5c0-.056.056-.112.112-.223a6.646,6.646,0,0,1,.447-.894c.056.223.056.447.112.615v2.962a38.841,38.841,0,0,0,.615,6.148s.056-3.521.671-3.968a69.615,69.615,0,0,0,2.012,9.053,2.816,2.816,0,0,0,.391.727v-.671l-.112-3.633v-.391c.727,1.509,1.565,3.018,2.515,4.639.28.447.5.894.782,1.341a19.683,19.683,0,0,0-4.694,6.538c-.168.448-.391.894-.559,1.342-.112.279-.168.5-.279.782,0,.056-.056.168-.056.224-.056.168-.112.391-.168.559,0,.112-.056.168-.056.279-.056.168-.112.391-.168.559,0,.112-.056.168-.056.28l-.168.838a4.314,4.314,0,0,0-.112.839.5.5,0,0,1-.056.279c0,.224-.056.391-.056.615a.71.71,0,0,1-.056.335c0,.224-.056.391-.056.615v1.956a3.437,3.437,0,0,0,.056.726v.168a5.574,5.574,0,0,0,.112.894.5.5,0,0,0,.056.279,2.381,2.381,0,0,0,.112.615c0,.112.056.224.056.336.056.167.056.391.112.559,0,.112.056.224.056.336a1.653,1.653,0,0,1,.112.559,3.537,3.537,0,0,1,.112.391c.056.168.112.391.168.559.056.112.056.224.112.335.056.168.112.391.168.559.056.112.056.224.112.335.056.224.168.447.223.615.056.112.056.167.112.279l.838,1.844c.056.112.112.168.168.28l.335.671a1.169,1.169,0,0,0,.224.335c.112.168.223.391.335.559.056.112.168.224.224.335a3.392,3.392,0,0,0,.391.559,2.364,2.364,0,0,1,.279.391c.112.168.279.391.391.559a2.362,2.362,0,0,1,.279.391c.168.168.279.391.447.559.112.112.168.224.279.335a5.559,5.559,0,0,0,.559.615l.279.28c.279.28.559.615.838.894a4.794,4.794,0,0,1-.391-.671.426.426,0,0,1-.112-.279l-.168-.335a2.735,2.735,0,0,1-.168-.391,9.379,9.379,0,0,1-.782-4.024l.5.671c.168.391.447.894.727,1.453a2.614,2.614,0,0,1,.279.559c.447.782.894,1.677,1.453,2.515.671,1.062,1.341,2.068,2.068,3.018a20.122,20.122,0,0,1-1.118-2.962,2.023,2.023,0,0,1-.056-.782c.056.056.112.168.224.224.056.056.112.168.224.223q.168.252.5.671l.112.112c.112.112.168.279.279.391a3.06,3.06,0,0,0,.391.5A48.761,48.761,0,0,0,207.7,716.3a6.13,6.13,0,0,0,.95.727l-1.621-2.906c3.688,3.018,19,6.874,34.035,2.571a39.323,39.323,0,0,0,5.421-1.956c1.062-.447,2.124-1.006,3.186-1.565l.168-.112c.727-.391,1.453-.838,2.18-1.285.559-.335,1.118-.727,1.621-1.062q1.341-.922,2.683-2.012c.056-.056.112-.112.168-.112a31.263,31.263,0,0,0,2.4-2.291,33.861,33.861,0,0,0,2.683-3.185l.056-.056a6.76,6.76,0,0,0,.559-.782l.056-.056c.056-.112.112-.167.168-.279.279-.391.5-.727.782-1.118.056-.112.112-.168.168-.28a3.752,3.752,0,0,1,.391-.615c.112-.168.168-.28.279-.447a2.264,2.264,0,0,0,.279-.5c.168-.279.335-.615.5-.894l.168-.335.335-.671.168-.335.056-.112c.112-.28.279-.559.391-.838v-.056a11.685,11.685,0,0,0,1.174-1.285c.056-.056.112-.112.112-.168a9.2,9.2,0,0,0,.559-2.683m-89.921-10.842a.422.422,0,0,0-.056-.224,25.206,25.206,0,0,1-.391-2.962v-.224c-.168.056-.335.279-.559.559a2.42,2.42,0,0,0-.224.391,18.263,18.263,0,0,0-.95,2.291,10.839,10.839,0,0,0,.112-1.341v-.168c.056-.447.112-.95.168-1.4v-.168a13.021,13.021,0,0,1,.279-1.565.422.422,0,0,1,.056-.224v-.056a.2.2,0,0,1,.056-.167c0-.112.056-.168.056-.28.056-.391.168-.782.224-1.174.056-.335.112-.671.168-.95v-.112c0-.056,0-.112.056-.112v-.112c0-.056.056-.167.056-.224a.2.2,0,0,1,.056-.167,2.428,2.428,0,0,1,.056-.28c0-.056.056-.168.056-.224a2.422,2.422,0,0,1,.056-.279.205.205,0,0,1,.056-.168c0-.056,0-.112.056-.112,0-.112.056-.168.056-.224v-.168l-.112.112c-.112.056-.168.167-.279.224l-.112.112a1.484,1.484,0,0,0-.279.335l-.056.056-.335.5-.056.056c0,.056-.056.056-.056.112l-.168.335v.112c-.056.168-.168.336-.224.5-.168.447-.335.894-.447,1.285-.056.112-.056.279-.112.335a4.538,4.538,0,0,0-.112.5v0a1.232,1.232,0,0,1,.056-.447c0-.279.056-.615.056-.894a3.277,3.277,0,0,1,.112-.727.336.336,0,0,1,.056-.224c0-.112.056-.224.056-.335s.056-.224.056-.335v-.167c0-.112.056-.28.056-.391V671.6a.205.205,0,0,1,.056-.168,1.987,1.987,0,0,0,.112-.559v-.056c.056-.112.056-.28.112-.391v-.056c.056-.279.168-.559.224-.839v-.112a.205.205,0,0,1,.056-.168c.112-.447.279-.894.391-1.285v-.056c.112-.335.279-.727.391-1.062v-.056c.056-.167.112-.279.168-.447.112-.224.168-.447.279-.671a1.453,1.453,0,0,1,.168-.391c.056-.056.056-.168.112-.224a2.727,2.727,0,0,0,.168-.391l.056-.112.95-1.733c.056-.056.056-.167.112-.224v-.056l.056-.112c.112-.168.224-.391.335-.559.168-.279.279-.559.447-.782.279-.5.5-.95.671-1.174a.6.6,0,0,1,.168-.28c-.056,0-.335-.224-.782-.5a25.819,25.819,0,0,0-2.291-1.229c-.335-.167-.615-.279-.95-.447-.391-.168-.838-.335-1.285-.5-.112-.056-.224-.056-.335-.112-.391-.112-.727-.224-1.118-.335-.279-.056-.559-.112-.782-.168s-.447-.056-.671-.112a469.987,469.987,0,0,1-.671-.112c-.279,0-.615-.056-.894-.056H170.2a10.448,10.448,0,0,0-1.9.168h-.112a16.245,16.245,0,0,0-3.241.838c-.335.112-.671.279-1.062.447-.112.056-.168.112-.279.112l-.335.168a15.814,15.814,0,0,0-2.85,1.9h-.056a14.464,14.464,0,0,0-2.068,2.068l-.5.671a7.285,7.285,0,0,0-.559.838,15.371,15.371,0,0,0-.95,1.621,2.992,2.992,0,0,0-.279.615c0,.056-.056.056-.056.112a15.423,15.423,0,0,0-1.174,4.247c-.056.28-.056.559-.112.894v.112c0,.224-.056.447-.056.727V672.6a2.718,2.718,0,0,0,.056.671v.28c0,.167.056.335.056.5v.056a.5.5,0,0,0,.056.28c0,.167.056.335.056.447s.056.224.056.335c.056.168.056.279.112.447a.794.794,0,0,0,.112.335v.056l.056.112v.112l.056.112c.056.112.056.224.112.335s.056.279.112.391a.807.807,0,0,1,.112.391l.056.112c.056.112.056.168.112.279a2.724,2.724,0,0,1,.168.391l.168.336c.056.056.056.112.112.167s.056.112.112.168l.168.335a1.4,1.4,0,0,0,.224.391,1.223,1.223,0,0,0,.168.279c.056.112.168.28.224.391s.112.168.168.279a1.7,1.7,0,0,0,.279.391.77.77,0,0,0,.168.224c.112.112.168.279.279.391.056.056.112.168.168.224.112.112.224.28.335.391a.772.772,0,0,1,.168.224c.112.112.224.28.335.391l.168.168a2.585,2.585,0,0,0,.391.391l.168.168.391.391c.056.056.112.112.168.112.112.112.279.224.447.391.056.056.112.056.168.112.168.112.279.224.447.335.056.056.112.056.112.112l.5.336.112.056.5.335.112.056c.168.112.391.224.559.335l.112.056a2.609,2.609,0,0,0,.559.279l.112.056c.224.112.391.168.615.28l.056.056a6.486,6.486,0,0,1,.615.28h.056c.224.056.447.168.671.224h.056c.112.056.224.056.335.112a3.506,3.506,0,0,0,.391.112h.056c.224.056.5.112.727.168a3.276,3.276,0,0,0,.727.112c.782.112,1.565.168,2.347.224h.559a3.688,3.688,0,0,0,.782-.056c.335-.056.727-.056,1.118-.112.335-.056.671-.112.95-.167a11.029,11.029,0,0,0,1.453-.391,10.032,10.032,0,0,0,3.465-1.565s-.5-2.235-.894-4.471a1.292,1.292,0,0,1-.224-.559" transform="translate(-154.608 -623.812)" fill="#90694c"/>
    </g>
    <path id="Path_189" data-name="Path 189" d="M128.6,69.167l-.168-2.235,1.118-2.459L130,64.36a10.5,10.5,0,0,0-2.627-.727,20.6,20.6,0,0,0-7.489.727,48.615,48.615,0,0,0-9.668,3.744A99.927,99.927,0,0,0,88.024,83.7c-2.627,2.347-5.03,4.806-7.265,7.209-2.18,2.347-4.136,4.75-5.924,7.042a65.575,65.575,0,0,0-8.159,13.469,28.506,28.506,0,0,0-2.18,7.433,10.81,10.81,0,0,0,.112,4.08c.112.391.224.671.335,1.006A6.01,6.01,0,0,0,66,125.668l4.527,4.75.5.5.056-.056a1.7,1.7,0,0,1,.447-.447l.056-.056.168-.168c.112-.168.279-.279.391-.447a.98.98,0,0,1,.279-.224c.112-.056.168-.168.279-.224l.112-.112c.112-.056.168-.168.279-.224.112-.112.279-.224.391-.335.056-.056.168-.112.224-.168h.056c.168-.112.279-.224.447-.335a.982.982,0,0,0,.279-.224c.168-.112.279-.224.447-.335.112-.056.168-.112.279-.168a2.265,2.265,0,0,1,.5-.279c.112-.056.168-.112.279-.168.168-.112.335-.168.5-.279.112-.056.168-.112.279-.168l.112-.056a49.673,49.673,0,0,1,4.806-9.613,93.273,93.273,0,0,1,9.78-12.854,109.833,109.833,0,0,1,8.048-8.1,118.691,118.691,0,0,1,11.4-9.165c2.571-1.788,5.086-3.409,7.545-4.806.224-.112.447-.279.727-.391.671-.391,1.285-.727,1.956-1.062,1.4-.727,2.794-1.4,4.136-1.956l-.671-.782-.112-.112-.838-.95-4.639-5.589.056-4.024-.056-.056,3.3-1.006,6.259,3.186" transform="translate(-60.719 -59.928)" fill="#2f83c1"/>
    <g id="Group_81" data-name="Group 81" transform="translate(18.45 46.627)">
      <path id="Path_190" data-name="Path 190" d="M429.306,879.6a2.848,2.848,0,0,0-.335-1.621.2.2,0,0,0-.056-.112l-.056-.055-.168-.168a2.418,2.418,0,0,0-.391-.335,1.218,1.218,0,0,0-.279-.168,3.828,3.828,0,0,0-.95-.279,4.5,4.5,0,0,0-.894-.056h-.447v.112c0,.056.056.112.056.224,0,.056,0,.112.056.112.056.168.112.447.168.671a.432.432,0,0,1-.056.167v.056a9.008,9.008,0,0,1-1.621,2.4,5.529,5.529,0,0,1-.559.615c-2.794,2.906-8.83,6.986-21.572,9.277a43.629,43.629,0,0,1-11.68.224c-5.03-.615-8.774-2.236-10.563-4.415-.168-.168-.28-.391-.447-.559-.112-.167-.168-.279-.279-.447-.056-.056-.056-.112-.112-.168a8.809,8.809,0,0,1-1.062-4.191,7.852,7.852,0,0,1,1.453-4.583,5.383,5.383,0,0,1,2.85-2.124,4.773,4.773,0,0,1,1.788-.223,1.925,1.925,0,0,1,.5.056c.391.056,1.006.112,1.732.223a.336.336,0,0,1,.224.056,59.692,59.692,0,0,0,10.786.391,47.185,47.185,0,0,0,29.4-12.184v-.056a4.35,4.35,0,0,0-1.006-3.186,5.061,5.061,0,0,0-.559-.5c-.112-.112-.28-.167-.391-.279a2.427,2.427,0,0,1-.391-.224l-.5-.335v-.056a1.167,1.167,0,0,0-.224-.335,27.745,27.745,0,0,0-7.6-7.266,8.236,8.236,0,0,0-1.118-.727c-3.074-1.9-3.521-2.515-3.241-7.6.112-1.844.279-4.247.5-7.545,0-.447.056-.838.056-1.229v-1.621c0-.279-.056-.559-.056-.782a.708.708,0,0,0-.056-.335c-.056-.28-.056-.559-.112-.838,0-.112-.056-.28-.056-.391a1.32,1.32,0,0,0-.112-.447c-.056-.112-.056-.279-.112-.391a1.626,1.626,0,0,1-.112-.5c0-.056-.056-.112-.056-.168s-.056-.112-.056-.168v-.056l-.056-.168a.793.793,0,0,1-.112-.335V826.9l-.056-.112-.056-.112a6.609,6.609,0,0,0-.28-.615l-.056-.168c-.112-.168-.224-.391-.335-.559l-.056-.056-.056-.056c-.112-.112-.168-.223-.279-.335l-.112-.167a2.425,2.425,0,0,0-.335-.391l-.447-.447a2.265,2.265,0,0,0-.5-.28.205.205,0,0,0-.168-.056l-.335-.167c-.056,0-.112-.056-.168-.056-.112-.056-.224-.056-.279-.112-.056,0-.112-.056-.224-.056s-.168-.056-.279-.056h-1.229a80.973,80.973,0,0,1-.335.112,1.43,1.43,0,0,0-.391.112h-.112c-.335.112-.615.224-.95.335l-.112.056a2.719,2.719,0,0,1-.391.168l-.168.056-.335.168-.167.112-.335.168-.168.112c-.112.056-.224.168-.335.224l-.112.056c-.112.112-.279.168-.391.28l-.056.056a1.961,1.961,0,0,1-.447.279c-.28.168-.559.391-.838.559a8.155,8.155,0,0,1-.727.5l-.112.056a5.115,5.115,0,0,1-.727.447l-.112.056c-.224.167-.5.28-.726.447l-.112.056a3.415,3.415,0,0,1-.782.391l-.112.056c-.279.112-.5.224-.782.335l-.112.056c-.279.112-.559.168-.838.28h-.056c-.279.056-.615.112-.894.168a14.717,14.717,0,0,1-1.565.112,20.556,20.556,0,0,1-2.571-.168l-.838-.168a2.415,2.415,0,0,1-.279-.056c-.727-.168-1.509-.335-2.235-.5-.335-.056-.615-.168-.95-.224-.5-.112-1.006-.223-1.565-.335a2.412,2.412,0,0,1-.28-.056c-.056,0-.168-.056-.224-.056-.112,0-.224-.056-.335-.056s-.224-.056-.335-.056h-.112a2.418,2.418,0,0,1-.28-.056,2.842,2.842,0,0,0-.727-.112.336.336,0,0,1-.224-.056c-.168,0-.335-.056-.5-.056a.5.5,0,0,1-.279-.056c-.168,0-.28-.056-.447-.056h-2.571c-.279,0-.5.056-.782.056h-.224c-.168,0-.335.056-.5.056h-.056c-.112,0-.168.056-.28.056-.168.056-.335.056-.5.112a2.433,2.433,0,0,0-.279.056,1.625,1.625,0,0,1-.5.112c-.112,0-.168.056-.28.112-.168.056-.391.112-.559.168-.112.056-.168.056-.224.112-.279.112-.559.223-.782.335a17.755,17.755,0,0,0-5.365,4.806,20.961,20.961,0,0,0-1.341,2.012,17.346,17.346,0,0,0-1.118,2.291c-.112.223-.168.447-.28.671-.112.391-.279.782-.391,1.174,0,.056,0,.112-.056.112-.112.448-.224.894-.335,1.4a13.041,13.041,0,0,0-.224,1.453,3.69,3.69,0,0,0-.056.782,13.467,13.467,0,0,0,0,2.124V845a2.1,2.1,0,0,0,.056.559,14.037,14.037,0,0,0,.224,1.509,1.653,1.653,0,0,1,.112.559c.056.168.056.335.112.5a12.919,12.919,0,0,0,1.453,3.465,19.728,19.728,0,0,0,8.886,7.657c1.062.447,2.179.894,3.353,1.285l-.112.112c-.224.056-.447.112-.727.168-.391.112-.894.28-1.4.447-.559.168-1.23.447-1.9.727a22.215,22.215,0,0,0-5.589,3.241c-.224.167-.447.391-.671.559a9.511,9.511,0,0,0-1.062,1.062l-.112.112-.168.168c-.112.167-.279.279-.391.447l-.168.168a4.673,4.673,0,0,0-.447.671c-.168.223-.279.447-.447.671a11.794,11.794,0,0,0-1.509,6.762v-.112a.205.205,0,0,1,.056-.167v-.056c0-.056.056-.112.056-.223v-.056a2.407,2.407,0,0,0,.056-.279c0-.112.056-.168.112-.28v-.056c.056-.112.056-.224.112-.335v-.056c.056-.112.056-.223.112-.335v-.056a2.726,2.726,0,0,0,.168-.391l.056-.056a1.4,1.4,0,0,1,.224-.391c.112-.223.223-.391.335-.615.056-.056.112-.168.168-.224l.056-.056.335-.5c.112-.112.224-.28.335-.391l.112-.112c.112-.112.168-.223.279-.28l.112-.112a2.582,2.582,0,0,0,.391-.391s-2.4,5.477-1.341,9.78v-.838a1918.211,1918.211,0,0,1,.112-.67v-.056c0-.112.056-.279.056-.391v-.112c.056-.167.056-.279.112-.447v-.056a1.724,1.724,0,0,0,.112-.448c0-.056.056-.112.056-.167l.056-.112c.056-.112.112-.28.168-.391a2.264,2.264,0,0,1,.28-.5.2.2,0,0,1,.056-.112l.335-.5s-.112,1.342-.112,2.962a3.69,3.69,0,0,0,.056.782,1.545,1.545,0,0,0,.056.5,22.063,22.063,0,0,1,.894-4.862,22.063,22.063,0,0,0-.894,4.862,22.421,22.421,0,0,0,1.565,9.668,7.853,7.853,0,0,1,.335-5.03l.336.671c.112.727.223,1.788.447,2.962.224,1.956,1.118,7.824,5.142,11.9a7.014,7.014,0,0,1-1.285-4.471c.168.335.335.615.447.894a27.9,27.9,0,0,0,3.521,5.309s-1.174-2.291-.894-2.794c0,0,3.912,4.862,5.141,5.309l-1.621-2.683-.056-.056c5.645,4.136,13.469,5.645,23.081,2.962a43.478,43.478,0,0,0,5.142-1.788c1.062-.447,2.124-1.006,3.186-1.565l.168-.112c.727-.391,1.453-.838,2.18-1.285.559-.335,1.118-.727,1.621-1.062q1.341-.922,2.683-2.012c.056-.056.112-.112.168-.112a31.309,31.309,0,0,0,2.4-2.291,33.809,33.809,0,0,0,2.683-3.186l.056-.056a6.813,6.813,0,0,0,.559-.782l.056-.056c.056-.112.112-.168.168-.28.28-.391.5-.726.782-1.118.056-.112.112-.167.168-.279a3.768,3.768,0,0,1,.391-.615c.112-.167.168-.279.279-.447a2.259,2.259,0,0,0,.279-.5c.168-.28.335-.615.5-.894l.168-.335.335-.671.168-.335.056-.112c.112-.28.28-.559.391-.838V883.4a11.716,11.716,0,0,0,1.173-1.285c.056-.056.112-.112.112-.168a4.136,4.136,0,0,0,.727-2.346m-90.369-14.251c-.168.056-.335.279-.559.559a2.414,2.414,0,0,0-.223.391,18.264,18.264,0,0,0-.95,2.291,10.833,10.833,0,0,0,.112-1.341v-.168c.056-.447.112-.95.168-1.4v-.167a13.009,13.009,0,0,1,.279-1.565.422.422,0,0,1,.056-.223v-.056a.205.205,0,0,1,.056-.168c0-.112.056-.168.056-.279.056-.392.168-.783.224-1.174.056-.335.112-.671.168-.95v-.112c0-.056,0-.112.056-.112v-.112c0-.056.056-.168.056-.224a.205.205,0,0,1,.056-.168,2.426,2.426,0,0,1,.056-.279c0-.056.056-.168.056-.224a2.432,2.432,0,0,1,.056-.28.205.205,0,0,1,.056-.167c0-.056,0-.112.056-.112,0-.112.056-.168.056-.224v-.168l-.112.112c-.112.056-.168.168-.279.223l-.112.112a1.49,1.49,0,0,0-.279.335l-.056.056-.335.5-.056.056c0,.056-.056.056-.056.112l-.168.335v.112c-.056.168-.168.335-.224.5-.168.447-.335.894-.447,1.286-.056.112-.056.279-.112.335a4.556,4.556,0,0,0-.112.5v0a1.229,1.229,0,0,1,.056-.447c0-.279.056-.615.056-.894a3.272,3.272,0,0,1,.112-.727.336.336,0,0,1,.056-.224c0-.112.056-.223.056-.335s.056-.224.056-.335v-.168c0-.112.056-.279.056-.391v-.391a.206.206,0,0,1,.056-.168,1.983,1.983,0,0,0,.112-.559v-.056c.056-.112.056-.28.112-.391v-.056c.056-.28.168-.559.224-.838v-.112a.205.205,0,0,1,.056-.168c.112-.447.279-.894.391-1.285V855.9c.112-.335.279-.727.391-1.062v-.056c.056-.168.112-.279.168-.447.112-.223.168-.447.279-.67a1.459,1.459,0,0,1,.168-.392c.056-.056.056-.167.112-.223a2.725,2.725,0,0,0,.168-.391l.056-.112c-.056-.056-.168-.056-.224-.112h-.056l-.112-.056a13.9,13.9,0,0,0-1.621-.615h-.112a7.875,7.875,0,0,0-1.118-.223c-.224,0-.447-.056-.671-.056h-.559c-.279,0-.559.056-.838.056a.5.5,0,0,0-.28.056c-.112,0-.279.056-.391.056a.2.2,0,0,0-.168.056c-.112,0-.168.056-.279.056-.168.056-.391.112-.559.168-.056,0-.168.056-.224.056-.224.112-.5.168-.727.28-.112.056-.168.112-.28.112l-.335.168-.112.056a2398.6,2398.6,0,0,0-.671.447c-.112.056-.224.168-.335.223-.056.056-.168.112-.224.167-.168.168-.391.336-.559.5l-.279.28c-.168.168-.279.335-.447.5l-.056.056c-.056.112-.168.168-.224.28l-.168.167a9.821,9.821,0,0,0-.782,1.286c-.056.056-.056.112-.112.167-.112.224-.168.447-.279.671-.056.112-.056.167-.112.279-.056.224-.168.447-.224.727v.223c-.056.168-.056.335-.112.5a753.475,753.475,0,0,1-.112.559v.224a4.2,4.2,0,0,0,0,.838,2.716,2.716,0,0,0,.056.671v.112c0,.112.056.223.056.335a10.579,10.579,0,0,0,.279,1.285c.112.335.224.615.335.894a8.425,8.425,0,0,0,.838,1.565,8.863,8.863,0,0,0,2.627,2.571,7.4,7.4,0,0,0,1.9.894,7.561,7.561,0,0,0,2.012.447c.168,0,.335.056.447.056h.727c.224,0,.447-.056.671-.056a.95.95,0,0,0,.391-.056c.335-.056.615-.112.95-.167h.056a3.453,3.453,0,0,1,.391-.112,6.662,6.662,0,0,0,1.118-.447l.056-.056a.936.936,0,0,1,.28-.112,25.2,25.2,0,0,1-.391-2.962c.279-.112.279-.167.279-.223" transform="translate(-325.835 -823.097)" fill="#fce9cd"/>
    </g>
    <path id="Path_191" data-name="Path 191" d="M1223.069,174.92l.168.112Z" transform="translate(-1153.793 -165.011)" fill="#4d9ed7"/>
    <path id="Path_192" data-name="Path 192" d="M1364.442,1618.149c0-.056,0-.112-.056-.112a.424.424,0,0,1-.056-.224,8,8,0,0,0-.95-2.067,6.035,6.035,0,0,0-.727-.95l.167-.671a4.294,4.294,0,0,0,.112-.838,8.072,8.072,0,0,0-.726-4.471,2.664,2.664,0,0,0-.168-.392c-.335.224-.615.447-.95.671a48.748,48.748,0,0,1-20.119,7.824,57.81,57.81,0,0,1-15.872.167l.112.057a5.334,5.334,0,0,0-4.248,3.632l.056.056-.28,2.124a6.592,6.592,0,0,0,2.906,5.645,24.11,24.11,0,0,0,5.589,1.341,44.724,44.724,0,0,0,12.127-.335,51.2,51.2,0,0,0,19.5-7.712,30.947,30.947,0,0,0,3.521-2.794l.056-.057.056-.056c0-.391-.056-.615-.056-.838" transform="translate(-1245.931 -1517.312)" fill="#fff"/>
    <g id="Group_82" data-name="Group 82" transform="translate(18.978 48.639)">
      <path id="Path_193" data-name="Path 193" d="M1037.584,883.211c-3.074-1.9-3.521-2.515-3.242-7.6.112-1.844.28-4.247.5-7.545,0-.447.056-.838.056-1.229v-1.621c0-.28-.056-.559-.056-.783a.706.706,0,0,0-.056-.335c-.056-.28-.056-.559-.112-.838,0-.112-.056-.279-.056-.391a1.311,1.311,0,0,0-.112-.447c-.056-.112-.056-.28-.112-.391a7.715,7.715,0,0,0-1.565-1.733l-.112-.112-.112-.056h-.056c-.112-.056-.168-.112-.28-.168a1.225,1.225,0,0,1-.279-.168,8.115,8.115,0,0,0-3.018-1.062,10.213,10.213,0,0,0-1.844-.112c-.28,0-.615.056-.894.056a20.588,20.588,0,0,0-2.4.5c-.279.168-.559.391-.838.559a8.087,8.087,0,0,1-.727.5l-.112.056a5.1,5.1,0,0,1-.727.447l-.112.056c-.223.168-.5.28-.727.447l-.112.056a3.418,3.418,0,0,1-.782.391l-.112.056c-.28.112-.5.224-.783.335l-.112.056c-.28.112-.559.168-.838.28h-.056c-.28.056-.615.112-.894.168a14.793,14.793,0,0,1-1.565.112,20.562,20.562,0,0,1-2.571-.168l-.838-.168a2.4,2.4,0,0,1-.279-.056c-.727-.168-1.509-.335-2.236-.5-.335-.056-.615-.168-.95-.224-.5-.112-1.006-.223-1.565-.335a2.412,2.412,0,0,1-.28-.056,9.161,9.161,0,0,0-1.285.112h-.112a18.737,18.737,0,0,0-3.8.894c-.056,0-.112.056-.223.056-.224.056-.391.168-.615.224-.28.112-.5.224-.782.335a21.125,21.125,0,0,0-5.253,3.3c-.671.559-1.285,1.174-1.9,1.788a24.755,24.755,0,0,0-2.4,3.018c-.056.056-.056.112-.112.168a13.845,13.845,0,0,0-1.006,1.732,6.127,6.127,0,0,1-.335.615v.056a16.7,16.7,0,0,0-.838,2.124c0,.056,0,.112-.056.112-.056.112-.056.223-.112.335a6.749,6.749,0,0,0-.28,1.006,5.928,5.928,0,0,0-.224,1.062c0,.056-.056.168-.056.224-.056.223-.056.447-.112.615-.112.782-.168,1.565-.224,2.347v.559a12.938,12.938,0,0,0,1.453,3.465,19.729,19.729,0,0,0,8.886,7.656c1.062.447,2.179.894,3.353,1.285l.056.056.056-.056c.168-.112.279-.224.447-.335.056-.056.112-.056.168-.112l.5-.335c.056-.056.112-.056.168-.112l.5-.335c.056-.056.112-.056.168-.112a4.97,4.97,0,0,1,.559-.335c.056-.056.112-.056.168-.112.168-.112.391-.223.559-.335.056-.056.112-.056.167-.112.168-.112.391-.224.559-.335.056-.056.167-.056.223-.112.168-.112.391-.223.559-.335a.424.424,0,0,1,.224-.112,6.193,6.193,0,0,1,.615-.335c.112-.056.168-.112.279-.112a3,3,0,0,1,.615-.279c.112-.056.167-.112.279-.112.223-.112.391-.168.615-.279l.335-.168c.224-.112.391-.168.615-.28a2.712,2.712,0,0,1,.391-.167c.224-.056.391-.168.615-.224.112-.056.279-.112.391-.168.224-.056.391-.167.615-.224.168-.056.28-.112.447-.168.224-.056.391-.167.615-.223l.5-.167a2.336,2.336,0,0,0,.559-.224c.168-.056.391-.112.559-.167s.391-.112.559-.168c.223-.056.447-.112.615-.167s.335-.112.559-.168a5.18,5.18,0,0,0,.727-.224c.112-.056.224-.056.335-.112.894-2.291,3.633-7.992,8.271-8.607a12.824,12.824,0,0,1,1.4-.112h.335a6.189,6.189,0,0,1-.112-1.062c-.167-2.459.615-4.527,1.677-4.583.838-.056,1.509,1.174,1.621,1.564a7.624,7.624,0,0,1,.615,2.739,9.822,9.822,0,0,1-.224,2.627c.112.112.167.223.279.279a6.779,6.779,0,0,1,1.174,4.471c.391-.056.838-.056,1.285-.112a.709.709,0,0,0,.335-.056h.224a14.756,14.756,0,0,1,1.621-.112c1.229-.112,2.459-.167,3.744-.224-.727-.391-1.174-.615-1.174-.615m11.68,34.427a34.6,34.6,0,0,1-6.259,4.415c-1.062.559-2.124,1.062-3.13,1.509a41.638,41.638,0,0,1-6.427,2.18,33.549,33.549,0,0,1-7.265,1.062,13.415,13.415,0,0,0,7.321,1.117,12.756,12.756,0,0,0,2.347-.391c-.056.838-.167,1.621-.279,2.4a11.71,11.71,0,0,1-.671,2.235v.056a12.143,12.143,0,0,1-1.229,2.235c-.056.056-.112.168-.167.224l.167-.112c.727-.391,1.453-.838,2.179-1.285.559-.335,1.118-.727,1.621-1.062q1.341-.922,2.683-2.012c.056-.056.112-.112.167-.112a31.173,31.173,0,0,0,2.4-2.291,33.776,33.776,0,0,0,2.683-3.186l.056-.056a6.806,6.806,0,0,0,.559-.782l.056-.056c.056-.112.112-.167.168-.279.279-.391.5-.726.782-1.118.056-.112.112-.168.168-.28a3.769,3.769,0,0,1,.391-.615c.112-.167.168-.279.279-.447a2.285,2.285,0,0,0,.28-.5c.167-.28.335-.615.5-.894l.168-.335.335-.671.167-.335.056-.112c.112-.28.279-.559.391-.838a1.006,1.006,0,0,0-.5.335M998.3,895.115c-.559.168-1.23.447-1.9.727a22.216,22.216,0,0,0-5.589,3.241c-.223.168-.447.391-.671.559a9.523,9.523,0,0,0-1.062,1.062l-.112.112-.167.168c-.112.168-.28.28-.391.447l-.168.167a4.661,4.661,0,0,0-.447.671c-.168.223-.28.447-.447.67a11.8,11.8,0,0,0-1.509,6.762v-.112a.205.205,0,0,1,.056-.168v-.056c0-.056.056-.112.056-.223v-.056a2.418,2.418,0,0,0,.056-.28c0-.112.056-.167.112-.279v-.056c.056-.112.056-.223.112-.335v-.056c.056-.112.056-.224.112-.335v-.056a2.709,2.709,0,0,0,.168-.391l.056-.056a1.4,1.4,0,0,1,.223-.391c.112-.224.224-.391.335-.615.056-.056.112-.168.167-.224l.056-.056.335-.5c.112-.112.223-.279.335-.391l.112-.112c.112-.112.168-.224.28-.28l.112-.112a2.569,2.569,0,0,0,.391-.391s-2.4,5.477-1.341,9.78v-.838a240.122,240.122,0,0,1,.112-.671v-.056c0-.112.056-.28.056-.391v-.112c.056-.168.056-.28.112-.447v-.056a1.726,1.726,0,0,0,.112-.447c0-.056.056-.112.056-.167l.056-.112c.056-.112.112-.279.167-.391a2.275,2.275,0,0,1,.28-.5.194.194,0,0,1,.056-.112l.335-.5s-.112,1.342-.112,2.962a3.689,3.689,0,0,0,.056.782,1.547,1.547,0,0,0,.056.5,22.038,22.038,0,0,1,.894-4.862c.112-.391.279-.838.391-1.23,0-.055.056-.112.056-.167.168-.391.279-.727.447-1.118.056-.056.056-.112.112-.223.167-.335.335-.727.5-1.062a.206.206,0,0,0,.056-.168q.587-1.09,1.174-2.012c.056-.056.056-.112.112-.168a8.117,8.117,0,0,0,.5-.726c.056-.056.056-.112.112-.168s.056-.112.112-.168c.223-.28.391-.559.615-.838.056-.056.056-.112.112-.112a9.729,9.729,0,0,1,.671-.782c.279-.335.559-.615.838-.95a6.429,6.429,0,0,1,.615-.615l.224-.223c.447-.447.894-.894,1.341-1.285a24.487,24.487,0,0,1,2.571-2.068c-.223.056-.447.112-.727.168a8.585,8.585,0,0,1-1.341.5" transform="translate(-948.947 -858.621)" fill="#f2d2ac"/>
      <path id="Path_194" data-name="Path 194" d="M416.687,1242.705a1.562,1.562,0,0,0-.056-.335c-.224-.782-1.006-2.683-4.08-2.4a5.408,5.408,0,0,0-4.639,3.856.978.978,0,0,0-.056.28l.112.056a1.625,1.625,0,0,1,1.9.168,3.264,3.264,0,0,1,.782.726,1.269,1.269,0,0,1,.168,1.23l-.168.167a1.8,1.8,0,0,0,.335.112c.894.28,3.409.783,4.75-.95.056-.112.112-.167.168-.28-.279-.112-.391-.5-.391-1.006a3.845,3.845,0,0,1,.112-.727c.168-.671.671-1.062,1.062-.894m-16.151,23.919c-2.124.447-3.968.782-5.365,1.006a.335.335,0,0,1,.224.056,59.7,59.7,0,0,0,10.786.391,47.184,47.184,0,0,0,29.4-12.183v-.056a4.349,4.349,0,0,0-1.006-3.185,4.988,4.988,0,0,0-.559-.5c-.056,0-.056-.056-.112-.056a8.231,8.231,0,0,1-.727-.447l-.5-.335v-.056a18.066,18.066,0,0,1-2.124,2.515c-.279.279-.559.559-.894.838a38.158,38.158,0,0,1-10.172,6.259,98.394,98.394,0,0,1-18.946,5.757m-52.981-14.587c-.112.056-.168.167-.279.224l-.112.112a1.48,1.48,0,0,0-.279.335l-.056.056-.335.5-.056.056c0,.056-.056.056-.056.112l-.168.335v.112c-.056.168-.168.335-.224.5-.168.448-.335.895-.447,1.285-.056.112-.056.28-.112.336a4.551,4.551,0,0,0-.112.5v0a1.232,1.232,0,0,1,.056-.448c0-.279.056-.615.056-.894a3.276,3.276,0,0,1,.112-.727.335.335,0,0,1,.056-.223c0-.112.056-.224.056-.335s.056-.224.056-.335v-.167c0-.112.056-.28.056-.391v-.391a.205.205,0,0,1,.056-.168,1.986,1.986,0,0,0,.112-.559v-.056c.056-.112.056-.28.112-.391v-.056c.056-.28.168-.559.224-.839v-.112a.2.2,0,0,1,.056-.167c.112-.448.279-.895.391-1.286v-.056c.112-.335.279-.726.391-1.061v-.056c.056-.168.112-.28.168-.448.112-.224.168-.447.279-.671a1.46,1.46,0,0,1,.168-.391c.056-.056.056-.167.112-.223a2.7,2.7,0,0,0,.168-.391l.056-.112c-.056-.055-.168-.055-.224-.112h-.056l-.112-.056a13.937,13.937,0,0,0-1.621-.615h-.112a7.94,7.94,0,0,0-1.118-.223c-.224,0-.447-.056-.671-.056h-.559c-.279,0-.559.056-.838.056a.5.5,0,0,0-.279.056c-.112,0-.279.056-.391.056a.2.2,0,0,0-.168.056c-.112,0-.168.056-.279.056-.168.055-.391.112-.559.168-.056,0-.168.056-.223.056-.224.112-.5.168-.727.28-.112.056-.168.112-.279.112l-.335.168-.112.056a799.265,799.265,0,0,1-.671.447c-.112.056-.224.167-.335.224-.056.056-.168.112-.224.167-.168.168-.391.335-.559.5l-.279.28c-.168.167-.279.335-.447.5l-.056.056c-.056.112-.168.167-.224.279l-.168.168a9.805,9.805,0,0,0-.782,1.285c-.056.056-.056.112-.112.167-.112.224-.168.447-.279.671-.056.112-.056.167-.112.28,0,.056.056.112.056.167.056.224.112.391.168.615v.112c.056.168.168.391.224.559a9.464,9.464,0,0,0,.727,1.509c.056.056.056.112.112.168v.056l.056.056a5.508,5.508,0,0,0,.5.838c.279.391.5.671.671.894l.112.112a.055.055,0,0,0,.056.056l.112.112a2.435,2.435,0,0,0-.056-.28,9.146,9.146,0,0,1-.224-2.124v-.112a9.469,9.469,0,0,1,.056-1.286l.168.5c.056.223.168.447.224.67v.112a11.552,11.552,0,0,0,1.118,2.347,10.827,10.827,0,0,0,1.118,1.621c.056.056.112.112.112.167l.112.112a10.637,10.637,0,0,1-.279-2.235v-.727a4.524,4.524,0,0,1,.056-.894,11.051,11.051,0,0,0,.447,1.453v.056a16.3,16.3,0,0,0,1.844,3.521l.056.056a1.166,1.166,0,0,1,.224.335c.056.056.112.112.112.168l.112.111.056.056v-.112c0-.112-.056-.223-.056-.335-.056-.391-.112-.782-.168-1.117,0-.224-.056-.5-.056-.727v-1.229c0-.28.056-.615.056-.895.056.168.112.391.168.559.056.112.112.28.168.391v.056l.056.056a3.825,3.825,0,0,0,.168.447,3.4,3.4,0,0,0,.391.782,5.687,5.687,0,0,0,.447.838,3.228,3.228,0,0,1,.224.392,5.2,5.2,0,0,1,.279.447,1.176,1.176,0,0,1,.224.335l.056.056c.056.112.168.167.223.28.056.056.112.112.112.167.112.112.168.224.224.224l.056.055v-.167c.056-.448.112-.95.168-1.4v-.168a13,13,0,0,1,.279-1.565.421.421,0,0,1,.056-.223v-.056a.2.2,0,0,1,.056-.167c0-.112.056-.168.056-.28.056-.391.168-.782.224-1.174.056-.335.112-.671.168-.95v-.112c0-.056,0-.112.056-.112v-.112c0-.055.056-.167.056-.223a.2.2,0,0,1,.056-.167,2.408,2.408,0,0,1,.056-.28c0-.056.056-.168.056-.224a2.409,2.409,0,0,1,.056-.279.2.2,0,0,1,.056-.167c0-.056,0-.112.056-.112,0-.112.056-.167.056-.223v-.168l.279.167M415.29,1275.4c.782-.28,1.453-.5,2.012-.727,1.062-.447,1.621-.783,1.621-.894-.056-.112-.671-.056-1.788.223-.559.112-1.229.224-2.068.448a8.811,8.811,0,0,1-1.285.223c-.447.056-.95.167-1.453.223-1.006.168-2.124.28-3.353.392l-1.844.168c-.615.056-1.285.056-1.956.112a42.71,42.71,0,0,1-8.662-.615,19.029,19.029,0,0,1-5.253-1.844l-.056-.056a5.334,5.334,0,0,1,4.247-3.633l-.112-.056h-.168c-.5-.056-.894-.112-1.285-.167-.28-.056-.5-.056-.671-.112a3.175,3.175,0,0,1-.391-.055,3.761,3.761,0,0,0-3.465,2.291l-.168.335a6.915,6.915,0,0,0-.559,2.235,6.213,6.213,0,0,0,1.453,4.527,9.378,9.378,0,0,0,3.856,2.459,6.541,6.541,0,0,1-2.906-5.645,26.194,26.194,0,0,0,5.2,1.453,36.314,36.314,0,0,0,9.054.5c.671-.056,1.4-.112,2.012-.168.671-.112,1.285-.168,1.9-.224,1.23-.223,2.291-.391,3.353-.615a10.945,10.945,0,0,0,1.453-.391,6.991,6.991,0,0,0,1.286-.391" transform="translate(-335.148 -1218.338)" fill="#f2d2ac"/>
    </g>
    <g id="Group_83" data-name="Group 83" transform="translate(70.673 62.777)">
      <path id="Path_195" data-name="Path 195" d="M1273.556,1113.785a5.02,5.02,0,0,1,3.577,1.341,9.411,9.411,0,0,0,.223-2.627,7.611,7.611,0,0,0-.615-2.739c-.112-.447-.782-1.621-1.621-1.564-1.062.056-1.844,2.124-1.677,4.583a6.16,6.16,0,0,0,.112,1.006m2.795,6.315a1.294,1.294,0,0,0,.391,1.006c.392.224.894-.223,1.118-.95,0-.056.056-.112.056-.168.168-.67,0-1.341-.391-1.509-.391-.224-.894.223-1.117.95,0,.223-.056.447-.056.67m-7.6,1.23a2.619,2.619,0,0,0,.783.782,1.693,1.693,0,0,0,1.956.112l.167-.168a1.268,1.268,0,0,0-.167-1.23,1.983,1.983,0,0,0-.782-.727,1.725,1.725,0,0,0-1.9-.167.771.771,0,0,0-.168.224,1.292,1.292,0,0,0,.112,1.174m27.776,10.227h0m-.894,15.48a26.731,26.731,0,0,1-3.577,2.851c-5.757,3.912-13.8,6.986-19.5,7.712a44.771,44.771,0,0,1-12.128.335,24.882,24.882,0,0,1-5.589-1.341,9.378,9.378,0,0,1-3.856-2.459,6.553,6.553,0,0,1-1.453-4.527,6,6,0,0,1,.559-2.236l.168-.335c.391-.727,1.453-2.459,3.465-2.291a1.256,1.256,0,0,1,.391.056,3.34,3.34,0,0,1,.671.112c.391.056.782.112,1.286.168h.167a57.838,57.838,0,0,0,15.872-.168,48.746,48.746,0,0,0,20.119-7.824c.335-.223.615-.447.95-.671l3.3-4.918a46.975,46.975,0,0,1-29.4,12.239,54.886,54.886,0,0,1-10.786-.391c-.112,0-.168,0-.223-.056-.727-.112-1.286-.167-1.733-.223-.224,0-.391-.056-.5-.056a4.779,4.779,0,0,0-1.788.224,5.6,5.6,0,0,0-2.85,2.124,7.981,7.981,0,0,0-1.453,4.583,8.81,8.81,0,0,0,1.062,4.192c.056.056.056.112.112.168.112.168.168.279.28.447a3.931,3.931,0,0,0,.447.559c1.733,2.18,5.533,3.744,10.563,4.415a43.605,43.605,0,0,0,11.68-.224c12.742-2.292,18.778-6.427,21.573-9.277a5.508,5.508,0,0,0,.558-.615,11.317,11.317,0,0,0,1.621-2.4v-.056a.434.434,0,0,0,.056-.167l-.056.055" transform="translate(-1247.736 -1108.194)" fill="#664f44"/>
    </g>
    <g id="Group_84" data-name="Group 84" transform="translate(65.364 53.111)">
      <path id="Path_196" data-name="Path 196" d="M1166.694,941.926a5.115,5.115,0,0,0-1.285-.5c-.28-.056-.559-.112-.894-.167a.7.7,0,0,1-.335-.056,12.741,12.741,0,0,0-2.794.112,3.21,3.21,0,0,0-.782.223,8.732,8.732,0,0,0-6.036,6.036.505.505,0,0,0-.056.279c-.056.28-.168.559-.224.783a13.257,13.257,0,0,0-.279,2.347c0,.895.056,1.454.056,1.454a18.856,18.856,0,0,1,1.118-2.124,19.87,19.87,0,0,1,3.018-4.024,15.066,15.066,0,0,1,5.645-3.745,11.757,11.757,0,0,1,2.85-.615m24.2-2.85-.056-.112a3.76,3.76,0,0,0-.838-.782,4.345,4.345,0,0,0-3.3-.5,5.735,5.735,0,0,0-2.739,1.565,6.762,6.762,0,0,1,6.259,1.006,10.128,10.128,0,0,1,.894.727,7.389,7.389,0,0,1,.895.95,6.069,6.069,0,0,0-.95-2.627.756.756,0,0,0-.168-.224" transform="translate(-1154.008 -937.567)" fill="#e9b784"/>
    </g>
    <path id="Path_197" data-name="Path 197" d="M1361.865,1184.535c1.174-.335,2.4-.671,3.8-1.006a11.694,11.694,0,0,0,.112-3.745c-.392-3.241-1.845-5.756-3.3-5.588s-2.292,2.962-1.9,6.2a10.944,10.944,0,0,0,1.285,4.135" transform="translate(-1283.424 -1107.673)" fill="#664f44"/>
    <path id="Path_198" data-name="Path 198" d="M1039.445,67.383l-3.018.671.615,5.477-7.992-4.08-3.3,1.006.056.056,9.724,11.066.112-.056.112-.056c.28-.168.615-.391.895-.559a1.169,1.169,0,0,0,.335-.224c.447-.279.894-.559,1.341-.782l-4.135-4.75,6.65,3.241c.224-.112.392-.224.615-.335l-.615-4.75,3.018,3.521h.056c.28-.112.5-.279.782-.391l.112-.056.112-.056a.2.2,0,0,0,.112-.056l.335-.168a.055.055,0,0,0,.056-.056c.336-.168.727-.335,1.062-.5l-7.042-8.159" transform="translate(-967.654 -63.565)" fill="#ffd250"/>
    <g id="Group_85" data-name="Group 85" transform="translate(20.04 3.543)">
      <path id="Path_199" data-name="Path 199" d="M402.679,63.654v0m0-.168.447-.112a10.494,10.494,0,0,0-2.627-.727,20.6,20.6,0,0,0-7.489.727,48.615,48.615,0,0,0-9.668,3.744,99.922,99.922,0,0,0-22.187,15.593c-2.627,2.347-5.03,4.806-7.265,7.209l9.054,11.177c2.459-2.683,5.086-5.365,7.992-7.992a113.378,113.378,0,0,1,11.625-9.333,91.6,91.6,0,0,1,11.01-6.651L392,69.969l.056-4.024L392,65.889l3.3-1.006,6.427,3.3-.168-2.235,1.118-2.459" transform="translate(-353.89 -62.541)" fill="#4d9ed7"/>
    </g>
    <g id="Group_86" data-name="Group 86" transform="translate(66.538 4.488)">
      <path id="Path_200" data-name="Path 200" d="M1177.017,79.222l-1.117,2.459.167,2.291,1.565.782Zm-2.292,7.1,6.707,3.3-2.571,1.453Zm6.707-1.844.615,4.75,2.4-1.23Z" transform="translate(-1174.726 -79.222)" fill="#132134"/>
    </g>
    <path id="Path_201" data-name="Path 201" d="M644.554,128.453h1.229a14.613,14.613,0,0,1,3.185.391.206.206,0,0,1,.168.056h.056l.112.056h.112c-.112-.056-.223-.168-.335-.224a14.8,14.8,0,0,0-3.521-.894c-6.036-.782-12.966,1.453-16.878,3.018-.224.112-.447.168-.671.279-.335.168-.671.279-1.006.447-.559.224-1.118.5-1.733.782-.112.056-.168.056-.279.112-.335.168-.727.335-1.062.5a.055.055,0,0,0-.056.056l-.335.168a.2.2,0,0,0-.112.056H623.2l-.056.056a5.109,5.109,0,0,0-.782.391h-.056c-.056.056-.112.056-.168.112h-.056a.2.2,0,0,0-.112.056c-.391.224-.782.391-1.173.615-.28.168-.559.279-.839.447h-.056c-.224.112-.391.224-.615.335-.671.335-1.285.727-1.956,1.118-.056.056-.112.056-.224.112-.056.056-.112.056-.167.112s-.112.056-.168.112l-.056.056c-.447.279-.894.5-1.341.782a1.169,1.169,0,0,0-.335.224c-.28.168-.615.391-.894.559l-.112.056-.112.056-2.515,1.677c-1.4.95-2.739,1.9-4.08,2.906-.168.112-.336.279-.5.391-3.521,2.627-6.874,5.477-10.116,8.383-3.409,3.13-6.706,6.315-9.78,9.557-1.677,1.677-3.13,3.186-4.247,4.415a37.18,37.18,0,0,0-3.577,4.136,6.569,6.569,0,0,0,.615-.559c-.279.335-.615.727-.894,1.062a223.87,223.87,0,0,1,16.878-16.319c3.689-3.186,7.545-6.259,11.513-9.11,1.733-1.229,3.521-2.459,5.309-3.633.559-.391,1.174-.727,1.733-1.118.28-.168.559-.335.894-.5a2.269,2.269,0,0,1,.5-.279c.335-.168.615-.391.95-.559a7.821,7.821,0,0,0,.894-.559c.168-.112.335-.168.5-.279l1.174-.671c.224-.112.447-.279.671-.391.727-.391,1.453-.782,2.236-1.174.056-.056.112-.056.168-.112l.335-.168c.167-.056.279-.168.447-.224.056-.056.112-.056.168-.112l.335-.168a.055.055,0,0,0,.056-.056h.056c.335-.168.671-.335.95-.447.056,0,.112-.056.168-.112l.335-.168c.391-.168.727-.335,1.118-.5a1.223,1.223,0,0,0,.279-.168c.056,0,.112-.056.168-.056a.8.8,0,0,1,.335-.112c.447-.168.838-.391,1.285-.559.391-.168.727-.335,1.118-.5,2.124-.894,4.08-1.621,5.924-2.235a42.654,42.654,0,0,1,9.221-1.677" transform="translate(-546.049 -120.444)" fill="#fff"/>
  </g>
</svg>
