<svg xmlns="http://www.w3.org/2000/svg" xmlns:xlink="http://www.w3.org/1999/xlink" width="398.549" height="108.621" viewBox="0 0 398.549 108.621">
  <defs>
    <linearGradient id="linear-gradient" x1="0.2" y1="0.5" x2="4.06" y2="0.5" gradientUnits="objectBoundingBox">
      <stop offset="0" stop-color="#ff6d01"/>
      <stop offset="0.504" stop-color="#ffe010"/>
      <stop offset="1" stop-color="#ff38c4"/>
    </linearGradient>
    <linearGradient id="linear-gradient-2" x1="-0.257" y1="0.5" x2="0.944" y2="0.5" xlink:href="#linear-gradient"/>
  </defs>
  <g id="Group_496" data-name="Group 496" transform="translate(0 0)">
    <path id="Path_387" data-name="Path 387" d="M2030.15,492.638c0,1.066-.625,3.22-1.643,6.645-.989,3.323-2.218,7.458-2.218,9.283,0,.607.168,1.635.8,1.635.892,0,1.927-1.545,2.341-3.471a12.019,12.019,0,0,1-.093-1.5,19.568,19.568,0,0,1,3.217-10.995,13.387,13.387,0,0,1,2.188-2.452h-4.858A1.717,1.717,0,0,1,2030.15,492.638Z" transform="translate(-1706.996 -414.292)" fill="none"/>
    <path id="Path_388" data-name="Path 388" d="M1954.713,495.6c.237-.5.481-1.007.729-1.5.448-.9.85-1.66,1.213-2.309h-1.05C1955.305,492.987,1955,494.314,1954.713,495.6Z" transform="translate(-1646.699 -414.292)" fill="none"/>
    <path id="Path_389" data-name="Path 389" d="M2119.929,538.532l-.194-.361q-.087.257-.174.535A42.44,42.44,0,0,0,2118,545.64l0,.018a9.249,9.249,0,0,0-.121,1.764,15.109,15.109,0,0,0,1.787-3.877c.558-1.578,1.017-3.17,1.25-4.1A2.321,2.321,0,0,1,2119.929,538.532Z" transform="translate(-1784.144 -453.368)" fill="none"/>
    <path id="Path_390" data-name="Path 390" d="M2130.609,521.161a7.551,7.551,0,0,0,1.086-2.552,14.671,14.671,0,0,0-1.2,2.723Z" transform="translate(-1794.782 -436.889)" fill="none"/>
    <path id="Path_391" data-name="Path 391" d="M503.821,216.9h14.307V196.783h15.4V186.035h-15.4v-9.15h20.625v-11.4H503.821Z" transform="translate(-424.431 -139.407)"/>
    <path id="Path_392" data-name="Path 392" d="M790.911,194.823a10.142,10.142,0,0,1-2,6.681,7.265,7.265,0,0,1-5.919,2.4q-3.922,0-5.846-2.36t-1.925-6.718v-29.34H760.99v29.34a25.715,25.715,0,0,0,2.76,12.419,18.041,18.041,0,0,0,7.662,7.626,24.171,24.171,0,0,0,11.293,2.542,25.007,25.007,0,0,0,11.474-2.578,19.108,19.108,0,0,0,8.025-7.662,24.272,24.272,0,0,0,2.941-12.346v-29.34H790.911Z" transform="translate(-641.077 -139.407)"/>
    <path id="Path_393" data-name="Path 393" d="M1122.323,194.992l-18.883-29.049h-14.306v51.345h14.306V188.6l18.883,28.686h14.306V165.943h-14.306Z" transform="translate(-917.514 -139.794)"/>
    <path id="Path_394" data-name="Path 394" d="M1480.363,213.4h0a1.8,1.8,0,0,1,.606-1.368c1.162-1.156,4.249-2.126,7.3-2.846V165.943h-14.307v29.049l-18.882-29.049h-14.307v51.345h14.307V188.6l18.882,28.686h7.067c-.009-.04-.018-.079-.026-.12C1480.676,215.643,1480.384,213.811,1480.363,213.4Z" transform="translate(-1213.748 -139.794)"/>
    <path id="Path_395" data-name="Path 395" d="M1806.852,489.129a22.411,22.411,0,0,0-3.64.418h3.657c0-.072-.005-.146-.009-.223S1806.855,489.195,1806.852,489.129Z" transform="translate(-1519.071 -412.054)"/>
    <path id="Path_396" data-name="Path 396" d="M1961.714,421.5a12.176,12.176,0,0,1-1.486,5.283,34.228,34.228,0,0,0-1.177,4.044h1.05c1.868-3.331,2.723-3.655,3.38-3.655a17.58,17.58,0,0,1,2.221.141v-7.887h-6.9a10.952,10.952,0,0,1,1.932.772C1960.977,420.338,1961.714,420.758,1961.714,421.5Z" transform="translate(-1650.145 -353.336)"/>
    <path id="Path_397" data-name="Path 397" d="M1806.73,205.5v-9.3h16.63V185.382h-16.63v-8.5h18.809v-11.4h-33.115v41.853a70.168,70.168,0,0,1,12.027-.848c.975.063,1.82,1.029,2.668,3.041a13.066,13.066,0,0,1,.962,3.178c0,1.66-1.849,3.328-2.981,4.193h2.95c1.612-7.795,2.864-10.422,3.63-11.4Z" transform="translate(-1509.982 -139.407)"/>
    <path id="Path_398" data-name="Path 398" d="M2044.855,216.9h4.858a11.464,11.464,0,0,1,7.7-2.822c4.621,0,8.268,1.084,10.058,2.822h6.942V206.079h-16.051v-40.6h-14.306v50.482A3.993,3.993,0,0,1,2044.855,216.9Z" transform="translate(-1721.966 -139.407)"/>
    <g id="Group_488" data-name="Group 488" transform="translate(264.838 66.839)">
      <path id="Path_399" data-name="Path 399" d="M1710.2,436.514a79.373,79.373,0,0,0-15.528,1.464c-7.9,1.44-10.2,2.843-10.455,3.3.075.928.9,5.448,1.48,6.341,3.8.886,13.218,3.205,13.218,11.027,0,4.148-2.172,6.527-5.957,6.527a3.433,3.433,0,0,1-3.631-3.543,9.946,9.946,0,0,1,1.372-4.774,9.531,9.531,0,0,0-6.034-2.345c-2.295,0-3.96,2.182-3.96,5.189,0,2.052,1.387,4.159,3.806,5.78,2.018,1.352,5.646,2.963,11.475,2.963,6.56,0,13.57-2.147,13.57-8.173,0-3.714-2.094-6.975-6.225-9.692a35.877,35.877,0,0,0-8.831-3.961l-2.26-.7,2.18-.923a27.787,27.787,0,0,1,6.134-1.646c3.561-.566,4.169-.163,4.369-.031a.96.96,0,0,1,.444.807c0,.235.011.514.022.783.006.132.011.259.014.38a2.834,2.834,0,0,0,.9.34,8.109,8.109,0,0,0,3.6-1.776c1.582-1.2,2.315-2.3,2.333-2.821C1712.14,440.206,1710.911,436.865,1710.2,436.514Z" transform="translate(-1680.709 -434.543)" fill="url(#linear-gradient)"/>
      <path id="Path_400" data-name="Path 400" d="M1983.145,434.219c-3.613,0-6.9,2.689-9.8,5.061-.475.388-.924.756-1.377,1.114l-2.2,1.74.83-2.676c.291-.938.684-2.367,1.139-4.022.771-2.8,1.73-6.288,2.726-9.331.013-.043.03-.095.046-.145.01-.03.021-.062.031-.1-.072-.031-.171-.069-.309-.113a34.3,34.3,0,0,0-6.536-1.582c-.271,0-.458.187-.575.57a148.776,148.776,0,0,0-3.6,14.815l-.152.778-.788-.081c-.074-.008-.145-.013-.211-.017-.621,1.3-2.069,4.339-4.589,4.339a1.594,1.594,0,0,1-1.2-.513,1.938,1.938,0,0,1-.458-1.485,14.685,14.685,0,0,1,1.862-4.872,9.7,9.7,0,0,0,.948-2.113l0-.021c.092-.738-.637-1.273-2.167-1.589-1.573-.315-3.542-.433-3.963.793-.13.381-.287.872-.468,1.44a52.788,52.788,0,0,1-2.066,5.706l-.4.877-1.544-.927.085-.573c.17-1.139.452-2.416.726-3.651.176-.792.344-1.552.475-2.24a15.476,15.476,0,0,0-4.644-1.32c-1.738,0-2.392,3.908-2.783,6.243-.047.285-.093.557-.138.808-.426,2.384-.8,4.719-1.108,6.941l-.108.773-.78-.026c-.139,0-.27-.005-.388,0-.221,2.179-.752,5.318-3.075,5.318a1.415,1.415,0,0,1-1.046-.471c-.717-.779-.75-2.355-.651-3.539A45.489,45.489,0,0,1,1937,439.5a12.231,12.231,0,0,0-1.793-.3,8.255,8.255,0,0,1-.935-.136l-.907-.227.3-.888a2.025,2.025,0,0,0,.086-.516c0-1.817-3.565-3.7-9.533-3.7-7.468,0-11.376,7.312-11.376,14.535a10.209,10.209,0,0,0,.1,1.409l.021.145-.028.144c-.493,2.491-1.942,5.005-4.07,5.005-1.516,0-2.534-1.353-2.534-3.368,0-2.078,1.164-5.992,2.29-9.777a42.548,42.548,0,0,0,1.571-6.093c-.256-.556-2.885-2.807-7.992-2.833-.191.127-1.137.934-3.32,5.382-1.34,2.73-2.562,5.654-2.929,6.715l-.269.775-1.724-.493v-.654a90.417,90.417,0,0,1,3.322-14.569l.017-.036a10.93,10.93,0,0,0,1.306-4.269,11.963,11.963,0,0,0-3.158-1.083,9.034,9.034,0,0,0-3.43-.355c-.251.187-1.771,1.758-3.968,13.349a136.6,136.6,0,0,0-2.1,14.6c0,3.9,3.993,4.487,6.373,4.487a6.443,6.443,0,0,0,2.207-.426,36.643,36.643,0,0,1,4.519-13.011l.3-.391,1.89.21-.266.977a45.89,45.89,0,0,0-1.33,7.846c0,3.783,1.763,5.189,6.505,5.189a13.35,13.35,0,0,0,8.4-2.644l.536-.454.555.43a11.714,11.714,0,0,0,7.223,2.053,7.812,7.812,0,0,0,5.915-2.89l.26-.314h1.493l.12.724c.231,1.391,1.307,3.049,5.113,3.049a9.459,9.459,0,0,0,5.592-1.541l.357-.26.42.136a23.072,23.072,0,0,0,6.319,1.206c.542-3.988,2.564-11.166,4.162-13.861l1.612-2.72v3.162c0,3.3,1.5,4.969,4.443,4.969a5.556,5.556,0,0,0,2.169-.435l1.385-.583-.188,1.49c-.032.257-.063.511-.092.758a35.058,35.058,0,0,0-.395,6.284,1.733,1.733,0,0,0,.11.426,3.4,3.4,0,0,0,1,.282c.192.036.629.155,1.5.392,1.375.374,3.667,1,4.42,1.087a.134.134,0,0,0,.084-.014.834.834,0,0,0,.113-.527c0-.24,0-.536,0-.871a47.726,47.726,0,0,1,.235-6.465l.247-1.517,1.17,1a36.951,36.951,0,0,1,4.054,4.752,56.462,56.462,0,0,0,4.76,5.638,1.393,1.393,0,0,0,1.559.29l.519-.258c1.135-.564,4.581-2.275,5.06-2.663l.022-.021a.949.949,0,0,0,.207-.228c-.015-.106-.161-.441-1.092-1.427l-.017-.018c-1.982-2.22-8.115-8.95-10.34-11l-.768-.707.836-.625c4.57-3.417,7.635-4.562,12.1-6.147a2.509,2.509,0,0,0-.44-1.4C1986.219,434.728,1984.929,434.219,1983.145,434.219ZM1927.53,438.7l-.009.054a10.553,10.553,0,0,1-1.093,3.169,1.89,1.89,0,0,0,.318.114l.78.2-.132.794a44.193,44.193,0,0,1-1.619,5.454c-1.583,4.335-2.631,4.919-3.448,4.919a1.415,1.415,0,0,1-1.084-.485c-.512-.589-.611-1.609-.345-3.52a44.748,44.748,0,0,1,1.736-7.574c1.518-4.653,2.744-5.249,3.643-5.249a1.214,1.214,0,0,1,.932.419A2.067,2.067,0,0,1,1927.53,438.7Z" transform="translate(-1853.602 -424.171)" fill="url(#linear-gradient-2)"/>
    </g>
    <g id="Group_495" data-name="Group 495" transform="translate(0 0)">
      <path id="Path_401" data-name="Path 401" d="M586.84,137.154a4.662,4.662,0,0,1-1.894,3.2,2.135,2.135,0,0,1-2.045.556,1,1,0,0,1-.62-1.218,6.333,6.333,0,0,1,1.968-2.951,2.463,2.463,0,0,1,1.935-.84A1.1,1.1,0,0,1,586.84,137.154Z" transform="translate(-490.501 -114.475)"/>
      <path id="Path_402" data-name="Path 402" d="M626.661,150.071a4.267,4.267,0,0,1-1.448,2,1.125,1.125,0,0,1-1.056.252c-.388-.222-.323-.742-.191-1.1a5.781,5.781,0,0,1,1.648-2.32c.219-.17.533-.367.805-.2C626.87,148.993,626.795,149.624,626.661,150.071Z" transform="translate(-525.558 -125.217)"/>
      <path id="Path_403" data-name="Path 403" d="M37.174,32.524A11.057,11.057,0,0,1,34.763,26.8c-.039-.4-.061-1.109-.355-1.153-.7.21-.6,1.428-.515,2.159,1,4.719,4.965,8.1,6.9,8.528C40.8,36.333,38.446,34.058,37.174,32.524Zm2.4-1.488a13.9,13.9,0,0,1-1.724-4.953,24.075,24.075,0,0,0-.249-2.819c-1.232,0-.722,3.2-.448,4.407a12.159,12.159,0,0,0,2.594,5.2,20.99,20.99,0,0,0,1.837,1.714C41.592,33.845,41.176,33.717,39.579,31.037Zm.656-9.352a8.682,8.682,0,0,0,.329-2.63c-.651-.251-1.062,1.365-1.213,2-.75,3.389.837,7.642,3.158,10.376.216.263.392.589.734.706C42.549,29.395,39.742,26.513,40.234,21.685Zm0,0a8.682,8.682,0,0,0,.329-2.63c-.651-.251-1.062,1.365-1.213,2-.75,3.389.837,7.642,3.158,10.376.216.263.392.589.734.706C42.549,29.395,39.742,26.513,40.234,21.685Zm-.656,9.352a13.9,13.9,0,0,1-1.724-4.953,24.075,24.075,0,0,0-.249-2.819c-1.232,0-.722,3.2-.448,4.407a12.159,12.159,0,0,0,2.594,5.2,20.99,20.99,0,0,0,1.837,1.714C41.592,33.845,41.176,33.717,39.579,31.037Zm-2.4,1.488A11.057,11.057,0,0,1,34.763,26.8c-.039-.4-.061-1.109-.355-1.153-.7.21-.6,1.428-.515,2.159,1,4.719,4.965,8.1,6.9,8.528C40.8,36.333,38.446,34.058,37.174,32.524Zm0,0A11.057,11.057,0,0,1,34.763,26.8c-.039-.4-.061-1.109-.355-1.153-.7.21-.6,1.428-.515,2.159,1,4.719,4.965,8.1,6.9,8.528C40.8,36.333,38.446,34.058,37.174,32.524Zm2.4-1.488a13.9,13.9,0,0,1-1.724-4.953,24.075,24.075,0,0,0-.249-2.819c-1.232,0-.722,3.2-.448,4.407a12.159,12.159,0,0,0,2.594,5.2,20.99,20.99,0,0,0,1.837,1.714C41.592,33.845,41.176,33.717,39.579,31.037Zm.656-9.352a8.682,8.682,0,0,0,.329-2.63c-.651-.251-1.062,1.365-1.213,2-.75,3.389.837,7.642,3.158,10.376.216.263.392.589.734.706C42.549,29.395,39.742,26.513,40.234,21.685Zm0,0a8.682,8.682,0,0,0,.329-2.63c-.651-.251-1.062,1.365-1.213,2-.75,3.389.837,7.642,3.158,10.376.216.263.392.589.734.706C42.549,29.395,39.742,26.513,40.234,21.685Zm-.656,9.352a13.9,13.9,0,0,1-1.724-4.953,24.075,24.075,0,0,0-.249-2.819c-1.232,0-.722,3.2-.448,4.407a12.159,12.159,0,0,0,2.594,5.2,20.99,20.99,0,0,0,1.837,1.714C41.592,33.845,41.176,33.717,39.579,31.037Zm-2.4,1.488A11.057,11.057,0,0,1,34.763,26.8c-.039-.4-.061-1.109-.355-1.153-.7.21-.6,1.428-.515,2.159,1,4.719,4.965,8.1,6.9,8.528C40.8,36.333,38.446,34.058,37.174,32.524Zm0,0A11.057,11.057,0,0,1,34.763,26.8c-.039-.4-.061-1.109-.355-1.153-.7.21-.6,1.428-.515,2.159,1,4.719,4.965,8.1,6.9,8.528C40.8,36.333,38.446,34.058,37.174,32.524Zm2.4-1.488a13.9,13.9,0,0,1-1.724-4.953,24.075,24.075,0,0,0-.249-2.819c-1.232,0-.722,3.2-.448,4.407a12.159,12.159,0,0,0,2.594,5.2,20.99,20.99,0,0,0,1.837,1.714C41.592,33.845,41.176,33.717,39.579,31.037Zm.656-9.352a8.682,8.682,0,0,0,.329-2.63c-.651-.251-1.062,1.365-1.213,2-.75,3.389.837,7.642,3.158,10.376.216.263.392.589.734.706C42.549,29.395,39.742,26.513,40.234,21.685Zm0,0a8.682,8.682,0,0,0,.329-2.63c-.651-.251-1.062,1.365-1.213,2-.75,3.389.837,7.642,3.158,10.376.216.263.392.589.734.706C42.549,29.395,39.742,26.513,40.234,21.685Zm-2.379,4.4a24.075,24.075,0,0,0-.249-2.819c-1.232,0-.722,3.2-.448,4.407a12.159,12.159,0,0,0,2.594,5.2,20.99,20.99,0,0,0,1.837,1.714c0-.737-.413-.865-2.011-3.545A13.9,13.9,0,0,1,37.855,26.084Zm-.681,6.44A11.057,11.057,0,0,1,34.763,26.8c-.039-.4-.061-1.109-.355-1.153-.7.21-.6,1.428-.515,2.159,1,4.719,4.965,8.1,6.9,8.528C40.8,36.333,38.446,34.058,37.174,32.524ZM78.528,4.465A7.247,7.247,0,0,0,76.193.806C74.251-.633,71.117-.456,69.162,3.931a59.33,59.33,0,0,0-20.029,3.8C49,7.8,28.755,3.023,11.721,11.589c-2.271,1.2-7.063,4.075-8.2,6.379-.706,1.458-.279,1.785,1.361,2.053C20.728,21.679,23.421,26.239,23,26.855c-.454.9-.985,1.771-1.413,2.688A24.952,24.952,0,0,0,20.179,33.4c-.295,1.045-.575,2.094-.769,3.163C12.272,39.93,3.551,46.856.691,54.033-.4,57.071-.07,57.716.773,58.11a3.666,3.666,0,0,0,3.065-.4c2.348-1.166,4.7-2.315,7.121-3.33a30.089,30.089,0,0,1,9.648-2.244C24.428,63,37.213,73.672,46.936,79.7c0,0,1.967,6.889,4.423,10,.966,1.177,2.6,2,2.638,1.114a36.824,36.824,0,0,1-.5-7.475,71.7,71.7,0,0,0,8.7,3.775c-1.922,6.97,8.178,17.228,13.367,20.734,2.7,1.672,3.09.188,2.844-.3-.274-.585-4.956-8.386-5.482-14.32a10.79,10.79,0,0,0-.542-3.134c1.508-.54,2.52-1.863,3.719-2.858,2.009-1.614,4.075-3.158,6.089-4.765.563-.432,1.24-.685,1.806-1.111.3-.67-.178-1.256-.695-1.625a7.089,7.089,0,0,0,2.507.477,2.082,2.082,0,0,0,1.106-.436c.117-.082.5-.572,1.144-1.228.028-.028.057-.058.087-.087s.058-.058.088-.088c.334-.328.728-.689,1.183-1.057.249-.2.517-.4.8-.605q.106-.076.217-.151.333-.225.7-.443c.323-.194.663-.381,1.024-.558.12-.058.243-.117.367-.173q.373-.17.771-.321t.821-.284a2.807,2.807,0,0,0,.318-.095,2.635,2.635,0,0,0,.276-.121,1.76,1.76,0,0,0,.334-.222c.032-.027.061-.055.09-.084a.989.989,0,0,0-.287-1.662c-4.793-2.632-18.991-.176-28.628,9.533-1.4-1.592-2.69-3.267-3.972-4.948.893-.411,1.166-.733,5.071-1.276.367-.025.429-.542.154-.734-1.084-1.114-4.256-2.2-8.221-2.305-5.08-7.757-3.276-15.948.107-19.126.734-.069,7.872,3.411,10.454,5.718,1.031.821,1.845,1.96,3.1,2.463,1.027.459,2.015.025,2.03-2.175a13.626,13.626,0,0,0-1.465-5.581c7.393-1.142,8.246-6.142,4.671-12.792a9.429,9.429,0,0,0,5.222-4.6c.132-.058,10.446-.975,17.615-7.787,2.586-2.345,5.681-6.5,5.681-10.017C107.052,11,86.408,5.833,78.528,4.465ZM7.381,19.008c-2.3-.284-3,.084-.706-2.531C11.4,11.759,21.836,9.611,26.5,8.652a55.159,55.159,0,0,1,19.446.359c-8.826,3.977-15.6,8.213-21.556,15.849C20.646,20.668,13.04,19.334,7.381,19.008ZM65.725,75.15a10.409,10.409,0,0,0-3.969,1.355c-.63-.886-1.28-1.759-1.864-2.674A16.409,16.409,0,0,1,65.725,75.15ZM73.493,58.2c.206,1.32.537,3.293-.454,2.4a23.548,23.548,0,0,1-1.722-1.713,19.864,19.864,0,0,0-2.794-2.23,34.392,34.392,0,0,0-7.85-4.143,6.708,6.708,0,0,1,1.708-1.164,1.215,1.215,0,0,1,.49.233,15.826,15.826,0,0,0,8.922,2.7.373.373,0,0,1,.435.243A11.91,11.91,0,0,1,73.493,58.2ZM101.75,26.039a30.789,30.789,0,0,1-8.01,6.3C85.709,36.5,76.6,36.643,69.467,31.22A22.876,22.876,0,0,1,64.636,26.5a11.206,11.206,0,0,1-2.143-4.524,2.353,2.353,0,0,1,.788-2.524c.419-.366.917.091,1.382-.043a.734.734,0,0,0,.03-1.171,3.458,3.458,0,0,0-2.294-.389c-3.4.495-5.167,3.207-3.7,2.436a13,13,0,0,1,2.474-.777c-1.488,1.354-4.653,5.963-4.417,12.57a23.54,23.54,0,0,0,.893,5.178,15.969,15.969,0,0,0,2.6,5.175,17.055,17.055,0,0,0,4.767,4.362,15.333,15.333,0,0,0,1.9,1.034c.109.049.217.1.328.142q.485.206.986.367c.134.043.268.084.4.123q.177.05.355.095c.033.008.066.017.1.024.106.025.213.049.318.071.025.006.052.011.077.016.186.038.372.069.559.095.017,0,.035.006.052.008a8.617,8.617,0,0,0,.923.079,8.359,8.359,0,0,0,1.456-.072c.082-.017.169-.038.258-.063.022-.006.044-.011.066-.019a.131.131,0,0,0,.024-.006c.016,0,.032-.008.047-.013l.035-.009.02-.006v0c.028-.006.057-.016.087-.025.063-.019.128-.041.194-.063.038-.013.077-.025.115-.039.123-.043.249-.09.377-.14.321-.124.654-.273.983-.438a9.181,9.181,0,0,0,1.631-1.024c.077-.063.15-.126.221-.191l.136-.128a1.9,1.9,0,0,0,.635-1.117c-.422-.093-.723.227-1.029.46a7.527,7.527,0,0,0,.228-3.961c.106-.178.323-.183.5-.236,1.4,2.644,2.747,6.751.665,9.188-2.063,2.42-6.182,2.173-9.291,1.384-5.123-1.354-8.961-4.861-9.97-5.67-1.125-.9-2.279-1.776-3.333-2.765a12.57,12.57,0,0,0-1.987-1.361c.487,1.629,6.016,6.3,7.715,7.57a12.75,12.75,0,0,0-4.641,5.038,19.6,19.6,0,0,0-.906,2.148c-.055.156-.109.312-.158.468s-.1.31-.142.466-.087.309-.126.462-.077.309-.112.462-.068.3-.1.457a15.113,15.113,0,0,0-.268,3.6c.006.153.016.3.027.455.017.227.039.455.066.682,0,.028.006.057.009.084.027.211.057.421.09.632l.019.113a18.039,18.039,0,0,0,.4,1.773,22.393,22.393,0,0,0,.982,2.8c.115.279.238.556.366.834q.168.362.345.726c.476.969,1.01,1.941,1.592,2.923a54.832,54.832,0,0,0,7.628,9.439c1.943,1.839,1.6,3.2-.115,2.75-2.129-.755-7.589-4.1-13.293-8.668a48.426,48.426,0,0,1-4.976-4.954,31.589,31.589,0,0,1-4.3-6.147,28.227,28.227,0,0,1-2.624-5.98,29.393,29.393,0,0,1-1.155-10.714A38.577,38.577,0,0,1,45.45,31.289a61.076,61.076,0,0,1,3.8-5.457,37.348,37.348,0,0,1,5.4-5.72c3.09-2.463,6.142-4.626,9.992-3.777,3.111.588,5.258,2.474,6.549,3.222a9.255,9.255,0,0,0,4.827,1.369c3.175.1,6.234-.865,9.261-1.691,1.618-.441,3.2-1.02,4.825-1.431C99.5,15.207,109.9,15.869,101.75,26.039Zm-8.92-9.807a62.7,62.7,0,0,0-7.546,2.041c-3.607.977-7.917,2.474-11.741,1.376l-.173-.052c-.057-.019-.113-.038-.17-.058-.113-.039-.224-.082-.334-.128s-.219-.093-.326-.145-.219-.106-.326-.162c-.189-.1-.373-.206-.556-.315-.222-.134-.441-.274-.659-.418-.241-.159-.481-.321-.722-.482-.128-.087-.255-.17-.383-.254l-.1-.065c-.071-.046-.142-.091-.213-.136s-.139-.087-.208-.128c-.035-.022-.068-.043-.1-.061-.057-.035-.113-.068-.172-.1-5.649-3.408-9.713-1.678-13.681,1.344a33.793,33.793,0,0,0-3.793,3.358A57.2,57.2,0,0,0,41.389,37.3,45.521,45.521,0,0,0,38.973,46a39.975,39.975,0,0,0-.444,5,37.554,37.554,0,0,0,.392,6.35,29.968,29.968,0,0,0,3.519,9.607,38.192,38.192,0,0,0,8.208,10.077c1.729,1.606,3.683,2.936,5.521,4.4a49.378,49.378,0,0,0,4.3,2.852l.492.265.465.255.058.032L61.77,85q.343.191.652.369l.3.173.292.167c.238.136.46.263.673.383l.247.139.12.066c.079.044.156.085.233.126l.221.117s0,0,0,0c.024.013.047.024.071.035l.14.069c.107.054.211.1.312.148.05.024.1.044.151.065s.1.041.145.06l.107.041.036.013c.047.017.093.033.14.047a.056.056,0,0,0,.017.006c.039.013.079.025.12.036a3,3,0,0,0,.525.1c.038,0,.074.008.11.009h0c.047,0,.1,0,.143,0,.03,0,.06,0,.09,0,2.022-.18,1.888-2.019.7-3.768C79.606,71.439,91.047,72.054,94.1,73.529c-8.507,3.393-7.252,4.527-8.563,5.466-.812.063-2.969-.807-5.55-.255-1.02.266,1.817,1.01,2.884,1.85a46.077,46.077,0,0,0-6.429,4.6c-1.579,1.292-3.208,2.526-4.819,3.776a7.425,7.425,0,0,1-2.239.789c-.151.072-.6.014-.473.3.722.452,1.576-.032,2.351.2A33.168,33.168,0,0,0,76.659,106.9c-3.93-2.208-13.767-11.867-12.987-19.319a17.81,17.81,0,0,0,3.01.652,3.814,3.814,0,0,0-1.289-.761c-.183-.082-.366-.164-.548-.244-1.374-.615-2.748-1.226-4.1-1.894l-.02-.011-.076-.039-.052-.028c-.041-.022-.09-.049-.148-.079l-.151-.08-.027-.014-.176-.093c-.013-.008-.025-.014-.038-.02l-.2-.1-.128-.068c-.044-.022-.088-.046-.134-.071s-.093-.049-.14-.074l-.227-.121-.072-.038-.158-.084-.5-.265-2.039-1.081-.381-.2-.189-.1-.188-.1-.232-.123-.228-.121c-.151-.08-.3-.158-.443-.235L54.469,82c-.165-.087-.323-.172-.473-.251l-.288-.153-.134-.071c-.044-.022-.087-.046-.129-.068l-.235-.124c-.032-.017-.063-.033-.093-.05l-.032-.016-.05-.027a.259.259,0,0,1-.028-.016l-.09-.047c-.014-.008-.028-.014-.041-.022s-.027-.014-.039-.02l-.028-.014-.106-.057-.052-.027c-.03-.016-.055-.028-.071-.038l-.028-.014a19.009,19.009,0,0,0-.124,7.759c-3.177-3.93-3.607-8.964-4.166-10.5a1.605,1.605,0,0,0-.969-1.13c-.274.082-.336.117-.361.624C31.61,67.672,25.8,59.2,22.883,51.988a31.928,31.928,0,0,1,4.691.035c2.959.118,3.812-.345,4.812-2.45.507-1.112,1.048-2.211,1.566-3.317a11.446,11.446,0,0,1,1.96-2.66,5.527,5.527,0,0,0,1.147-1.338c-1.673-.117-3.646,2.613-4.351,3.823-.64,1.068-1.043,2.261-1.71,3.314-1.377,2.189-4.283.5-11.1,1.144-6.676.314-16.29,5.567-16.8,5.785-1.152.5-2.452,1.158-1.185-1.861,2.446-6.075,10.4-12.448,14.473-14.639,9.521-5.471,16.265-6.306,16.265-6.306-2.083-.7-9.47,1.634-11.561,2.367A24.357,24.357,0,0,1,24.562,27.6a37.684,37.684,0,0,1,6.809-7.868,56.653,56.653,0,0,1,14.492-9.056C54.77,7.056,62.783,5.741,68.6,5.9c-.276,1.224-.774,2.658-.068,6.947a8.712,8.712,0,0,0,2.591,5.063c.038.032.076.063.113.093.077.06.158.115.24.167.041.027.084.052.124.076.072.041.145.08.219.115.041.02.082.039.124.057s.063.027.095.039.065.025.1.036.08.028.12.041l.1.032.006,0c.032.009.065.017.1.025.079.02.159.036.24.052l.1.014c.027,0,.055.008.082.011s.082.009.123.013.09.006.136.008.091,0,.137,0a3.143,3.143,0,0,0,1.081-.189,5.376,5.376,0,0,0,2.463-2.048A14.839,14.839,0,0,0,78.974,6.54c3.284.038,14.626,2.885,21.629,7.034,3.5,1.965,4.007,3.166,4.549,4.437C103.088,14.739,96.611,15.584,92.829,16.231Zm-52.6,5.454a8.682,8.682,0,0,0,.329-2.63c-.651-.251-1.062,1.365-1.213,2-.75,3.389.837,7.642,3.158,10.376.216.263.392.589.734.706C42.549,29.395,39.742,26.513,40.234,21.685Zm-2.379,4.4a24.075,24.075,0,0,0-.249-2.819c-1.232,0-.722,3.2-.448,4.407a12.159,12.159,0,0,0,2.594,5.2,20.99,20.99,0,0,0,1.837,1.714c0-.737-.413-.865-2.011-3.545A13.9,13.9,0,0,1,37.855,26.084Zm-.681,6.44A11.057,11.057,0,0,1,34.763,26.8c-.039-.4-.061-1.109-.355-1.153-.7.21-.6,1.428-.515,2.159,1,4.719,4.965,8.1,6.9,8.528C40.8,36.333,38.446,34.058,37.174,32.524Zm0,0A11.057,11.057,0,0,1,34.763,26.8c-.039-.4-.061-1.109-.355-1.153-.7.21-.6,1.428-.515,2.159,1,4.719,4.965,8.1,6.9,8.528C40.8,36.333,38.446,34.058,37.174,32.524Zm2.4-1.488a13.9,13.9,0,0,1-1.724-4.953,24.075,24.075,0,0,0-.249-2.819c-1.232,0-.722,3.2-.448,4.407a12.159,12.159,0,0,0,2.594,5.2,20.99,20.99,0,0,0,1.837,1.714C41.592,33.845,41.176,33.717,39.579,31.037Zm.656-9.352a8.682,8.682,0,0,0,.329-2.63c-.651-.251-1.062,1.365-1.213,2-.75,3.389.837,7.642,3.158,10.376.216.263.392.589.734.706C42.549,29.395,39.742,26.513,40.234,21.685Zm0,0a8.682,8.682,0,0,0,.329-2.63c-.651-.251-1.062,1.365-1.213,2-.75,3.389.837,7.642,3.158,10.376.216.263.392.589.734.706C42.549,29.395,39.742,26.513,40.234,21.685Zm-.656,9.352a13.9,13.9,0,0,1-1.724-4.953,24.075,24.075,0,0,0-.249-2.819c-1.232,0-.722,3.2-.448,4.407a12.159,12.159,0,0,0,2.594,5.2,20.99,20.99,0,0,0,1.837,1.714C41.592,33.845,41.176,33.717,39.579,31.037Zm-2.4,1.488A11.057,11.057,0,0,1,34.763,26.8c-.039-.4-.061-1.109-.355-1.153-.7.21-.6,1.428-.515,2.159,1,4.719,4.965,8.1,6.9,8.528C40.8,36.333,38.446,34.058,37.174,32.524Zm0,0A11.057,11.057,0,0,1,34.763,26.8c-.039-.4-.061-1.109-.355-1.153-.7.21-.6,1.428-.515,2.159,1,4.719,4.965,8.1,6.9,8.528C40.8,36.333,38.446,34.058,37.174,32.524Zm2.4-1.488a13.9,13.9,0,0,1-1.724-4.953,24.075,24.075,0,0,0-.249-2.819c-1.232,0-.722,3.2-.448,4.407a12.159,12.159,0,0,0,2.594,5.2,20.99,20.99,0,0,0,1.837,1.714C41.592,33.845,41.176,33.717,39.579,31.037Zm.656-9.352a8.682,8.682,0,0,0,.329-2.63c-.651-.251-1.062,1.365-1.213,2-.75,3.389.837,7.642,3.158,10.376.216.263.392.589.734.706C42.549,29.395,39.742,26.513,40.234,21.685Zm0,0a8.682,8.682,0,0,0,.329-2.63c-.651-.251-1.062,1.365-1.213,2-.75,3.389.837,7.642,3.158,10.376.216.263.392.589.734.706C42.549,29.395,39.742,26.513,40.234,21.685Zm-.656,9.352a13.9,13.9,0,0,1-1.724-4.953,24.075,24.075,0,0,0-.249-2.819c-1.232,0-.722,3.2-.448,4.407a12.159,12.159,0,0,0,2.594,5.2,20.99,20.99,0,0,0,1.837,1.714C41.592,33.845,41.176,33.717,39.579,31.037Zm-2.4,1.488A11.057,11.057,0,0,1,34.763,26.8c-.039-.4-.061-1.109-.355-1.153-.7.21-.6,1.428-.515,2.159,1,4.719,4.965,8.1,6.9,8.528C40.8,36.333,38.446,34.058,37.174,32.524Z" transform="translate(0 0)"/>
      <g id="Group_490" data-name="Group 490" transform="translate(0)">
        <g id="XMLID_1_">
          <g id="Group_489" data-name="Group 489">
            <path id="Path_404" data-name="Path 404" d="M627.943,152.445a5.81,5.81,0,0,0-1.848,2.589A3.736,3.736,0,0,0,627.943,152.445Z" transform="translate(-527.438 -128.424)" fill="#fff"/>
            <path id="Path_405" data-name="Path 405" d="M585.785,143.62a2.319,2.319,0,0,0,2.052-1.164,3.244,3.244,0,0,0,.823-2.241,5.713,5.713,0,0,0-2.874,3.405Z" transform="translate(-493.48 -118.121)" fill="#fff"/>
            <path id="Path_406" data-name="Path 406" d="M461.065,264.42a1.964,1.964,0,0,0,2.3.372c.9-.531.616-3.9.408-4.877A12.054,12.054,0,0,1,461.065,264.42Z" transform="translate(-388.413 -218.959)" fill="#fff"/>
            <path id="Path_407" data-name="Path 407" d="M438.9,264.517c-.123.317.257.5.468.645.529.284,1.265.637,1.782.143a6.744,6.744,0,0,0,.265-1.622,13.318,13.318,0,0,0-.129-3.208C440.514,261.838,439.593,263.113,438.9,264.517Z" transform="translate(-369.717 -219.431)" fill="#fff"/>
            <path id="Path_408" data-name="Path 408" d="M414.786,253.387c-.085.3.14.569.321.783a2.193,2.193,0,0,0,2.453.533,18.364,18.364,0,0,1,.616-4.9,6.637,6.637,0,0,0-1.149.726A7.127,7.127,0,0,0,414.786,253.387Z" transform="translate(-349.41 -210.442)" fill="#fff"/>
            <path id="Path_409" data-name="Path 409" d="M395.39,234.8a2.368,2.368,0,0,0-.758,1.82,2.03,2.03,0,0,0,2.751,1.45c.052-.608-.044-1.223.058-1.829a29.408,29.408,0,0,1,.564-3.178A12.885,12.885,0,0,0,395.39,234.8Z" transform="translate(-332.444 -196.34)" fill="#fff"/>
            <path id="Path_410" data-name="Path 410" d="M374.61,214.874a4.111,4.111,0,0,0-.875,1.825,1.524,1.524,0,0,0,1.5,1.133,1.912,1.912,0,0,0,1.412-.381,12.088,12.088,0,0,0,.1-1.551,28.925,28.925,0,0,1,.583-3.035A4.454,4.454,0,0,0,374.61,214.874Z" transform="translate(-314.844 -179.323)" fill="#fff"/>
            <path id="Path_411" data-name="Path 411" d="M367.472,195.635a13.709,13.709,0,0,0,.495,3.441c.373-.835,1.183-1.451,1.308-2.39.186-1.013.473-2,.753-2.991A3.824,3.824,0,0,0,367.472,195.635Z" transform="translate(-309.558 -163.174)" fill="#fff"/>
            <path id="Path_412" data-name="Path 412" d="M367.214,180.247a11.5,11.5,0,0,0-.257,2.389,4.34,4.34,0,0,0,.9-.774c.044-.547.113-1.092.165-1.637C367.757,180.227,367.487,180.236,367.214,180.247Z" transform="translate(-309.133 -151.826)" fill="#fff"/>
            <path id="Path_413" data-name="Path 413" d="M385.267,138.985a10.156,10.156,0,0,0-.66,5.083,9.865,9.865,0,0,1,1.1-.794,5.325,5.325,0,0,0,.4-1.658A17.01,17.01,0,0,1,385.267,138.985Z" transform="translate(-323.909 -117.084)" fill="#fff"/>
            <path id="Path_414" data-name="Path 414" d="M396.257,166.811a17.511,17.511,0,0,0,.036,2.389,12.349,12.349,0,0,1,1.535-1.406,1.153,1.153,0,0,0,.373-1.1c-.479-.693-1.021-1.343-1.491-2.042A16.033,16.033,0,0,0,396.257,166.811Z" transform="translate(-333.795 -138.709)" fill="#fff"/>
            <path id="Path_415" data-name="Path 415" d="M411.745,187.1a7.775,7.775,0,0,0,.033,2.1,13.44,13.44,0,0,1,1.417-2.167c.021-.583,0-1.166.066-1.746-.383-.37-.755-.753-1.152-1.109A10.185,10.185,0,0,0,411.745,187.1Z" transform="translate(-346.815 -155.162)" fill="#fff"/>
            <path id="Path_416" data-name="Path 416" d="M427.367,196.015a20.656,20.656,0,0,0,.336,3.708,16.738,16.738,0,0,0,.355,1.892,25.933,25.933,0,0,1,1.308-2.477,3.3,3.3,0,0,0,.367-1.267C428.933,197.266,428.117,196.68,427.367,196.015Z" transform="translate(-360.017 -165.128)" fill="#fff"/>
            <path id="Path_417" data-name="Path 417" d="M447.35,211.525a22.022,22.022,0,0,0,.258,5.041,24.906,24.906,0,0,1,2.464-3.492A29.751,29.751,0,0,1,447.35,211.525Z" transform="translate(-376.835 -178.194)" fill="#fff"/>
            <path id="Path_418" data-name="Path 418" d="M468.561,223.765c0,1.486-.339,2.95-.313,4.437a11.666,11.666,0,0,0,3.769-3.418A11.161,11.161,0,0,1,468.561,223.765Z" transform="translate(-394.462 -188.505)" fill="#fff"/>
            <path id="Path_419" data-name="Path 419" d="M490.989,230.715a10.693,10.693,0,0,1-1.124,4.327,9.365,9.365,0,0,0,4.705-4A21.147,21.147,0,0,1,490.989,230.715Z" transform="translate(-412.674 -194.36)" fill="#fff"/>
            <path id="Path_420" data-name="Path 420" d="M439.887,18.36a16.893,16.893,0,0,0-.009,5.049,7.555,7.555,0,0,1,.9-3.845c1.056-1.667,2.762-1.439,3.805.35a8.188,8.188,0,0,1,.974,4.136c-.66.247-1.691.695-2.321,1.013.744-.049,1.658-.131,2.286-.236a6.128,6.128,0,0,1-1.249,3.207,4.924,4.924,0,0,0,2.694-2.709,12.455,12.455,0,0,0,1.125-5.137,11.878,11.878,0,0,0-1.538-6.479c-.534-.8-1.319-1.68-2.378-1.577a3.194,3.194,0,0,0-2.258,1.434A10.862,10.862,0,0,0,439.887,18.36Z" transform="translate(-370.407 -10.213)" fill="#fff"/>
            <path id="Path_421" data-name="Path 421" d="M452.171,308.4a8.529,8.529,0,0,1-1.456.074,8.342,8.342,0,0,0,1.456-.073,6.661,6.661,0,0,0,.731-.206A6.984,6.984,0,0,1,452.171,308.4Z" transform="translate(-379.694 -259.63)" fill="#fff"/>
            <path id="Path_422" data-name="Path 422" d="M78.528,4.465A7.247,7.247,0,0,0,76.193.806C74.251-.633,71.117-.456,69.162,3.931a59.33,59.33,0,0,0-20.029,3.8C49,7.8,28.755,3.023,11.721,11.589c-2.271,1.2-7.063,4.075-8.2,6.379-.706,1.458-.279,1.785,1.361,2.053C20.728,21.679,23.421,26.239,23,26.855c-.454.9-.985,1.771-1.413,2.688A24.952,24.952,0,0,0,20.179,33.4c-.295,1.045-.575,2.094-.769,3.163C12.272,39.93,3.551,46.856.691,54.033-.4,57.071-.07,57.716.773,58.11a3.666,3.666,0,0,0,3.065-.4c2.348-1.166,4.7-2.315,7.121-3.33a30.089,30.089,0,0,1,9.648-2.244C24.428,63,37.213,73.672,46.936,79.7c0,0,1.967,6.889,4.423,10,.966,1.177,2.6,2,2.638,1.114a36.824,36.824,0,0,1-.5-7.475,71.7,71.7,0,0,0,8.7,3.775c-1.922,6.97,8.178,17.228,13.367,20.734,2.7,1.672,3.09.188,2.844-.3-.274-.585-4.956-8.386-5.482-14.32a10.79,10.79,0,0,0-.542-3.134c1.508-.54,2.52-1.863,3.719-2.858,2.009-1.614,4.075-3.158,6.089-4.765.563-.432,1.24-.685,1.806-1.111.3-.67-.178-1.256-.695-1.625a7.089,7.089,0,0,0,2.507.477,2.082,2.082,0,0,0,1.106-.436c.117-.082.5-.572,1.144-1.228.028-.028.057-.058.087-.087s.058-.058.088-.088c.334-.328.728-.689,1.183-1.057.249-.2.517-.4.8-.605q.106-.076.217-.151.333-.225.7-.443c.323-.194.663-.381,1.024-.558.12-.058.243-.117.367-.173q.373-.17.771-.321t.821-.284a2.807,2.807,0,0,0,.318-.095,2.635,2.635,0,0,0,.276-.121,1.76,1.76,0,0,0,.334-.222c.032-.027.061-.055.09-.084a.989.989,0,0,0-.287-1.662c-4.793-2.632-18.991-.176-28.628,9.533-1.4-1.592-2.69-3.267-3.972-4.948.893-.411,1.166-.733,5.071-1.276.367-.025.429-.542.154-.734-1.084-1.114-4.256-2.2-8.221-2.305-5.08-7.757-3.276-15.948.107-19.126.734-.069,7.872,3.411,10.454,5.718,1.031.821,1.845,1.96,3.1,2.463,1.027.459,2.015.025,2.03-2.175a13.626,13.626,0,0,0-1.465-5.581c7.393-1.142,8.246-6.142,4.671-12.792a9.429,9.429,0,0,0,5.222-4.6c.132-.058,10.446-.975,17.615-7.787,2.586-2.345,5.681-6.5,5.681-10.017C107.052,11,86.408,5.833,78.528,4.465ZM69.48,8.148a10.861,10.861,0,0,1,2.03-4.8,3.193,3.193,0,0,1,2.258-1.434c1.059-.1,1.844.778,2.378,1.577a11.877,11.877,0,0,1,1.538,6.479,12.452,12.452,0,0,1-1.125,5.137,4.924,4.924,0,0,1-2.695,2.709,6.128,6.128,0,0,0,1.25-3.207c-.629.106-1.543.188-2.286.236.63-.318,1.661-.766,2.321-1.013A8.188,8.188,0,0,0,74.174,9.7a4.27,4.27,0,0,0-.337-.5,3.5,3.5,0,0,0-.244-.276,2.745,2.745,0,0,0-.386-.331c-.044-.032-.09-.06-.134-.088s-.09-.052-.135-.076-.077-.039-.117-.055l-.049-.02a.846.846,0,0,0-.08-.032h0a.4.4,0,0,0-.057-.019l0,0c-.035-.013-.071-.022-.107-.032s-.082-.019-.121-.027a.009.009,0,0,1-.006,0l-.055-.006a.49.49,0,0,0-.069-.009h0a.235.235,0,0,0-.033,0l-.017,0c-.038,0-.074,0-.112,0s-.079,0-.118,0-.079.006-.118.013l-.087.016a.252.252,0,0,0-.033.008l-.022,0c-.03.006-.06.014-.091.024s-.076.024-.115.039-.076.03-.113.047-.066.032-.1.049-.084.047-.124.074a.977.977,0,0,0-.084.057l-.044.032a.51.51,0,0,0-.049.038c-.022.016-.043.033-.063.05s-.057.049-.084.074-.052.049-.077.076l-.027.027a2.644,2.644,0,0,0-.2.23,3.209,3.209,0,0,0-.188.268,7.555,7.555,0,0,0-.9,3.845A16.893,16.893,0,0,1,69.48,8.148Zm-62.1,10.86c-2.3-.284-3,.084-.706-2.531C11.4,11.759,21.836,9.611,26.5,8.652a55.159,55.159,0,0,1,19.446.359c-8.826,3.977-15.6,8.213-21.556,15.849C20.646,20.668,13.04,19.334,7.381,19.008ZM65.725,75.15a10.409,10.409,0,0,0-3.969,1.355c-.63-.886-1.28-1.759-1.864-2.674A16.409,16.409,0,0,1,65.725,75.15ZM73.493,58.2c.206,1.32.537,3.293-.454,2.4a23.548,23.548,0,0,1-1.722-1.713,19.864,19.864,0,0,0-2.794-2.23,34.392,34.392,0,0,0-7.85-4.143,6.708,6.708,0,0,1,1.708-1.164,1.215,1.215,0,0,1,.49.233,15.826,15.826,0,0,0,8.922,2.7.373.373,0,0,1,.435.243A11.91,11.91,0,0,1,73.493,58.2Zm6.226-18.986a9.592,9.592,0,0,1-2.529,1.465,10.692,10.692,0,0,0,1.124-4.327,21.146,21.146,0,0,0,3.582.328A9.513,9.513,0,0,1,79.719,39.217ZM59.647,26.381c0,.058.008.117.013.175,0,.03,0,.06.008.088a.8.8,0,0,0,.009.088c0,.038.008.074.014.112s.013.091.02.137v.008c0,.013,0,.027.008.039,0,.032.011.06.017.09a.092.092,0,0,0,0,.02.006.006,0,0,1,0,0,.183.183,0,0,0,.006.028l.014.061c.006.022.011.046.017.068,0,0,0,0,0,.008.006.025.013.05.02.076l.014.044c.006.025.016.049.024.072s.017.047.025.071l.009.024a.412.412,0,0,0,.016.039c.017.043.035.082.054.123.028.06.06.12.095.178a.575.575,0,0,0,.621.232,7.552,7.552,0,0,0,.882-.857,19.212,19.212,0,0,0-.106,2.641,2.2,2.2,0,0,0-1.9-.3,6.809,6.809,0,0,1,.132-1.815c-.233-.534-.893-.479-1.374-.485a16.239,16.239,0,0,1,1.788-4.688A9.4,9.4,0,0,0,59.647,26.381Zm3.2,5.241a7.909,7.909,0,0,1,1.209-1.508,13.331,13.331,0,0,0,.148,4.874c.244.783.821.851,1.193.071.332-.706.723-1.38,1.109-2.056.066.559.734,5.257,1.434,5.1a1.627,1.627,0,0,0,.411-.588c.372-.651.788-1.273,1.21-1.892q0,.125.009.251c0,.074.006.15.013.225,0,.008,0,.016,0,.024,0,.054.006.106.011.159,0,.009,0,.02,0,.03,0,.041.008.082.011.123.013.134.027.269.043.4v0c.017.134.035.268.055.4s.043.268.066.4.05.268.077.4c.017.088.038.176.058.265.009.044.019.088.03.132l.028.123c.022.091.046.183.069.273.028.107.058.216.088.323.039.134.079.265.12.4a.372.372,0,0,0,.673.139c.794-1.1,1.508-2.244,2.26-3.369a37.982,37.982,0,0,0-.309,3.832c0,.068,0,.142,0,.217a1.433,1.433,0,0,0,.006.143c0,.019,0,.036.008.055,0,0,0,.008,0,.011,0,.02.009.041.016.061a.315.315,0,0,0,.03.076.25.25,0,0,0,.02.035.3.3,0,0,0,.063.072l.03.024a.355.355,0,0,0,.072.039A3.131,3.131,0,0,0,75,40.047a22.932,22.932,0,0,1-2.493,4.316c.009-.076.019-.153.027-.23,0-.024.006-.047.008-.071.009-.087.019-.173.025-.262,0-.009,0-.02,0-.03s0-.014,0-.022c.008-.084.013-.169.019-.252.006-.109.011-.216.016-.323,0-.017,0-.035,0-.052l0-.188c0-.085,0-.17,0-.254s0-.18,0-.268c0-.044,0-.088,0-.132s0-.115-.006-.17c0-.035,0-.068-.006-.1,0-.019,0-.036,0-.055,0-.063-.006-.124-.011-.186,0-.008,0-.016,0-.024-.006-.061-.011-.123-.017-.183-.009-.095-.019-.186-.03-.276,0-.038-.009-.076-.016-.113-.014-.106-.032-.206-.049-.3-.008-.039-.014-.079-.022-.117a.014.014,0,0,1,0-.008c-.009-.043-.019-.085-.028-.126l0-.022c-.008-.033-.016-.066-.025-.1s-.02-.077-.032-.113-.019-.066-.03-.1q-.035-.109-.076-.2c-.013-.028-.024-.057-.036-.082l0,0c-.013-.027-.027-.054-.041-.079a.628.628,0,0,0-.043-.069q-.017-.026-.033-.047a.314.314,0,0,0-.035-.043.328.328,0,0,0-.032-.035A.24.24,0,0,0,72,39.7a.17.17,0,0,0-.044-.033l-.022-.016h0a.377.377,0,0,0-.044-.02.1.1,0,0,0-.03-.009.133.133,0,0,0-.027-.006c-.181-.032-.392.113-.626.488q-1.1,1.69-2.176,3.4a13.019,13.019,0,0,1,.569-4.045c0-.024.009-.05.013-.077s.008-.055.011-.084A1.768,1.768,0,0,0,69.63,39a.7.7,0,0,0-.009-.08.613.613,0,0,0-.032-.115.293.293,0,0,0-.024-.05.433.433,0,0,0-.03-.044.2.2,0,0,0-.038-.035.183.183,0,0,0-.044-.027.152.152,0,0,0-.047-.016.02.02,0,0,0-.014,0,.02.02,0,0,0-.009,0,.2.2,0,0,0-.044,0,.378.378,0,0,0-.069.006,7.473,7.473,0,0,0-3.284,1.877,28.817,28.817,0,0,1,.128-2.88,6.508,6.508,0,0,0,.288-1.779,7.782,7.782,0,0,0-3.533,1.634,12.8,12.8,0,0,1,.375-4.147c.332-.8-1.062-1.1-2.7-.08a9.386,9.386,0,0,1,.886-3.044C61.483,30.347,62.14,33.148,62.849,31.622Zm-.388-3.52a16.031,16.031,0,0,1,.454-2.156c.47.7,1.012,1.349,1.491,2.042a1.153,1.153,0,0,1-.373,1.1A12.348,12.348,0,0,0,62.5,30.49,17.519,17.519,0,0,1,62.462,28.1Zm2.468,3.84a10.184,10.184,0,0,1,.364-2.918c.4.356.769.739,1.152,1.109-.069.58-.046,1.163-.066,1.746a13.445,13.445,0,0,0-1.417,2.167A7.773,7.773,0,0,1,64.929,31.941Zm2.42-1.054c.75.665,1.566,1.251,2.365,1.856a3.3,3.3,0,0,1-.367,1.267,25.973,25.973,0,0,0-1.308,2.477,16.681,16.681,0,0,1-.355-1.892A20.656,20.656,0,0,1,67.35,30.887Zm3.166,2.444a29.749,29.749,0,0,0,2.723,1.549,24.908,24.908,0,0,0-2.464,3.492A22.02,22.02,0,0,1,70.515,33.331Zm-.868,12.4-.036-.024-.038-.025-.08-.052a1.5,1.5,0,0,1-.178-.134.2.2,0,0,1-.027-.025.545.545,0,0,1-.041-.044.5.5,0,0,1-.035-.046.178.178,0,0,1-.019-.033l-.009-.017a.185.185,0,0,1-.014-.038.21.21,0,0,1-.008-.03v0a.067.067,0,0,1,0-.017.3.3,0,0,1,.02-.158c.7-1.4,1.617-2.679,2.386-4.042a13.321,13.321,0,0,1,.129,3.208,6.744,6.744,0,0,1-.265,1.621.831.831,0,0,1-.082.069.432.432,0,0,1-.047.033.277.277,0,0,1-.036.022c-.019.011-.038.022-.057.032a.67.67,0,0,1-.077.033h0a.507.507,0,0,1-.079.025.769.769,0,0,1-.082.019,1.024,1.024,0,0,1-.241.009c-.02,0-.041,0-.061,0l-.008,0s0,0-.009,0-.039,0-.06-.009l-.011,0a.251.251,0,0,1-.047-.009.02.02,0,0,1-.009,0c-.016,0-.032-.006-.047-.011a.067.067,0,0,1-.017,0l-.011,0c-.032-.008-.061-.016-.093-.027a.579.579,0,0,1-.074-.024c-.025-.008-.049-.017-.074-.027a.123.123,0,0,0-.022-.008c-.043-.017-.084-.033-.124-.052h0c-.1-.043-.189-.088-.277-.134Zm-4.708-4a1.679,1.679,0,0,1-.752.175q-.064,0-.128,0c-.044,0-.087-.008-.129-.014a1.514,1.514,0,0,1-.169-.032c-.057-.013-.112-.028-.167-.046L63.56,41.8c-.043-.016-.085-.032-.126-.049s-.06-.025-.09-.039-.046-.022-.068-.035-.05-.027-.076-.041c-.05-.03-.1-.06-.148-.093a1.287,1.287,0,0,1-.109-.08c-.009-.006-.02-.016-.03-.024h0c-.046-.036-.088-.074-.131-.115s-.082-.082-.121-.124q-.031-.033-.057-.066c-.02-.022-.038-.044-.055-.066v0q-.052-.069-.1-.142c-.016-.025-.032-.049-.046-.074-.028-.05-.055-.1-.08-.154-.013-.025-.024-.052-.035-.079-.022-.054-.041-.107-.058-.164a1.553,1.553,0,0,1-.043-.169,2.368,2.368,0,0,1,.758-1.82,12.885,12.885,0,0,1,2.616-1.738A29.425,29.425,0,0,0,65,39.9C64.895,40.51,64.991,41.125,64.939,41.733Zm.436,1.212a7.127,7.127,0,0,1,2.242-2.855,6.636,6.636,0,0,1,1.149-.726,18.364,18.364,0,0,0-.616,4.9,2.193,2.193,0,0,1-2.453-.533C65.515,43.514,65.29,43.249,65.375,42.945ZM61.8,26.19a9.872,9.872,0,0,0-1.1.794,10.157,10.157,0,0,1,.66-5.083,17,17,0,0,0,.843,2.632A5.324,5.324,0,0,1,61.8,26.19Zm-2.9,2.209c-.052.545-.121,1.09-.165,1.637a1.643,1.643,0,0,1-.2.222c-.035.035-.072.068-.11.1-.076.063-.154.124-.235.184-.121.09-.244.175-.361.266a11.491,11.491,0,0,1,.257-2.389C58.354,28.41,58.623,28.4,58.893,28.4Zm-.979,4.062a3.824,3.824,0,0,1,2.556-1.94c-.28.988-.567,1.978-.753,2.991-.124.939-.934,1.555-1.308,2.39A13.713,13.713,0,0,1,57.914,32.461Zm1.852,3.09a4.455,4.455,0,0,1,2.728-2.009,28.875,28.875,0,0,0-.583,3.035,12.1,12.1,0,0,1-.1,1.551,1.912,1.912,0,0,1-1.412.381,1.524,1.524,0,0,1-1.5-1.133A4.113,4.113,0,0,1,59.765,35.551Zm1.675,3.821a2.744,2.744,0,0,0,.136,1.727,2.908,2.908,0,0,0,2.832,1.669,2.135,2.135,0,0,0,.96,1.815,3.049,3.049,0,0,0,2.75.487,2.269,2.269,0,0,0,.651,1.142,4.246,4.246,0,0,0,1.22.621,2.291,2.291,0,0,0,2.386-.578,3.318,3.318,0,0,0,1.043.6,5.4,5.4,0,0,0,1.324.12,7.241,7.241,0,0,1-2.95.893,11.07,11.07,0,0,1-6.259-1.992,15.244,15.244,0,0,1-3.752-3.27,21.488,21.488,0,0,1-2.271-3.364A3.328,3.328,0,0,0,61.441,39.373Zm11.211,6.089a12.054,12.054,0,0,0,2.71-4.505c.208.974.493,4.346-.408,4.877A1.964,1.964,0,0,1,72.652,45.461ZM73.785,39.7c-.025-1.488.314-2.951.314-4.437a11.159,11.159,0,0,0,3.456,1.02A11.663,11.663,0,0,1,73.785,39.7ZM101.75,26.039a30.789,30.789,0,0,1-8.01,6.3C85.709,36.5,76.6,36.643,69.467,31.22A22.876,22.876,0,0,1,64.636,26.5a11.206,11.206,0,0,1-2.143-4.524,2.353,2.353,0,0,1,.788-2.524c.419-.366.917.091,1.382-.043a.734.734,0,0,0,.03-1.171,3.458,3.458,0,0,0-2.294-.389c-3.4.495-5.167,3.207-3.7,2.436a13,13,0,0,1,2.474-.777c-1.488,1.354-4.653,5.963-4.417,12.57a23.54,23.54,0,0,0,.893,5.178,15.969,15.969,0,0,0,2.6,5.175,17.055,17.055,0,0,0,4.767,4.362,15.333,15.333,0,0,0,1.9,1.034c.109.049.217.1.328.142q.485.206.986.367c.134.043.268.084.4.123q.177.05.355.095c.033.008.066.017.1.024.106.025.213.049.318.071.025.006.052.011.077.016.186.038.372.069.559.095.017,0,.035.006.052.008a8.617,8.617,0,0,0,.923.079,8.525,8.525,0,0,0,1.456-.074l.126-.03q.064-.014.132-.033c.022,0,.044-.011.066-.017s.047-.013.071-.02l.035-.009a.03.03,0,0,0,.016,0l0,0c.028-.006.057-.016.087-.025.063-.019.128-.041.194-.063.038-.013.077-.025.115-.039.123-.043.249-.09.377-.14.321-.124.654-.273.983-.438a9.181,9.181,0,0,0,1.631-1.024c.077-.063.15-.126.221-.191l.136-.128a1.9,1.9,0,0,0,.635-1.117c-.422-.093-.723.227-1.029.46a7.527,7.527,0,0,0,.228-3.961c.106-.178.323-.183.5-.236,1.4,2.644,2.747,6.751.665,9.188-2.063,2.42-6.182,2.173-9.291,1.384-5.123-1.354-8.961-4.861-9.97-5.67-1.125-.9-2.279-1.776-3.333-2.765a12.57,12.57,0,0,0-1.987-1.361c.487,1.629,6.016,6.3,7.715,7.57a12.75,12.75,0,0,0-4.641,5.038,19.6,19.6,0,0,0-.906,2.148c-.055.156-.109.312-.158.468s-.1.31-.142.466-.087.309-.126.462-.077.309-.112.462-.068.3-.1.457a15.113,15.113,0,0,0-.268,3.6c.006.153.016.3.027.455.017.227.039.455.066.682,0,.028.006.057.009.084.027.211.057.421.09.632l.019.113a18.039,18.039,0,0,0,.4,1.773,22.393,22.393,0,0,0,.982,2.8c.115.279.238.556.366.834q.168.362.345.726c.476.969,1.01,1.941,1.592,2.923a54.832,54.832,0,0,0,7.628,9.439c1.943,1.839,1.6,3.2-.115,2.75-2.129-.755-7.589-4.1-13.293-8.668a48.426,48.426,0,0,1-4.976-4.954,31.589,31.589,0,0,1-4.3-6.147,28.227,28.227,0,0,1-2.624-5.98,29.393,29.393,0,0,1-1.155-10.714A38.577,38.577,0,0,1,45.45,31.289a61.076,61.076,0,0,1,3.8-5.457,37.348,37.348,0,0,1,5.4-5.72c3.09-2.463,6.142-4.626,9.992-3.777,3.111.588,5.258,2.474,6.549,3.222a9.255,9.255,0,0,0,4.827,1.369c3.175.1,6.234-.865,9.261-1.691,1.618-.441,3.2-1.02,4.825-1.431C99.5,15.207,109.9,15.869,101.75,26.039Zm-8.92-9.807a62.7,62.7,0,0,0-7.546,2.041c-3.607.977-7.917,2.474-11.741,1.376l-.173-.052c-.057-.019-.113-.038-.17-.058-.113-.039-.224-.082-.334-.128s-.219-.093-.326-.145-.219-.106-.326-.162c-.188-.1-.373-.2-.556-.315-.222-.134-.441-.274-.659-.418-.241-.159-.481-.321-.722-.482-.128-.087-.255-.17-.383-.254l-.1-.065c-.071-.046-.142-.091-.213-.136s-.139-.087-.208-.128c-.035-.022-.068-.043-.1-.061-.057-.035-.113-.068-.172-.1-5.649-3.408-9.713-1.678-13.681,1.344a33.793,33.793,0,0,0-3.793,3.358A57.2,57.2,0,0,0,41.389,37.3,45.521,45.521,0,0,0,38.973,46a39.975,39.975,0,0,0-.444,5,37.554,37.554,0,0,0,.392,6.35,29.968,29.968,0,0,0,3.519,9.607,38.192,38.192,0,0,0,8.208,10.077c1.729,1.606,3.683,2.936,5.521,4.4a49.378,49.378,0,0,0,4.3,2.852l.492.265.465.255.058.032L61.77,85q.343.191.652.369l.3.173.292.167c.238.136.46.263.673.383l.247.139.12.066c.079.044.156.085.233.126l.221.117h0v0c.024.013.047.024.071.035l.14.069c.107.054.211.1.312.148.05.024.1.044.151.065s.1.041.145.06l.107.041.036.013c.047.017.093.033.14.047a.056.056,0,0,0,.017.006c.039.013.079.025.12.036a3,3,0,0,0,.525.1c.038,0,.074.008.11.009h0c.047,0,.1,0,.143,0,.03,0,.06,0,.09,0,2.022-.18,1.888-2.019.7-3.768C79.606,71.439,91.047,72.054,94.1,73.529c-8.507,3.393-7.252,4.527-8.563,5.466-.812.063-2.969-.807-5.55-.255-1.02.266,1.817,1.01,2.884,1.85a46.077,46.077,0,0,0-6.429,4.6c-1.579,1.292-3.208,2.526-4.819,3.776a7.425,7.425,0,0,1-2.239.789c-.151.072-.6.014-.473.3.722.452,1.576-.032,2.351.2A33.168,33.168,0,0,0,76.659,106.9c-3.93-2.208-13.767-11.867-12.987-19.319a17.81,17.81,0,0,0,3.01.652,3.814,3.814,0,0,0-1.289-.761c-.183-.082-.366-.164-.548-.244-1.374-.615-2.748-1.226-4.1-1.894l-.02-.011-.076-.039-.052-.028c-.041-.022-.09-.049-.148-.079l-.151-.08-.027-.014-.176-.093c-.013-.008-.025-.014-.038-.02l-.2-.1-.128-.068c-.044-.022-.088-.046-.134-.071s-.093-.049-.14-.074l-.227-.121-.072-.038-.158-.084-.5-.265-2.039-1.081-.381-.2-.189-.1-.188-.1-.232-.123-.228-.121c-.151-.08-.3-.158-.443-.235L54.469,82c-.165-.087-.323-.172-.473-.251l-.288-.153-.134-.071c-.044-.022-.087-.046-.129-.068l-.235-.124c-.032-.017-.063-.033-.093-.05l-.032-.016-.05-.027a.259.259,0,0,1-.028-.016l-.09-.047c-.014-.008-.028-.014-.041-.022s-.027-.014-.039-.02l-.028-.014-.106-.057-.052-.027c-.03-.016-.055-.028-.071-.038l-.028-.014a19.009,19.009,0,0,0-.124,7.759c-3.177-3.93-3.607-8.964-4.166-10.5a1.605,1.605,0,0,0-.969-1.13c-.274.082-.336.117-.361.624C31.61,67.672,25.8,59.2,22.883,51.988a31.928,31.928,0,0,1,4.691.035c2.959.118,3.812-.345,4.812-2.45.507-1.112,1.048-2.211,1.566-3.317a11.446,11.446,0,0,1,1.96-2.66,5.527,5.527,0,0,0,1.147-1.338c-1.673-.117-3.646,2.613-4.351,3.823-.64,1.068-1.043,2.261-1.71,3.314-1.377,2.189-4.283.5-11.1,1.144-6.676.314-16.29,5.567-16.8,5.785-1.152.5-2.452,1.158-1.185-1.861,2.446-6.075,10.4-12.448,14.473-14.639,9.521-5.471,16.265-6.306,16.265-6.306-2.083-.7-9.47,1.634-11.561,2.367A24.357,24.357,0,0,1,24.562,27.6a37.684,37.684,0,0,1,6.809-7.868,56.653,56.653,0,0,1,14.492-9.056C54.77,7.056,62.783,5.741,68.6,5.9c-.276,1.224-.774,2.658-.068,6.947a8.712,8.712,0,0,0,2.591,5.063c.038.032.076.063.113.093.077.06.158.115.24.167.041.027.084.052.124.076.072.041.145.08.219.115.041.02.082.039.124.057s.063.027.095.039.065.025.1.036.08.028.12.041l.1.032.006,0c.032.009.065.017.1.025.079.02.159.036.24.052l.1.014c.027,0,.055.008.082.011s.082.009.123.013.09.006.136.008.091,0,.137,0a3.143,3.143,0,0,0,1.081-.189,5.376,5.376,0,0,0,2.463-2.048A14.839,14.839,0,0,0,78.974,6.54c3.284.038,14.626,2.885,21.629,7.034,3.5,1.965,4.007,3.166,4.549,4.437C103.088,14.739,96.611,15.584,92.829,16.231Z" transform="translate(0 0)"/>
            <path id="Path_423" data-name="Path 423" d="M341.695,518.285l-.5-.265Zm-5.889-3.122.093.049-.093-.051Zm-.241-.128.041.021c-.014-.008-.028-.014-.041-.022Z" transform="translate(-282.688 -433.878)" fill="#fff"/>
            <path id="Path_424" data-name="Path 424" d="M221.688,173.441c-1.94-.432-5.908-3.809-6.9-8.528-.082-.731-.184-1.949.515-2.159.293.044.315.748.354,1.153a11.057,11.057,0,0,0,2.411,5.725C219.335,171.165,221.688,173.441,221.688,173.441Z" transform="translate(-180.889 -137.108)"/>
            <path id="Path_425" data-name="Path 425" d="M238.421,158.961a20.977,20.977,0,0,1-1.837-1.714,12.159,12.159,0,0,1-2.594-5.2c-.274-1.205-.785-4.407.448-4.407a24.078,24.078,0,0,1,.249,2.819,13.9,13.9,0,0,0,1.724,4.953C238.008,158.1,238.424,158.224,238.421,158.961Z" transform="translate(-196.831 -124.379)"/>
            <path id="Path_426" data-name="Path 426" d="M252.613,133.869c-.342-.117-.518-.443-.734-.706-2.321-2.734-3.908-6.987-3.158-10.376.151-.638.563-2.253,1.213-2a8.687,8.687,0,0,1-.329,2.63C249.113,128.242,251.92,131.124,252.613,133.869Z" transform="translate(-209.37 -101.73)"/>
            <path id="Path_427" data-name="Path 427" d="M371.753,143.845a16.236,16.236,0,0,0-1.788,4.688c.481.006,1.141-.049,1.374.485l.273-.082a3.686,3.686,0,0,1-.3-1.377A9.4,9.4,0,0,1,371.753,143.845Z" transform="translate(-311.668 -121.179)"/>
            <path id="Path_428" data-name="Path 428" d="M377.865,173.844a6.812,6.812,0,0,0-.132,1.815,2.2,2.2,0,0,1,1.9.3,19.228,19.228,0,0,1,.106-2.641,7.55,7.55,0,0,1-.882.857.575.575,0,0,1-.621-.232c-.035-.058-.066-.118-.095-.178Z" transform="translate(-318.193 -146.005)"/>
            <path id="Path_429" data-name="Path 429" d="M377.655,249.065a21.486,21.486,0,0,0,2.271,3.364,15.247,15.247,0,0,0,3.752,3.27,11.07,11.07,0,0,0,6.259,1.992,7.242,7.242,0,0,0,2.95-.893,5.392,5.392,0,0,1-1.324-.12,3.316,3.316,0,0,1-1.043-.6,2.29,2.29,0,0,1-2.386.578,4.246,4.246,0,0,1-1.22-.621,2.269,2.269,0,0,1-.651-1.142,3.049,3.049,0,0,1-2.75-.487,2.135,2.135,0,0,1-.96-1.815,2.908,2.908,0,0,1-2.832-1.669,2.745,2.745,0,0,1-.135-1.727A3.329,3.329,0,0,1,377.655,249.065Z" transform="translate(-318.146 -209.819)" fill="#fff"/>
            <path id="Path_430" data-name="Path 430" d="M385.111,191.206a9.384,9.384,0,0,0-.886,3.044c1.637-1.015,3.032-.719,2.7.08a12.8,12.8,0,0,0-.375,4.147,7.782,7.782,0,0,1,3.533-1.634,6.514,6.514,0,0,1-.288,1.779,28.793,28.793,0,0,0-.128,2.881,7.473,7.473,0,0,1,3.284-1.877c.227-.038.32.1.351.288l.418-.093a14.136,14.136,0,0,1-.474-3.213c-.422.619-.838,1.242-1.21,1.892a1.629,1.629,0,0,1-.411.588c-.7.161-1.368-4.537-1.434-5.1-.386.676-.777,1.35-1.109,2.056-.372.78-.949.712-1.193-.071a13.331,13.331,0,0,1-.148-4.874,7.907,7.907,0,0,0-1.209,1.508C385.821,194.14,385.164,191.338,385.111,191.206Z" transform="translate(-323.681 -160.992)"/>
            <path id="Path_431" data-name="Path 431" d="M438.636,233.629a13.012,13.012,0,0,0-.569,4.045q1.073-1.711,2.176-3.4c.583-.936,1.016-.438,1.242.643l.449-.1a1.644,1.644,0,0,1-.027-.489,38,38,0,0,1,.309-3.832c-.752,1.125-1.465,2.274-2.26,3.369a.372.372,0,0,1-.673-.139c-.076-.238-.145-.479-.208-.72l-.417.093A1.72,1.72,0,0,1,438.636,233.629Z" transform="translate(-369.037 -194.175)"/>
            <path id="Path_432" data-name="Path 432" d="M460.214,254.739l-.449.1a11.853,11.853,0,0,1,.062,3.621,22.931,22.931,0,0,0,2.493-4.316,3.131,3.131,0,0,1-1.889.84A.362.362,0,0,1,460.214,254.739Z" transform="translate(-387.317 -214.098)"/>
            <path id="Path_433" data-name="Path 433" d="M586.184,135.9a2.463,2.463,0,0,0-1.935.84,6.33,6.33,0,0,0-1.968,2.951,1,1,0,0,0,.619,1.218,2.135,2.135,0,0,0,2.045-.556,4.662,4.662,0,0,0,1.894-3.2A1.1,1.1,0,0,0,586.184,135.9Zm-1.327,2.906a2.318,2.318,0,0,1-2.052,1.164,5.712,5.712,0,0,1,2.874-3.405A3.243,3.243,0,0,1,584.858,138.809Z" transform="translate(-490.501 -114.474)"/>
            <path id="Path_434" data-name="Path 434" d="M626.42,148.7c-.272-.165-.586.031-.805.2a5.781,5.781,0,0,0-1.648,2.32c-.133.356-.2.876.19,1.1a1.125,1.125,0,0,0,1.056-.252,4.269,4.269,0,0,0,1.448-2C626.795,149.624,626.871,148.993,626.42,148.7Zm-2.2,3.126a5.81,5.81,0,0,1,1.848-2.589A3.736,3.736,0,0,1,624.215,151.827Z" transform="translate(-525.558 -125.217)"/>
          </g>
        </g>
      </g>
      <g id="Group_494" data-name="Group 494" transform="translate(0)">
        <g id="Group_491" data-name="Group 491">
          <path id="Path_435" data-name="Path 435" d="M78.528,4.465A7.247,7.247,0,0,0,76.193.806C74.251-.633,71.117-.456,69.162,3.931a59.33,59.33,0,0,0-20.029,3.8C49,7.8,28.755,3.023,11.721,11.589c-2.271,1.2-7.063,4.075-8.2,6.379-.706,1.458-.279,1.785,1.361,2.053C20.728,21.679,23.421,26.239,23,26.855c-.454.9-.985,1.771-1.413,2.688A24.952,24.952,0,0,0,20.179,33.4c-.295,1.045-.575,2.094-.769,3.163C12.272,39.93,3.551,46.856.691,54.033-.4,57.071-.07,57.716.773,58.11a3.666,3.666,0,0,0,3.065-.4c2.348-1.166,4.7-2.315,7.121-3.33a30.089,30.089,0,0,1,9.648-2.244C24.428,63,37.213,73.672,46.936,79.7c0,0,1.967,6.889,4.423,10,.966,1.177,2.6,2,2.638,1.114a36.824,36.824,0,0,1-.5-7.475,71.7,71.7,0,0,0,8.7,3.775c-1.922,6.97,8.178,17.228,13.367,20.734,2.7,1.672,3.09.188,2.844-.3-.274-.585-4.956-8.386-5.482-14.32a10.79,10.79,0,0,0-.542-3.134c1.508-.54,2.52-1.863,3.719-2.858,2.009-1.614,4.075-3.158,6.089-4.765.563-.432,1.24-.685,1.806-1.111.3-.67-.178-1.256-.695-1.625a7.089,7.089,0,0,0,2.507.477,2.082,2.082,0,0,0,1.106-.436c.117-.082.5-.572,1.144-1.228.028-.028.057-.058.087-.087s.058-.058.088-.088c.334-.328.728-.689,1.183-1.057.249-.2.517-.4.8-.605q.106-.076.217-.151.333-.225.7-.443c.323-.194.663-.381,1.024-.558.12-.058.243-.117.367-.173q.373-.168.771-.321t.821-.282a2.517,2.517,0,0,0,.318-.1,2.107,2.107,0,0,0,.276-.121,1.76,1.76,0,0,0,.334-.222c.032-.027.061-.055.09-.084a.989.989,0,0,0-.287-1.662c-4.793-2.632-18.991-.176-28.628,9.533-1.4-1.592-2.69-3.267-3.972-4.948.893-.411,1.166-.733,5.071-1.276.367-.025.429-.542.154-.734-1.084-1.114-4.256-2.2-8.221-2.305-5.08-7.757-3.276-15.948.107-19.126.734-.069,7.872,3.411,10.454,5.718,1.031.821,1.845,1.96,3.1,2.463,1.027.459,2.015.025,2.03-2.175a13.626,13.626,0,0,0-1.465-5.581c7.393-1.142,8.246-6.142,4.671-12.792a9.429,9.429,0,0,0,5.222-4.6c.132-.058,10.446-.975,17.615-7.787,2.586-2.345,5.681-6.5,5.681-10.017C107.052,11,86.408,5.833,78.528,4.465ZM69.48,8.148a10.861,10.861,0,0,1,2.03-4.8,3.193,3.193,0,0,1,2.258-1.434c1.059-.1,1.844.778,2.378,1.577a11.877,11.877,0,0,1,1.538,6.479,12.452,12.452,0,0,1-1.125,5.137,4.924,4.924,0,0,1-2.695,2.709,6.128,6.128,0,0,0,1.25-3.207c-.629.106-1.543.188-2.286.236.63-.318,1.661-.766,2.321-1.013A8.188,8.188,0,0,0,74.174,9.7a4.27,4.27,0,0,0-.337-.5,3.5,3.5,0,0,0-.244-.276,2.745,2.745,0,0,0-.386-.331,2.415,2.415,0,0,0-.269-.164c-.039-.02-.077-.039-.117-.055l-.049-.02a.846.846,0,0,0-.08-.032h0a.4.4,0,0,0-.057-.019l0,0c-.035-.013-.071-.022-.107-.032s-.082-.019-.121-.027a.009.009,0,0,1-.006,0l-.055-.006a.49.49,0,0,0-.069-.009h0a.235.235,0,0,0-.033,0l-.017,0c-.038,0-.074,0-.112,0s-.079,0-.118,0-.079.006-.118.013l-.087.016a.252.252,0,0,0-.033.008l-.022,0c-.03.006-.06.014-.091.024s-.076.024-.115.039-.076.03-.113.047-.066.032-.1.049-.084.047-.124.074a.977.977,0,0,0-.084.057l-.044.032a.51.51,0,0,0-.049.038c-.022.016-.043.033-.063.05s-.057.049-.084.074-.052.049-.077.076l-.027.027a2.644,2.644,0,0,0-.2.23,3.209,3.209,0,0,0-.188.268,7.555,7.555,0,0,0-.9,3.845A16.893,16.893,0,0,1,69.48,8.148Zm-62.1,10.86c-2.3-.284-3,.084-.706-2.531C11.4,11.759,21.836,9.611,26.5,8.652a55.159,55.159,0,0,1,19.446.359c-8.826,3.977-15.6,8.213-21.556,15.849C20.646,20.668,13.04,19.334,7.381,19.008ZM65.725,75.15a10.409,10.409,0,0,0-3.969,1.355c-.63-.886-1.28-1.759-1.864-2.674A16.409,16.409,0,0,1,65.725,75.15ZM73.493,58.2c.206,1.32.537,3.293-.454,2.4a23.548,23.548,0,0,1-1.722-1.713,19.864,19.864,0,0,0-2.794-2.23,34.392,34.392,0,0,0-7.85-4.143,6.708,6.708,0,0,1,1.708-1.164,1.215,1.215,0,0,1,.49.233,15.826,15.826,0,0,0,8.922,2.7.373.373,0,0,1,.435.243A11.91,11.91,0,0,1,73.493,58.2Zm6.226-18.986a9.592,9.592,0,0,1-2.529,1.465,10.692,10.692,0,0,0,1.124-4.327,21.146,21.146,0,0,0,3.582.328A9.513,9.513,0,0,1,79.719,39.217ZM71.79,47.872a11.07,11.07,0,0,1-6.259-1.992,15.244,15.244,0,0,1-3.752-3.27,21.488,21.488,0,0,1-2.271-3.364,3.328,3.328,0,0,0,1.932.126,2.744,2.744,0,0,0,.136,1.727,2.908,2.908,0,0,0,2.832,1.669,2.135,2.135,0,0,0,.96,1.815,3.049,3.049,0,0,0,2.75.487,2.269,2.269,0,0,0,.651,1.142,4.246,4.246,0,0,0,1.22.621,2.291,2.291,0,0,0,2.386-.578,3.318,3.318,0,0,0,1.043.6,5.4,5.4,0,0,0,1.324.12A7.241,7.241,0,0,1,71.79,47.872ZM59.647,26.381c0,.058.008.117.013.175,0,.03,0,.06.008.088a.8.8,0,0,0,.009.088c0,.038.008.074.014.112s.013.091.02.137v.008c0,.013,0,.027.008.039,0,.032.011.06.017.09a.092.092,0,0,0,0,.02.006.006,0,0,1,0,0,.183.183,0,0,0,.006.028l.014.061c.006.022.011.046.017.068,0,0,0,0,0,.008.006.025.013.05.02.076l.014.044c.006.025.016.049.024.072s.017.047.025.071l.009.024a.412.412,0,0,0,.016.039c.017.043.035.082.054.123.028.06.06.12.095.178a.575.575,0,0,0,.621.232,7.552,7.552,0,0,0,.882-.857,19.212,19.212,0,0,0-.106,2.641,2.2,2.2,0,0,0-1.9-.3,6.809,6.809,0,0,1,.132-1.815c-.233-.534-.893-.479-1.374-.485a16.239,16.239,0,0,1,1.788-4.688A9.4,9.4,0,0,0,59.647,26.381Zm3.2,5.241a7.909,7.909,0,0,1,1.209-1.508,13.331,13.331,0,0,0,.148,4.874c.244.783.821.851,1.193.071.332-.706.723-1.38,1.109-2.056.066.559.734,5.257,1.434,5.1a1.627,1.627,0,0,0,.411-.588c.372-.651.788-1.273,1.21-1.892q0,.125.009.251c0,.074.006.15.013.225,0,.008,0,.016,0,.024,0,.054.006.106.011.159,0,.009,0,.02,0,.03,0,.041.008.082.011.123.013.134.027.269.043.4v0c.017.134.035.268.055.4s.043.268.066.4.05.268.077.4c.017.088.038.176.058.265.009.044.019.088.03.132l.028.123c.022.091.046.183.069.273.028.107.058.216.088.323.039.134.079.265.12.4a.372.372,0,0,0,.673.139c.794-1.1,1.508-2.244,2.26-3.369a37.982,37.982,0,0,0-.309,3.832c0,.068,0,.142,0,.217a1.433,1.433,0,0,0,.006.143c0,.019,0,.036.008.055,0,0,0,.008,0,.011,0,.02.009.041.016.061a.315.315,0,0,0,.03.076.25.25,0,0,0,.02.035.3.3,0,0,0,.063.072l.03.024a.355.355,0,0,0,.072.039A3.131,3.131,0,0,0,75,40.047a22.932,22.932,0,0,1-2.493,4.316c.009-.076.019-.153.027-.23,0-.024.006-.047.008-.071.009-.087.019-.173.025-.262,0-.009,0-.02,0-.03s0-.014,0-.022c.008-.084.013-.169.019-.252.006-.109.011-.216.016-.323,0-.017,0-.035,0-.052l0-.188c0-.085,0-.17,0-.254s0-.18,0-.268c0-.044,0-.088,0-.132s0-.115-.006-.17c0-.035,0-.068-.006-.1,0-.019,0-.036,0-.055,0-.063-.006-.124-.011-.186,0-.008,0-.016,0-.024-.006-.061-.011-.123-.017-.183-.009-.095-.019-.186-.03-.276,0-.038-.009-.076-.016-.113-.014-.106-.032-.206-.049-.3-.008-.039-.014-.079-.022-.117a.014.014,0,0,1,0-.008c-.009-.043-.019-.085-.028-.126l0-.022c-.008-.033-.016-.066-.025-.1s-.02-.077-.032-.113-.019-.066-.03-.1q-.035-.109-.076-.2c-.013-.028-.024-.057-.036-.082l0,0c-.013-.027-.027-.054-.041-.079a.628.628,0,0,0-.043-.069q-.017-.026-.033-.047a.314.314,0,0,0-.035-.043.328.328,0,0,0-.032-.035A.24.24,0,0,0,72,39.7a.17.17,0,0,0-.044-.033l-.022-.016h0a.377.377,0,0,0-.044-.02.1.1,0,0,0-.03-.009.133.133,0,0,0-.027-.006c-.181-.032-.392.113-.626.488q-1.1,1.69-2.176,3.4a13.019,13.019,0,0,1,.569-4.045c0-.024.009-.05.013-.077s.008-.055.011-.084A1.768,1.768,0,0,0,69.63,39a.7.7,0,0,0-.009-.08.613.613,0,0,0-.032-.115.293.293,0,0,0-.024-.05.433.433,0,0,0-.03-.044.2.2,0,0,0-.038-.035.183.183,0,0,0-.044-.027.152.152,0,0,0-.047-.016.02.02,0,0,0-.014,0,.02.02,0,0,0-.009,0,.2.2,0,0,0-.044,0,.378.378,0,0,0-.069.006,7.473,7.473,0,0,0-3.284,1.877,28.817,28.817,0,0,1,.128-2.88,6.508,6.508,0,0,0,.288-1.779,7.782,7.782,0,0,0-3.533,1.634,12.8,12.8,0,0,1,.375-4.147c.332-.8-1.062-1.1-2.7-.08a9.386,9.386,0,0,1,.886-3.044C61.483,30.347,62.14,33.148,62.849,31.622Zm-.388-3.52a16.031,16.031,0,0,1,.454-2.156c.47.7,1.012,1.349,1.491,2.042a1.153,1.153,0,0,1-.373,1.1A12.348,12.348,0,0,0,62.5,30.49,17.519,17.519,0,0,1,62.462,28.1Zm2.468,3.84a10.184,10.184,0,0,1,.364-2.918c.4.356.769.739,1.152,1.109-.069.58-.046,1.163-.066,1.746a13.445,13.445,0,0,0-1.417,2.167A7.773,7.773,0,0,1,64.929,31.941Zm2.42-1.054c.75.665,1.566,1.251,2.365,1.856a3.3,3.3,0,0,1-.367,1.267,25.973,25.973,0,0,0-1.308,2.477,16.681,16.681,0,0,1-.355-1.892A20.656,20.656,0,0,1,67.35,30.887Zm3.166,2.444a29.749,29.749,0,0,0,2.723,1.549,24.908,24.908,0,0,0-2.464,3.492A22.02,22.02,0,0,1,70.515,33.331ZM69.159,45.244a.3.3,0,0,1,.02-.158c.7-1.4,1.617-2.679,2.386-4.042a13.322,13.322,0,0,1,.129,3.208,6.744,6.744,0,0,1-.265,1.621.833.833,0,0,1-.082.069.431.431,0,0,1-.047.033.278.278,0,0,1-.036.022c-.019.011-.038.022-.057.032a.671.671,0,0,1-.077.033h0a.507.507,0,0,1-.079.025.769.769,0,0,1-.082.019,1.024,1.024,0,0,1-.241.009c-.02,0-.041,0-.061,0l-.008,0s0,0-.009,0-.039,0-.06-.009l-.011,0a.251.251,0,0,1-.047-.009.02.02,0,0,1-.009,0c-.016,0-.032-.006-.047-.011a.067.067,0,0,1-.017,0l-.011,0c-.032-.008-.061-.016-.093-.027a.581.581,0,0,1-.074-.024c-.025-.008-.049-.017-.074-.027a.124.124,0,0,0-.022-.008c-.043-.017-.084-.033-.124-.052h0c-.1-.043-.189-.088-.277-.134-.046-.022-.088-.046-.131-.068l-.036-.025-.038-.025-.08-.052a1.5,1.5,0,0,1-.178-.134.2.2,0,0,1-.027-.025.544.544,0,0,1-.041-.044.5.5,0,0,1-.035-.046.177.177,0,0,1-.019-.033l-.009-.017a.184.184,0,0,1-.014-.038.207.207,0,0,1-.008-.03v0A.067.067,0,0,1,69.159,45.244Zm-4.22-3.511a1.679,1.679,0,0,1-.752.175q-.064,0-.128,0c-.044,0-.087-.008-.129-.014a1.514,1.514,0,0,1-.169-.032c-.057-.013-.112-.028-.167-.046L63.56,41.8a1.224,1.224,0,0,1-.126-.049c-.03-.013-.06-.025-.09-.039s-.046-.022-.068-.035-.05-.027-.076-.041c-.05-.028-.1-.06-.148-.093a1.287,1.287,0,0,1-.109-.08c-.009-.006-.02-.016-.03-.024h0c-.046-.036-.088-.074-.131-.115a1.508,1.508,0,0,1-.121-.124q-.031-.033-.057-.066c-.02-.022-.038-.044-.055-.066v0a1.435,1.435,0,0,1-.1-.142c-.016-.025-.032-.049-.046-.074-.028-.05-.055-.1-.08-.154-.013-.025-.024-.052-.035-.079-.022-.054-.041-.107-.058-.164a1.553,1.553,0,0,1-.043-.169,2.368,2.368,0,0,1,.758-1.82,12.885,12.885,0,0,1,2.616-1.738A29.425,29.425,0,0,0,65,39.9C64.895,40.51,64.991,41.125,64.939,41.733Zm.436,1.212a7.127,7.127,0,0,1,2.242-2.855,6.636,6.636,0,0,1,1.149-.726,18.364,18.364,0,0,0-.616,4.9,2.193,2.193,0,0,1-2.453-.533C65.515,43.514,65.29,43.249,65.375,42.945ZM61.8,26.19a9.872,9.872,0,0,0-1.1.794,10.157,10.157,0,0,1,.66-5.083,17,17,0,0,0,.843,2.632A5.324,5.324,0,0,1,61.8,26.19Zm-2.9,2.209c-.052.545-.121,1.09-.165,1.637a1.643,1.643,0,0,1-.2.222c-.035.035-.072.068-.11.1-.076.065-.154.124-.235.184-.121.09-.244.175-.361.266a11.491,11.491,0,0,1,.257-2.389C58.354,28.41,58.623,28.4,58.893,28.4Zm-.979,4.062a3.824,3.824,0,0,1,2.556-1.94c-.28.988-.567,1.978-.753,2.991-.124.939-.934,1.555-1.308,2.39A13.713,13.713,0,0,1,57.914,32.461Zm1.852,3.09a4.455,4.455,0,0,1,2.728-2.009,28.875,28.875,0,0,0-.583,3.035,12.1,12.1,0,0,1-.1,1.551,1.912,1.912,0,0,1-1.412.381,1.524,1.524,0,0,1-1.5-1.133A4.113,4.113,0,0,1,59.765,35.551Zm12.886,9.91a12.054,12.054,0,0,0,2.71-4.505c.208.974.493,4.346-.408,4.877A1.964,1.964,0,0,1,72.652,45.461ZM73.785,39.7c-.025-1.488.314-2.951.314-4.437a11.159,11.159,0,0,0,3.456,1.02A11.663,11.663,0,0,1,73.785,39.7ZM101.75,26.039a30.789,30.789,0,0,1-8.01,6.3C85.709,36.5,76.6,36.643,69.467,31.22A22.876,22.876,0,0,1,64.636,26.5a11.206,11.206,0,0,1-2.143-4.524,2.353,2.353,0,0,1,.788-2.524c.419-.366.917.091,1.382-.043a.734.734,0,0,0,.03-1.171,3.458,3.458,0,0,0-2.294-.389c-3.4.495-5.167,3.207-3.7,2.436a13,13,0,0,1,2.474-.777c-1.488,1.354-4.653,5.963-4.417,12.57a23.54,23.54,0,0,0,.893,5.178,15.969,15.969,0,0,0,2.6,5.175,17.055,17.055,0,0,0,4.767,4.362,15.333,15.333,0,0,0,1.9,1.034c.109.049.217.1.328.142q.485.206.986.367c.134.043.268.084.4.123q.177.05.355.095c.033.008.066.017.1.024.106.025.213.049.318.071.025.006.052.011.077.016.186.038.372.069.559.095.017,0,.035.006.052.008a8.617,8.617,0,0,0,.923.079,8.359,8.359,0,0,0,1.456-.072c.082-.017.169-.038.258-.063.022-.006.044-.011.066-.019a.131.131,0,0,0,.024-.006c.016,0,.032-.008.047-.013l.035-.009.02-.006v0c.028-.006.057-.016.087-.025.063-.019.128-.041.194-.063.038-.013.077-.025.115-.039.123-.043.249-.09.377-.14.321-.124.654-.273.983-.438a9.181,9.181,0,0,0,1.631-1.024c.077-.063.15-.126.221-.191l.136-.128a1.9,1.9,0,0,0,.635-1.117c-.422-.093-.723.227-1.029.46a7.527,7.527,0,0,0,.228-3.961c.106-.178.323-.183.5-.236,1.4,2.644,2.747,6.751.665,9.188-2.063,2.42-6.182,2.173-9.291,1.384-5.123-1.354-8.961-4.861-9.97-5.67-1.125-.9-2.279-1.776-3.333-2.765a12.57,12.57,0,0,0-1.987-1.361c.487,1.629,6.016,6.3,7.715,7.57a12.75,12.75,0,0,0-4.641,5.038,19.6,19.6,0,0,0-.906,2.148c-.055.156-.109.312-.158.468s-.1.31-.142.466-.087.309-.126.462-.077.309-.112.462-.068.3-.1.457a15.113,15.113,0,0,0-.268,3.6c.006.153.016.3.027.455.017.227.039.455.066.682,0,.028.006.057.009.084.027.211.057.421.09.632l.019.113a18.039,18.039,0,0,0,.4,1.773,22.393,22.393,0,0,0,.982,2.8c.115.279.238.556.366.834q.168.362.345.726c.476.969,1.01,1.941,1.592,2.923a54.832,54.832,0,0,0,7.628,9.439c1.943,1.839,1.6,3.2-.115,2.75-2.129-.755-7.589-4.1-13.293-8.668a48.426,48.426,0,0,1-4.976-4.954,31.589,31.589,0,0,1-4.3-6.147,28.227,28.227,0,0,1-2.624-5.98,29.393,29.393,0,0,1-1.155-10.714A38.577,38.577,0,0,1,45.45,31.289a61.076,61.076,0,0,1,3.8-5.457,37.348,37.348,0,0,1,5.4-5.72c3.09-2.463,6.142-4.626,9.992-3.777,3.111.588,5.258,2.474,6.549,3.222a9.255,9.255,0,0,0,4.827,1.369c3.175.1,6.234-.865,9.261-1.691,1.618-.441,3.2-1.02,4.825-1.431C99.5,15.207,109.9,15.869,101.75,26.039Zm-8.92-9.807a62.7,62.7,0,0,0-7.546,2.041c-3.607.977-7.917,2.474-11.741,1.376l-.173-.052c-.057-.019-.113-.038-.17-.058-.113-.039-.224-.082-.334-.128s-.219-.093-.326-.145-.219-.106-.326-.162c-.188-.1-.373-.2-.556-.315-.222-.134-.441-.274-.659-.418-.241-.159-.481-.321-.722-.482-.128-.087-.255-.17-.383-.254l-.1-.065c-.071-.046-.142-.091-.213-.136s-.139-.087-.208-.128c-.035-.022-.068-.043-.1-.061-.057-.035-.113-.068-.172-.1-5.649-3.408-9.713-1.678-13.681,1.344a33.793,33.793,0,0,0-3.793,3.358A57.2,57.2,0,0,0,41.389,37.3,45.521,45.521,0,0,0,38.973,46a39.975,39.975,0,0,0-.444,5,37.554,37.554,0,0,0,.392,6.35,29.968,29.968,0,0,0,3.519,9.607,38.192,38.192,0,0,0,8.208,10.077c1.729,1.606,3.683,2.936,5.521,4.4a49.378,49.378,0,0,0,4.3,2.852l.492.265.465.255.058.032L61.77,85q.343.191.652.369l.3.173.292.167c.238.136.46.263.673.383l.247.139.12.066c.079.044.156.085.233.126l.221.117h0l.071.036.14.069c.107.054.211.1.312.148.05.024.1.044.151.065s.1.041.145.06l.107.041.036.013c.047.017.093.033.14.047a.056.056,0,0,0,.017.006c.039.013.079.025.12.036a3,3,0,0,0,.525.1c.038,0,.074.008.11.009h0c.047,0,.1,0,.143,0,.03,0,.06,0,.09,0,2.022-.18,1.888-2.019.7-3.768C79.606,71.439,91.047,72.054,94.1,73.529c-8.507,3.393-7.252,4.527-8.563,5.466-.812.063-2.969-.807-5.55-.255-1.02.266,1.817,1.01,2.884,1.85a46.077,46.077,0,0,0-6.429,4.6c-1.579,1.292-3.208,2.526-4.819,3.776a7.425,7.425,0,0,1-2.239.789c-.151.072-.6.014-.473.3.722.452,1.576-.032,2.351.2A33.168,33.168,0,0,0,76.659,106.9c-3.93-2.208-13.767-11.867-12.987-19.319a17.81,17.81,0,0,0,3.01.652,3.814,3.814,0,0,0-1.289-.761c-.183-.082-.366-.164-.548-.244-1.374-.615-2.748-1.226-4.1-1.894l-.02-.011-.076-.039-.052-.028c-.041-.022-.09-.049-.148-.079l-.151-.08-.027-.014-.176-.093c-.013-.008-.025-.014-.038-.02l-.2-.1-.128-.068c-.044-.022-.088-.046-.134-.071s-.093-.049-.14-.074l-.227-.121-.072-.038-.158-.084-.5-.265-2.039-1.081-.381-.2-.189-.1-.188-.1-.232-.123-.228-.121c-.151-.08-.3-.158-.443-.235L54.469,82c-.165-.087-.323-.172-.473-.251l-.288-.153-.134-.071c-.044-.022-.087-.046-.129-.068l-.235-.124-.093-.049-.032-.017-.05-.027a.259.259,0,0,1-.028-.016l-.09-.047-.041-.02-.039-.022-.028-.014-.106-.057-.052-.027c-.03-.016-.055-.028-.071-.038l-.028-.014a19.009,19.009,0,0,0-.124,7.759c-3.177-3.93-3.607-8.964-4.166-10.5a1.605,1.605,0,0,0-.969-1.13c-.274.082-.336.117-.361.624C31.61,67.672,25.8,59.2,22.883,51.988a31.928,31.928,0,0,1,4.691.035c2.959.118,3.812-.345,4.812-2.45.507-1.112,1.048-2.211,1.566-3.317a11.446,11.446,0,0,1,1.96-2.66,5.527,5.527,0,0,0,1.147-1.338c-1.673-.117-3.646,2.613-4.351,3.823-.64,1.068-1.043,2.261-1.71,3.314-1.377,2.189-4.283.5-11.1,1.144-6.676.314-16.29,5.567-16.8,5.785-1.152.5-2.452,1.158-1.185-1.861,2.446-6.075,10.4-12.448,14.473-14.639,9.521-5.471,16.265-6.306,16.265-6.306-2.083-.7-9.47,1.634-11.561,2.367A24.357,24.357,0,0,1,24.562,27.6a37.684,37.684,0,0,1,6.809-7.868,56.653,56.653,0,0,1,14.492-9.056C54.77,7.056,62.783,5.741,68.6,5.9c-.276,1.224-.774,2.658-.068,6.947a8.712,8.712,0,0,0,2.591,5.063c.038.032.076.063.113.093.077.06.158.115.24.167.041.027.084.052.124.076.072.041.145.08.219.115.041.02.082.039.124.057s.063.027.095.039.065.025.1.036.08.028.12.041l.1.032.006,0c.032.009.065.017.1.025.079.02.159.036.24.052l.1.014c.027,0,.055.008.082.011s.082.009.123.013.09.006.136.008.091,0,.137,0a3.143,3.143,0,0,0,1.081-.189,5.376,5.376,0,0,0,2.463-2.048A14.839,14.839,0,0,0,78.974,6.54c3.284.038,14.626,2.885,21.629,7.034,3.5,1.965,4.007,3.166,4.549,4.437C103.088,14.739,96.611,15.584,92.829,16.231Z" transform="translate(0 0)"/>
          <path id="Path_436" data-name="Path 436" d="M397.41,335.114a23.538,23.538,0,0,1-1.722-1.713,19.88,19.88,0,0,0-2.794-2.23,34.4,34.4,0,0,0-7.85-4.143,6.714,6.714,0,0,1,1.708-1.164,1.216,1.216,0,0,1,.49.233,15.827,15.827,0,0,0,8.922,2.7.373.373,0,0,1,.435.243,11.909,11.909,0,0,1,1.265,3.679C398.071,334.039,398.4,336.012,397.41,335.114Z" transform="translate(-324.371 -274.516)" fill="#c3ebed"/>
          <path id="Path_437" data-name="Path 437" d="M74.1,51.505c-8.826,3.977-15.6,8.213-21.556,15.849C48.8,63.163,41.2,61.828,35.537,61.5c-2.3-.284-3,.084-.706-2.531,4.726-4.718,15.16-6.866,19.826-7.825A55.159,55.159,0,0,1,74.1,51.505Z" transform="translate(-28.156 -42.495)" fill="#558a97"/>
          <path id="Path_438" data-name="Path 438" d="M385.918,469.864a10.405,10.405,0,0,0-3.969,1.355c-.63-.886-1.28-1.759-1.864-2.674A16.4,16.4,0,0,1,385.918,469.864Z" transform="translate(-320.193 -394.714)" fill="#558a97"/>
          <path id="Path_439" data-name="Path 439" d="M434.273,462.454c-8.507,3.393-7.252,4.527-8.563,5.466-.812.063-2.969-.807-5.55-.255-1.019.266,1.817,1.01,2.884,1.85a46.08,46.08,0,0,0-6.429,4.6c-1.579,1.292-3.208,2.526-4.819,3.776a7.417,7.417,0,0,1-2.239.789c-.151.073-.6.014-.473.3.722.452,1.576-.032,2.351.2a33.17,33.17,0,0,0,5.392,16.651c-3.93-2.208-13.767-11.867-12.987-19.319a17.827,17.827,0,0,0,3.01.652,3.816,3.816,0,0,0-1.289-.761c-.183-.082-.366-.164-.548-.244l.191-.429c.051.024.1.044.151.065s.1.041.145.06l.107.041.036.013c.047.017.093.033.14.047a.059.059,0,0,0,.017.006c.039.012.079.025.12.036a3.005,3.005,0,0,0,.525.1c.038,0,.074.008.11.01h0c.047,0,.1,0,.143,0,.03,0,.06,0,.09,0,2.022-.18,1.888-2.019.7-3.768C419.775,460.365,431.216,460.979,434.273,462.454Z" transform="translate(-340.168 -388.926)" fill="#558a97"/>
          <path id="Path_440" data-name="Path 440" d="M484.719,52.976c-2.064-3.273-8.54-2.428-12.322-1.781a62.689,62.689,0,0,0-7.546,2.041c-3.607.977-7.917,2.474-11.741,1.376l-.173-.052c-.057-.019-.114-.038-.17-.058-.113-.039-.224-.082-.334-.128s-.219-.093-.326-.145-.219-.106-.326-.162c-.189-.1-.373-.206-.556-.315-.222-.134-.441-.274-.659-.418l.24-.367c.077.06.157.115.239.167.041.027.083.052.124.076.072.041.145.08.219.115.041.02.082.039.125.057s.063.027.094.039.065.025.1.036.08.028.12.041l.1.032.006,0c.031.009.064.017.1.025.079.02.159.036.24.052l.1.014c.027,0,.055.008.082.011s.082.009.123.013.09.006.136.008.091,0,.137,0a3.142,3.142,0,0,0,1.081-.189,5.376,5.376,0,0,0,2.463-2.048,14.838,14.838,0,0,0,2.156-9.915c3.284.038,14.626,2.885,21.629,7.034C483.675,50.5,484.177,51.7,484.719,52.976Z" transform="translate(-379.567 -34.965)" fill="#558a97"/>
          <path id="Path_441" data-name="Path 441" d="M78.6,49.378a8.712,8.712,0,0,1-2.591-5.063c-.706-4.289-.208-5.723.068-6.947-5.818-.158-13.83,1.157-22.738,4.776A56.653,56.653,0,0,0,38.843,51.2a37.684,37.684,0,0,0-6.809,7.868,24.358,24.358,0,0,0-3.467,8.285c2.091-.733,9.478-3.071,11.561-2.367,0,0-6.744.835-16.265,6.306C19.8,73.483,11.836,79.857,9.391,85.931c-1.267,3.019.033,2.359,1.185,1.861.506-.217,10.119-5.471,16.8-5.785,6.818-.648,9.724,1.045,11.1-1.144.667-1.053,1.07-2.245,1.71-3.314.7-1.21,2.677-3.939,4.351-3.823a5.526,5.526,0,0,1-1.147,1.338,11.446,11.446,0,0,0-1.96,2.66c-.518,1.106-1.059,2.2-1.566,3.317-1,2.105-1.853,2.568-4.812,2.45a31.93,31.93,0,0,0-4.691-.035C33.268,90.665,39.083,99.141,54.4,109.2c.025-.507.087-.542.361-.624a1.605,1.605,0,0,1,.969,1.13c.559,1.54.99,6.574,4.166,10.5a19.009,19.009,0,0,1,.124-7.759l.028.014c.016.009.041.022.071.038l.052.027.106.057.028.014c.013.006.025.014.039.02s.027.014.041.022l.09.047a.251.251,0,0,0,.028.016l.05.027.032.016c.03.017.061.033.093.05l.235.124c.043.022.085.046.129.068l.134.071.288.153c.15.079.307.164.473.251l.337.18c.145.076.292.154.443.235l.228.121.232.123.188.1.189.1.381.2,2.039,1.081.5.265.158.084.072.038.227.121c.047.025.095.049.14.074s.09.049.134.071l.128.068.2.1c.013.006.025.013.038.02l.176.093.027.014.151.08c.058.03.107.057.148.079l.052.028.076.039.021.011c1.347.668,2.721,1.28,4.1,1.894l.191-.429c-.1-.046-.2-.095-.312-.148l-.14-.069c-.024-.011-.047-.022-.071-.035,0,0,0,0,0,0-.072-.038-.145-.076-.221-.117s-.154-.082-.233-.126l-.12-.066-.247-.139c-.213-.12-.435-.247-.673-.383l-.292-.167-.3-.173q-.31-.177-.652-.369l-.282-.158-.058-.032-.465-.255-.492-.265a49.373,49.373,0,0,1-4.3-2.852c-1.839-1.467-3.793-2.8-5.521-4.4a38.191,38.191,0,0,1-8.208-10.077,29.968,29.968,0,0,1-3.519-9.607A37.554,37.554,0,0,1,46,82.475a39.975,39.975,0,0,1,.444-5,45.522,45.522,0,0,1,2.416-8.7A57.2,57.2,0,0,1,59.1,53.315a33.792,33.792,0,0,1,3.793-3.358c3.968-3.022,8.032-4.752,13.681-1.344.058.033.115.066.172.1.035.019.068.039.1.061q.1.061.208.128c.071.044.142.09.213.136l.1.065c.128.084.255.167.383.254.241.161.481.323.722.482l.24-.367C78.672,49.441,78.634,49.41,78.6,49.378Zm-37.23,9.9c-.082-.731-.184-1.949.515-2.159.293.044.315.748.355,1.153a11.057,11.057,0,0,0,2.411,5.725c1.272,1.533,3.624,3.809,3.624,3.809C46.331,67.37,42.363,63.993,41.366,59.274Zm5.859,5.063a12.159,12.159,0,0,1-2.594-5.2c-.274-1.205-.785-4.407.448-4.407a24.074,24.074,0,0,1,.249,2.819,13.9,13.9,0,0,0,1.724,4.953c1.6,2.68,2.014,2.808,2.011,3.545A20.966,20.966,0,0,1,47.224,64.337ZM49.98,62.9c-2.321-2.734-3.908-6.987-3.158-10.376.151-.638.563-2.253,1.213-2a8.682,8.682,0,0,1-.329,2.63c-.492,4.828,2.315,7.71,3.008,10.455C50.373,63.492,50.2,63.166,49.98,62.9Z" transform="translate(-7.472 -31.469)" fill="#558a97"/>
          <path id="Path_442" data-name="Path 442" d="M300.5,104.129c-1.629.411-3.207.99-4.825,1.431-3.027.826-6.086,1.793-9.261,1.691a9.256,9.256,0,0,1-4.827-1.369c-1.29-.748-3.438-2.635-6.549-3.222-3.85-.849-6.9,1.314-9.992,3.777a37.341,37.341,0,0,0-5.4,5.72,61.046,61.046,0,0,0-3.8,5.457,38.575,38.575,0,0,0-6.041,18.654,29.4,29.4,0,0,0,1.155,10.714,28.228,28.228,0,0,0,2.624,5.98,31.589,31.589,0,0,0,4.3,6.147,48.424,48.424,0,0,0,4.976,4.954c5.7,4.573,11.164,7.913,13.293,8.668,1.713.451,2.058-.911.115-2.75a54.835,54.835,0,0,1-7.628-9.439c-.581-.982-1.116-1.954-1.591-2.923q-.18-.364-.345-.726c-.128-.277-.25-.555-.366-.834a22.374,22.374,0,0,1-.982-2.8,18.015,18.015,0,0,1-.4-1.773l-.019-.113c-.035-.21-.065-.421-.09-.632,0-.027-.008-.055-.01-.084-.027-.227-.049-.455-.066-.682-.011-.151-.021-.3-.027-.455a15.116,15.116,0,0,1,.268-3.6c.028-.153.062-.3.1-.457s.071-.307.112-.462.08-.307.126-.462.091-.31.142-.466.1-.312.157-.468a19.611,19.611,0,0,1,.906-2.148,12.75,12.75,0,0,1,4.641-5.038c-1.7-1.265-7.228-5.941-7.715-7.57a12.566,12.566,0,0,1,1.987,1.361c1.054.99,2.208,1.861,3.333,2.765,1.008.808,4.847,4.316,9.97,5.67,3.109.789,7.228,1.037,9.291-1.384,2.082-2.438.736-6.544-.665-9.188-.176.054-.394.058-.5.236a7.528,7.528,0,0,1-.228,3.961c.306-.233.607-.553,1.029-.46a1.9,1.9,0,0,1-.635,1.117c-.044.043-.09.085-.135.128-.071.065-.143.128-.221.191a9.184,9.184,0,0,1-1.631,1.024c-.329.165-.662.314-.983.438-.128.05-.254.1-.377.14-.038.014-.077.027-.115.039a6.627,6.627,0,0,1-.731.206,8.36,8.36,0,0,1-1.456.072,8.623,8.623,0,0,1-.923-.079c-.017,0-.035,0-.052-.008-.187-.025-.373-.057-.559-.095-.025,0-.052-.009-.077-.016-.107-.021-.213-.044-.318-.071-.033-.006-.066-.016-.1-.024q-.177-.043-.355-.095c-.135-.038-.269-.079-.4-.123q-.5-.161-.986-.367c-.11-.046-.219-.093-.328-.142a15.338,15.338,0,0,1-1.9-1.034,17.055,17.055,0,0,1-4.767-4.362,15.97,15.97,0,0,1-2.6-5.175,23.541,23.541,0,0,1-.893-5.178c-.236-6.607,2.929-11.216,4.417-12.57a13,13,0,0,0-2.474.777c-1.469.771.3-1.941,3.7-2.436a3.458,3.458,0,0,1,2.294.389.734.734,0,0,1-.03,1.171c-.465.134-.963-.323-1.382.043a2.354,2.354,0,0,0-.788,2.524,11.206,11.206,0,0,0,2.143,4.524,22.875,22.875,0,0,0,4.831,4.721c7.137,5.424,16.241,5.28,24.273,1.119a30.789,30.789,0,0,0,8.01-6.3C320.291,102.192,309.894,101.531,300.5,104.129ZM306.728,109a4.662,4.662,0,0,1-1.894,3.2,2.135,2.135,0,0,1-2.045.556,1,1,0,0,1-.619-1.218,6.331,6.331,0,0,1,1.968-2.951,2.463,2.463,0,0,1,1.935-.84A1.1,1.1,0,0,1,306.728,109Zm4.763,2.175a4.268,4.268,0,0,1-1.448,2,1.125,1.125,0,0,1-1.056.252c-.388-.222-.323-.742-.191-1.1a5.783,5.783,0,0,1,1.648-2.32c.219-.17.533-.367.805-.2C311.7,110.1,311.626,110.731,311.492,111.178Z" transform="translate(-210.389 -86.324)" fill="#c3ebed"/>
        </g>
        <path id="Path_443" data-name="Path 443" d="M252.613,133.869c-.342-.117-.518-.443-.734-.706-2.321-2.734-3.908-6.987-3.158-10.376.151-.638.563-2.253,1.213-2a8.687,8.687,0,0,1-.329,2.63C249.113,128.242,251.92,131.124,252.613,133.869Z" transform="translate(-209.37 -101.73)"/>
        <g id="Group_492" data-name="Group 492" transform="translate(91.748 21.412)">
          <path id="Path_444" data-name="Path 444" d="M586.184,135.9a2.463,2.463,0,0,0-1.935.84,6.33,6.33,0,0,0-1.968,2.951,1,1,0,0,0,.619,1.218,2.135,2.135,0,0,0,2.045-.556,4.662,4.662,0,0,0,1.894-3.2A1.1,1.1,0,0,0,586.184,135.9Zm-1.327,2.906a2.318,2.318,0,0,1-2.052,1.164,5.712,5.712,0,0,1,2.874-3.405A3.243,3.243,0,0,1,584.858,138.809Z" transform="translate(-582.249 -135.886)"/>
        </g>
        <path id="Path_445" data-name="Path 445" d="M238.421,158.961a20.977,20.977,0,0,1-1.837-1.714,12.159,12.159,0,0,1-2.594-5.2c-.274-1.205-.785-4.407.448-4.407a24.078,24.078,0,0,1,.249,2.819,13.9,13.9,0,0,0,1.724,4.953C238.008,158.1,238.424,158.224,238.421,158.961Z" transform="translate(-196.831 -124.379)"/>
        <g id="Group_493" data-name="Group 493" transform="translate(98.305 23.422)">
          <path id="Path_446" data-name="Path 446" d="M626.42,148.7c-.272-.165-.586.031-.805.2a5.781,5.781,0,0,0-1.648,2.32c-.133.356-.2.876.19,1.1a1.125,1.125,0,0,0,1.056-.252,4.269,4.269,0,0,0,1.448-2C626.795,149.624,626.871,148.993,626.42,148.7Zm-2.2,3.126a5.81,5.81,0,0,1,1.848-2.589A3.736,3.736,0,0,1,624.215,151.827Z" transform="translate(-623.864 -148.639)"/>
        </g>
        <path id="Path_447" data-name="Path 447" d="M221.688,173.441c-1.94-.432-5.908-3.809-6.9-8.528-.082-.731-.184-1.949.515-2.159.293.044.315.748.354,1.153a11.057,11.057,0,0,0,2.411,5.725C219.335,171.165,221.688,173.441,221.688,173.441Z" transform="translate(-180.889 -137.108)"/>
      </g>
    </g>
  </g>
</svg>
