<svg id="Group_388" data-name="Group 388" xmlns="http://www.w3.org/2000/svg" width="22" height="48" viewBox="0 0 11 24">
  <path id="Path_284" data-name="Path 284" d="M9.5,24h-8A1.5,1.5,0,0,1,0,22.5V4.5A1.5,1.5,0,0,1,1.5,3h8A1.5,1.5,0,0,1,11,4.5v18A1.5,1.5,0,0,1,9.5,24ZM1.5,4a.5.5,0,0,0-.5.5v18a.5.5,0,0,0,.5.5h8a.5.5,0,0,0,.5-.5V4.5A.5.5,0,0,0,9.5,4Z" fill="#1da2f4"/>
  <path id="Path_285" data-name="Path 285" d="M7.5,4h-4A.5.5,0,0,1,3,3.5v-2A1.5,1.5,0,0,1,4.5,0h2A1.5,1.5,0,0,1,8,1.5v2A.5.5,0,0,1,7.5,4ZM4,3H7V1.5A.5.5,0,0,0,6.5,1h-2a.5.5,0,0,0-.5.5Z" fill="#1da2f4"/>
  <g id="Group_198" data-name="Group 198">
    <path id="Path_286" data-name="Path 286" d="M3.5,21a.5.5,0,0,1-.435-.748L6.484,14.27l-2.863.716a.5.5,0,0,1-.569-.709l4-8a.5.5,0,1,1,.895.447L4.433,13.751l2.945-.736a.5.5,0,0,1,.556.734l-4,7A.5.5,0,0,1,3.5,21Z" fill="#1da2f4"/>
  </g>
</svg>
