<svg id="Group_392" data-name="Group 392" xmlns="http://www.w3.org/2000/svg" width="72.87" height="58" viewBox="0 0 36.435 29">
  <path id="Path_95" data-name="Path 95" d="M15.04,7.37H11.054a.6.6,0,0,1-.6-.6V3.923a.6.6,0,0,1,.6-.6H15.04a.6.6,0,0,1,.6.6V6.768A.6.6,0,0,1,15.04,7.37ZM11.659,6.163h2.779V4.525H11.659Z" transform="translate(17.033 5.406)" fill="#fff"/>
  <g id="Group_391" data-name="Group 391">
    <path id="Path_89" data-name="Path 89" d="M36.433,20.868V2.009A2.01,2.01,0,0,0,34.427,0H2.011A2.012,2.012,0,0,0,0,2.009V22.177a2.012,2.012,0,0,0,2.009,2.009H13.4a2.2,2.2,0,0,1,.968,1.7,2.086,2.086,0,0,1-.734,1.5H6.841a.8.8,0,1,0,0,1.609H29.6a.8.8,0,0,0,0-1.609H22.808a2.076,2.076,0,0,1-.734-1.5,2.212,2.212,0,0,1,.968-1.7H34.429a2.01,2.01,0,0,0,2.006-2.009V20.871A0,0,0,0,1,36.433,20.868ZM2.011,1.2H34.427a.808.808,0,0,1,.807.8v18.26H1.207V2.009A.806.806,0,0,1,2.011,1.2ZM21.286,27.391H15.152a2.976,2.976,0,0,0-.116-3.2H21.4a3.067,3.067,0,0,0-.526,1.7A2.975,2.975,0,0,0,21.286,27.391Zm13.143-4.412H2.009a.8.8,0,0,1-.8-.8v-.689H35.231v.691A.8.8,0,0,1,34.429,22.979Z" fill="#fff"/>
    <path id="Path_90" data-name="Path 90" d="M15.537,16.121H1.884a.6.6,0,0,1-.6-.6V1.865a.6.6,0,0,1,.6-.6H15.537a.6.6,0,0,1,.6.6V15.518A.6.6,0,0,1,15.537,16.121Zm-13.054-1.2H14.933V2.467H2.484Z" transform="translate(2.089 2.058)" fill="#fff"/>
    <path id="Path_91" data-name="Path 91" d="M3.511,10.589a.625.625,0,0,1-.3-.079.6.6,0,0,1-.3-.521V3.161a.611.611,0,0,1,.3-.523.619.619,0,0,1,.6,0L9.723,6.053a.6.6,0,0,1,0,1.041L3.81,10.51A.575.575,0,0,1,3.511,10.589ZM4.11,4.2v4.74l4.1-2.369Z" transform="translate(4.734 4.169)" fill="#fff"/>
    <path id="Path_92" data-name="Path 92" d="M19.288,2.466H8.447a.6.6,0,0,1,0-1.2h10.84a.6.6,0,0,1,0,1.2Z" transform="translate(12.786 2.059)" fill="#fff"/>
    <path id="Path_93" data-name="Path 93" d="M16.043,3.5h-7.6a.6.6,0,0,1,0-1.2h7.6a.6.6,0,0,1,0,1.2Z" transform="translate(12.786 3.734)" fill="#fff"/>
    <path id="Path_94" data-name="Path 94" d="M12.431,7.37H8.447a.6.6,0,0,1-.6-.6V3.923a.6.6,0,0,1,.6-.6h3.983a.6.6,0,0,1,.6.6V6.768A.606.606,0,0,1,12.431,7.37ZM9.052,6.163h2.779V4.525H9.052Z" transform="translate(12.786 5.406)" fill="#fff"/>
    <path id="Path_96" data-name="Path 96" d="M12.431,9.421H8.447a.6.6,0,0,1-.6-.6V5.977a.6.6,0,0,1,.6-.6h3.983a.6.6,0,0,1,.6.6V8.822A.6.6,0,0,1,12.431,9.421Zm-3.379-1.2h2.779V6.577H9.052Z" transform="translate(12.786 8.757)" fill="#fff"/>
    <path id="Path_97" data-name="Path 97" d="M15.04,9.421H11.054a.6.6,0,0,1-.6-.6V5.977a.6.6,0,0,1,.6-.6H15.04a.6.6,0,0,1,.6.6V8.822A.6.6,0,0,1,15.04,9.421Zm-3.381-1.2h2.779V6.577H11.659Z" transform="translate(17.033 8.757)" fill="#fff"/>
  </g>
</svg>
