<svg xmlns="http://www.w3.org/2000/svg" width="24" height="17.999" viewBox="0 0 24 17.999">
  <g id="Group_389" data-name="Group 389" transform="translate(0 -0.001)">
    <path id="Path_298" data-name="Path 298" d="M.5,6a.5.5,0,0,1-.354-.853l5-5a.5.5,0,0,1,.707.707l-5,5A.5.5,0,0,1,.5,6Z" fill="#0fedb2"/>
    <path id="Path_299" data-name="Path 299" d="M5.5,11a.5.5,0,0,1-.354-.146l-5-5a.5.5,0,0,1,.707-.707l5,5A.5.5,0,0,1,5.5,11Z" fill="#0fedb2"/>
    <path id="Path_300" data-name="Path 300" d="M17.5,18h-6a.5.5,0,0,1,0-1h6a5.5,5.5,0,0,0,0-11H.5a.5.5,0,0,1,0-1h17a6.5,6.5,0,0,1,0,13Z" fill="#0fedb2"/>
  </g>
</svg>
