<svg xmlns="http://www.w3.org/2000/svg" width="109.192" height="128.851" viewBox="0 0 109.192 128.851">
  <g id="Group_107" data-name="Group 107" transform="translate(0)" opacity="0.242">
    <path id="Path_223" data-name="Path 223" d="M92.986,9.716C87.019,2.915,76.234,0,62.437,0H22.394a5.735,5.735,0,0,0-5.667,4.837L.061,110.588a3.436,3.436,0,0,0,3.4,3.971H28.179l6.209-39.38-.193,1.233a5.717,5.717,0,0,1,5.642-4.837H51.584c23.078,0,41.148-9.374,46.427-36.49q.235-1.2.41-2.345C99.989,22.718,98.41,15.9,92.989,9.72" transform="translate(-0.014)" fill="#003087"/>
    <path id="Path_224" data-name="Path 224" d="M92.986,9.716C87.019,2.915,76.234,0,62.437,0H22.394a5.735,5.735,0,0,0-5.667,4.837L.061,110.588a3.436,3.436,0,0,0,3.4,3.971H28.179l6.209-39.38-.193,1.233a5.717,5.717,0,0,1,5.642-4.837H51.584c23.078,0,41.148-9.374,46.427-36.49q.235-1.2.41-2.345C99.989,22.718,98.41,15.9,92.989,9.72" transform="translate(-0.014)" fill="#003087"/>
    <path id="Path_225" data-name="Path 225" d="M41.042,32.885a5.018,5.018,0,0,1,4.951-4.231H77.385a65.993,65.993,0,0,1,10.354.749,43.488,43.488,0,0,1,5.132,1.148,28.354,28.354,0,0,1,5.528,2.2c1.575-10.026-.007-16.844-5.428-23.024C87,2.932,76.22.016,62.423.016H22.376a5.735,5.735,0,0,0-5.66,4.837L.043,110.594a3.435,3.435,0,0,0,3.393,3.974H28.161l6.209-39.384Z" transform="translate(0 -0.012)" fill="#003087"/>
    <path id="Path_226" data-name="Path 226" d="M189.978,146.24q-.184,1.176-.41,2.345c-5.279,27.113-23.349,36.49-46.427,36.49H131.39a5.71,5.71,0,0,0-5.638,4.837l-6.016,38.144-1.711,10.821A3.008,3.008,0,0,0,121,242.354h20.84a5.017,5.017,0,0,0,4.951-4.231l.2-1.062,3.928-24.892.25-1.376a5.015,5.015,0,0,1,4.954-4.231h3.119c20.187,0,35.994-8.2,40.614-31.92,1.925-9.908.927-18.188-4.17-24a19.917,19.917,0,0,0-5.707-4.4" transform="translate(-91.575 -113.503)" fill="#009cde"/>
    <path id="Path_227" data-name="Path 227" d="M211.371,129.83q-1.208-.358-2.491-.642c-.855-.189-1.739-.356-2.645-.5a64.72,64.72,0,0,0-10.357-.759h-31.39a5,5,0,0,0-4.951,4.234l-6.672,42.306-.193,1.23a5.71,5.71,0,0,1,5.638-4.837h11.751c23.078,0,41.148-9.374,46.427-36.49.157-.8.289-1.579.41-2.345a28.516,28.516,0,0,0-4.341-1.832c-.388-.128-.784-.25-1.187-.371" transform="translate(-118.496 -99.292)" fill="#012169"/>
  </g>
</svg>
