<svg xmlns="http://www.w3.org/2000/svg" width="56.4" height="60.799" viewBox="0 0 56.4 60.799">
  <g id="Group_383" data-name="Group 383" transform="translate(0 36.82)">
    <path id="Path_331" data-name="Path 331" d="M28.2,39.146a3.8,3.8,0,0,1-2.254-.745L1.552,20.479a3.8,3.8,0,0,1,0-6.131,1.268,1.268,0,1,1,1.5,2.044,1.265,1.265,0,0,0,0,2.041l24.4,17.924a1.275,1.275,0,0,0,1.5,0l24.4-17.926a1.265,1.265,0,0,0,0-2.041,1.268,1.268,0,1,1,1.5-2.044,3.8,3.8,0,0,1,0,6.131L30.452,38.4A3.8,3.8,0,0,1,28.2,39.146Z" transform="translate(0 -15.167)" fill="#fff"/>
    <path id="Path_332" data-name="Path 332" d="M28.2,35.727a3.8,3.8,0,0,1-2.254-.745L1.552,17.058a3.8,3.8,0,0,1,0-6.128,1.268,1.268,0,1,1,1.5,2.044,1.265,1.265,0,0,0,0,2.041l24.4,17.924a1.275,1.275,0,0,0,1.5,0l24.4-17.924a1.265,1.265,0,0,0,0-2.041,1.268,1.268,0,1,1,1.5-2.044,3.8,3.8,0,0,1,0,6.131l-24.4,17.924A3.811,3.811,0,0,1,28.2,35.727Z" transform="translate(0 -20.414)" fill="#fff"/>
    <g id="Group_361" data-name="Group 361">
      <path id="Path_333" data-name="Path 333" d="M28.2,43.458a3.811,3.811,0,0,1-2.252-.74L1.55,24.794a3.8,3.8,0,0,1,0-6.128L25.947.74a3.793,3.793,0,0,1,4.5,0l24.4,17.924v0a3.8,3.8,0,0,1,0,6.128l-24.4,17.924A3.8,3.8,0,0,1,28.2,43.458Zm0-40.923a1.251,1.251,0,0,0-.751.248L3.051,20.707a1.261,1.261,0,0,0-.515,1.024,1.247,1.247,0,0,0,.515,1.017l24.4,17.924a1.255,1.255,0,0,0,1.5,0l24.4-17.924a1.267,1.267,0,0,0,0-2.039L28.949,2.786A1.254,1.254,0,0,0,28.2,2.535Z" transform="translate(0.002 -36.82)" fill="#fff"/>
    </g>
  </g>
</svg>
