<svg xmlns="http://www.w3.org/2000/svg" width="64.529" height="43.021" viewBox="0 0 64.529 43.021">
  <g id="Group_383" data-name="Group 383" transform="translate(-0.001)">
    <path id="Path_280" data-name="Path 280" d="M32.265,43.021C11.532,43.021.612,22.995.158,22.142a1.353,1.353,0,0,1,0-1.266C.612,20.026,11.532,0,32.265,0S63.918,20.026,64.372,20.879a1.353,1.353,0,0,1,0,1.266C63.918,22.995,53,43.021,32.265,43.021ZM2.9,21.511c2.014,3.348,12.25,18.822,29.37,18.822,17.152,0,27.362-15.469,29.37-18.822-2.014-3.348-12.25-18.822-29.37-18.822C15.113,2.689,4.9,18.158,2.9,21.511Z" transform="translate(0)" fill="#fff"/>
    <path id="Path_281" data-name="Path 281" d="M20.444,29.888A13.444,13.444,0,1,1,33.888,16.444,13.459,13.459,0,0,1,20.444,29.888Zm0-24.2A10.755,10.755,0,1,0,31.2,16.444,10.766,10.766,0,0,0,20.444,5.689Z" transform="translate(11.821 5.066)" fill="#fff"/>
  </g>
</svg>
