<svg xmlns="http://www.w3.org/2000/svg" width="56.704" height="56.704" viewBox="0 0 56.704 56.704">
  <g id="Group_384" data-name="Group 384" transform="translate(0 32.704)">
    <g id="Group_200" data-name="Group 200">
      <path id="Path_287" data-name="Path 287" d="M53.16,56.7H3.544A3.548,3.548,0,0,1,0,53.16V3.544A3.548,3.548,0,0,1,3.544,0H43.709a1.19,1.19,0,0,1,.836.345L56.359,12.158a1.19,1.19,0,0,1,.345.836V53.16A3.548,3.548,0,0,1,53.16,56.7ZM3.544,2.363A1.185,1.185,0,0,0,2.363,3.544V53.16a1.185,1.185,0,0,0,1.181,1.181H53.16a1.185,1.185,0,0,0,1.181-1.181V13.484L43.22,2.363Z" transform="translate(0 -32.704)" fill="#fff"/>
    </g>
    <g id="Group_201" data-name="Group 201" transform="translate(9.451 0.373)">
      <path id="Path_288" data-name="Path 288" d="M40.621,37.627H5.181A1.182,1.182,0,0,1,4,36.445V17.634A3.638,3.638,0,0,1,7.634,14H38.259A3.548,3.548,0,0,1,41.8,17.544v18.9A1.182,1.182,0,0,1,40.621,37.627ZM6.363,35.264H39.44V17.544a1.185,1.185,0,0,0-1.181-1.181H7.634a1.272,1.272,0,0,0-1.271,1.271Z" transform="translate(-4 -14)" fill="#fff"/>
    </g>
    <g id="Group_202" data-name="Group 202" transform="translate(14.176 -32.704)">
      <path id="Path_289" data-name="Path 289" d="M23.72,18.9H9.544A3.548,3.548,0,0,1,6,15.357V1.181A1.182,1.182,0,0,1,7.181,0h18.9a1.182,1.182,0,0,1,1.181,1.181V15.357A3.548,3.548,0,0,1,23.72,18.9ZM8.363,2.363V15.357a1.185,1.185,0,0,0,1.181,1.181H23.72A1.185,1.185,0,0,0,24.9,15.357V2.363Z" transform="translate(-6)" fill="#fff"/>
    </g>
  </g>
</svg>
