<svg id="Group_66" data-name="Group 66" xmlns="http://www.w3.org/2000/svg" width="102.73" height="102.738" viewBox="0 0 102.73 102.738">
  <path id="Path_160" data-name="Path 160" d="M29.271,1.267a28,28,0,1,0,28,28A28.036,28.036,0,0,0,29.271,1.267Zm0,52.192a24.191,24.191,0,1,1,24.179-24.2A24.229,24.229,0,0,1,29.271,53.459Z" transform="translate(9.264 9.271)" fill="#b1b1b1"/>
  <path id="Path_161" data-name="Path 161" d="M79.349,64.419h0a2.982,2.982,0,0,0-.482-.391,4.105,4.105,0,0,0-2.42-.757c-1.938,0-4.333,1.248-6.546,3.036l-2.4-2.379a38.656,38.656,0,1,0-3.593,3.585L66.3,69.892a16.626,16.626,0,0,0-2.437,3.9c-1.015,2.47-.541,4.059.091,4.991a1.408,1.408,0,0,1,.083.116,3.682,3.682,0,0,0,.374.457.008.008,0,0,1,.008.008h0L84.706,99.644a10.56,10.56,0,0,0,14.93-14.938ZM62.19,62.19A33.456,33.456,0,1,1,14.872,14.88,33.456,33.456,0,0,1,62.19,62.19Zm6.9,10.48,1,1.015,3.6-3.6-1.006-1a8.19,8.19,0,0,1,3.918-1.9c-.017.832-.915,3.152-3.585,5.814-2.587,2.587-4.882,3.543-5.839,3.585A8.488,8.488,0,0,1,69.085,72.67ZM92.166,98.928a6.68,6.68,0,0,1-4.766-1.98L70.117,79.682A17.63,17.63,0,0,0,74.292,77L95.385,98.08A6.734,6.734,0,0,1,92.166,98.928Zm5.905-3.535L76.987,74.3a17.145,17.145,0,0,0,2.687-4.175L96.941,87.4a6.663,6.663,0,0,1,1.131,7.993Z" transform="translate(0)" fill="#b1b1b1"/>
</svg>
