<svg id="Group_32" data-name="Group 32" xmlns="http://www.w3.org/2000/svg" xmlns:xlink="http://www.w3.org/1999/xlink" width="392.601" height="257.367" viewBox="0 0 392.601 257.367">
  <defs>
    <linearGradient id="linear-gradient" x1="0.5" x2="0.5" y2="1" gradientUnits="objectBoundingBox">
      <stop offset="0" stop-color="#1da2f4"/>
      <stop offset="1" stop-color="#0fedb2"/>
    </linearGradient>
  </defs>
  <path id="Path_70" data-name="Path 70" d="M16.284,12.009A5.137,5.137,0,1,1,11.148,6.85,5.136,5.136,0,0,1,16.284,12.009Z" transform="translate(128.819 146.799)" fill="#474f59"/>
  <path id="Path_71" data-name="Path 71" d="M18.1,13.161a5.194,5.194,0,0,1-5.2-5.137,5.079,5.079,0,0,1,5.069-5.137h.157A5.137,5.137,0,1,1,18.1,13.161Z" transform="translate(276.346 61.891)" fill="#474f59"/>
  <path id="Path_72" data-name="Path 72" d="M66.027,13.161h-.359a5.137,5.137,0,1,1,0-10.273h.359a5.137,5.137,0,0,1,0,10.273Zm-23.305,0h-.359a5.137,5.137,0,1,1,0-10.273h.359a5.137,5.137,0,0,1,0,10.273Zm-23.305,0h-.359a5.137,5.137,0,1,1,0-10.273h.359a5.137,5.137,0,0,1,0,10.273Z" transform="translate(298.334 61.891)" fill="#474f59"/>
  <path id="Path_73" data-name="Path 73" d="M22.267,13.251a5.125,5.125,0,0,1-4.733-3.073,5.232,5.232,0,0,1-.493-2.153A5.065,5.065,0,0,1,22.11,2.888h.157A5.15,5.15,0,0,1,27.4,8.025,5.213,5.213,0,0,1,22.267,13.251Z" transform="translate(365.197 61.891)" fill="#474f59"/>
  <path id="Path_74" data-name="Path 74" d="M22.182,76.171a5.15,5.15,0,0,1-5.137-5.137,5.267,5.267,0,0,1,5.137-5.271,5.018,5.018,0,0,1,5.137,4.98v.314A5.117,5.117,0,0,1,22.182,76.171Zm0-20.636a5.155,5.155,0,0,1-5.137-5.159,5.248,5.248,0,0,1,5.137-5.249,5,5,0,0,1,5.137,4.98V50.4A5.136,5.136,0,0,1,22.182,55.535Zm0-20.681a5.146,5.146,0,0,1-5.137-5.114,5.272,5.272,0,0,1,5.137-5.294,5.037,5.037,0,0,1,5.137,5v.314A5.112,5.112,0,0,1,22.182,34.854Zm0-20.636a5.15,5.15,0,0,1-5.137-5.137A5.267,5.267,0,0,1,22.182,3.81a5,5,0,0,1,5.137,4.98V9.1A5.117,5.117,0,0,1,22.182,14.218Z" transform="translate(365.282 81.65)" fill="#474f59"/>
  <path id="Path_75" data-name="Path 75" d="M22.267,17.852a5.213,5.213,0,0,1-5.226-5.137,5.067,5.067,0,0,1,3.073-4.733,4.674,4.674,0,0,1,2.153-.493A5.06,5.06,0,0,1,27.4,12.536v.179A5.122,5.122,0,0,1,22.267,17.852Z" transform="translate(365.197 160.493)" fill="#474f59"/>
  <path id="Path_76" data-name="Path 76" d="M21.334,17.788h-.157a5.148,5.148,0,0,1,0-10.3,5.213,5.213,0,0,1,5.2,5.159A5.032,5.032,0,0,1,21.334,17.788Z" transform="translate(343.745 160.557)" fill="#474f59"/>
  <path id="Path_77" data-name="Path 77" d="M30.958,39.63a4.981,4.981,0,0,1-3.611-1.48L16.131,26.935a5.131,5.131,0,0,1,0-7.245L27.347,8.474a5.139,5.139,0,0,1,7.245,7.29l-7.559,7.559,7.559,7.559a5.114,5.114,0,0,1-3.634,8.748Z" transform="translate(313.619 149.885)" fill="#474f59"/>
  <path id="Path_78" data-name="Path 78" d="M26.232,44.289a21.668,21.668,0,1,1,21.69-21.668A21.711,21.711,0,0,1,26.232,44.289Zm0-29.631a7.952,7.952,0,1,0,7.963,7.963A7.979,7.979,0,0,0,26.232,14.658Z" transform="translate(97.809 20.423)" fill="url(#linear-gradient)"/>
  <path id="Path_79" data-name="Path 79" d="M120.968,75.122c.135-.2.224-.359.336-.561a3.614,3.614,0,0,0,.336-.583c.09-.2.179-.4.247-.583.09-.224.157-.4.224-.628.045-.224.09-.449.135-.65a3.549,3.549,0,0,0,.067-.718c0-.112.022-.247.022-.359v-.247c-.045-.269-.067-.516-.112-.763-.022-.224-.067-.4-.09-.628-.067-.2-.112-.426-.2-.628a4.676,4.676,0,0,0-.269-.673,1.7,1.7,0,0,1-.09-.247L89.274,5.767c0-.022-.022-.022-.022-.045a7.934,7.934,0,0,0-.538-.763,3.141,3.141,0,0,0-.224-.359A5.007,5.007,0,0,0,88,4.129a4.229,4.229,0,0,0-.449-.449,3.964,3.964,0,0,0-.381-.269c-.247-.157-.493-.359-.74-.516-.045,0-.045-.022-.067-.022-.157-.067-.292-.112-.471-.179a6.038,6.038,0,0,0-.718-.292c-.224-.067-.426-.09-.65-.157-.224-.022-.426-.067-.673-.09a9.442,9.442,0,0,0-1.3,0c-.224.022-.471.067-.7.112a4.386,4.386,0,0,1-.628.135c-.269.067-.493.2-.763.292-.135.067-.292.112-.426.179-.022,0-.045.022-.067.022-.269.157-.516.359-.785.538-.112.09-.224.135-.336.224-.179.157-.314.336-.516.516-.112.135-.292.269-.426.426-.09.112-.157.247-.247.381a7.309,7.309,0,0,0-.493.763l-.045.045L51.052,55.9,36.832,27.21l-.09-.179c-.135-.224-.269-.449-.4-.628s-.247-.336-.359-.516a4.558,4.558,0,0,0-.449-.471c-.179-.157-.336-.336-.493-.493a3.369,3.369,0,0,1-.516-.336c-.224-.135-.4-.269-.628-.381a.488.488,0,0,0-.179-.112c-.112-.09-.269-.09-.381-.157a4.073,4.073,0,0,0-.673-.247c-.224-.045-.426-.112-.65-.135a3.6,3.6,0,0,0-.65-.112c-.224-.022-.449-.022-.673-.022s-.4,0-.65.022a3.033,3.033,0,0,0-.65.112,3.43,3.43,0,0,0-.65.157,2.8,2.8,0,0,0-.65.247,1.489,1.489,0,0,0-.449.135.594.594,0,0,0-.135.112,5.845,5.845,0,0,0-.628.381,4.985,4.985,0,0,1-.516.336c-.179.157-.336.336-.493.493s-.314.314-.449.471c-.157.179-.247.336-.381.516-.112.2-.247.4-.381.628-.022.045-.067.09-.112.179L4.352,67.966a.4.4,0,0,0-.09.2,4.072,4.072,0,0,0-.247.673c-.067.2-.157.426-.2.628s-.067.4-.112.628c-.022.224-.067.493-.067.718,0,.067-.022.157-.022.2,0,.135.045.269.045.426a4.169,4.169,0,0,0,.09.74,4.8,4.8,0,0,0,.135.606c.067.224.135.449.2.65s.179.381.269.583a6.168,6.168,0,0,0,.336.561,2.2,2.2,0,0,0,.381.516,2.6,2.6,0,0,0,.449.538c.157.157.292.314.449.449a2.351,2.351,0,0,0,.493.449,4.735,4.735,0,0,0,.606.4,1.938,1.938,0,0,0,.359.224c.045.045.112.045.157.067a8.1,8.1,0,0,0,1.032.381,2.713,2.713,0,0,0,.4.112,5.808,5.808,0,0,0,1.413.157H115.518a6.375,6.375,0,0,0,1.48-.157,1.372,1.372,0,0,1,.381-.157c.359-.112.718-.247,1.054-.381a.714.714,0,0,1,.2-.067,3.81,3.81,0,0,0,.314-.224,2.914,2.914,0,0,0,.583-.381c.2-.157.359-.292.516-.426a4.66,4.66,0,0,0,.471-.471C120.677,75.436,120.811,75.3,120.968,75.122ZM83.2,23.8,104.19,64.176H62.2ZM30.663,45.648l9.174,18.505H21.512Z" transform="translate(77.407 45.711)" fill="url(#linear-gradient)"/>
  <path id="Path_80" data-name="Path 80" d="M87.974,4.173H25.034c-8.187,0-14.849,7.133-14.849,15.948V151.99c0,8.815,6.662,15.948,14.849,15.948h62.94c8.187,0,14.849-7.133,14.849-15.948V20.121C102.823,11.306,96.161,4.173,87.974,4.173ZM20.458,44.122H92.55v87.412H20.458Zm4.6-29.7H88c2.467,0,4.576,2.6,4.576,5.7V33.826H20.481V20.121C20.458,17.026,22.567,14.424,25.056,14.424ZM87.974,157.687H25.034c-2.467,0-4.576-2.6-4.576-5.7V141.829H92.55V151.99C92.55,155.063,90.464,157.687,87.974,157.687Z" transform="translate(218.269 89.429)" fill="#474f59"/>
  <path id="Path_81" data-name="Path 81" d="M206.316,207.773H170.606V181.507h57.848V171.234H14.827a4.59,4.59,0,0,1-4.553-4.576V145.8H228.454V135.547H10.273V14.849a4.576,4.576,0,0,1,4.553-4.576H265.061a4.566,4.566,0,0,1,4.576,4.576V93.6H279.91V14.849A14.852,14.852,0,0,0,265.061,0H14.827A14.847,14.847,0,0,0,0,14.849V166.658a14.847,14.847,0,0,0,14.827,14.849h95.307v26.266H74.447a5.15,5.15,0,0,0-5.137,5.137v21.376a5.136,5.136,0,0,0,5.137,5.137H206.316a5.117,5.117,0,0,0,5.114-5.137v-21.4A5.1,5.1,0,0,0,206.316,207.773Zm-85.931-26.266h39.971v26.266H120.384Zm80.772,47.642H79.606V218.024H201.157Z" fill="#474f59"/>
  <path id="Path_82" data-name="Path 82" d="M22.294,15.6a5.137,5.137,0,1,1-5.137-5.159A5.15,5.15,0,0,1,22.294,15.6Z" transform="translate(257.616 223.756)" fill="#474f59"/>
  <path id="Path_83" data-name="Path 83" d="M24.71,33.333A13.5,13.5,0,1,1,38.19,19.83,13.55,13.55,0,0,1,24.71,33.333Zm0-16.756a3.241,3.241,0,1,0,3.23,3.252A3.255,3.255,0,0,0,24.71,16.578Z" transform="translate(239.678 135.591)" fill="url(#linear-gradient)"/>
  <path id="Path_84" data-name="Path 84" d="M76.762,48.933c.09-.157.179-.292.269-.426a3.9,3.9,0,0,0,.224-.426,3.041,3.041,0,0,0,.224-.471l.135-.471a4.7,4.7,0,0,0,.112-.471c.022-.157.045-.359.067-.538,0-.112.022-.2.022-.292,0-.067-.022-.135-.022-.2a4.412,4.412,0,0,0-.067-.538,2.1,2.1,0,0,0-.09-.493,2.318,2.318,0,0,0-.157-.471,1.628,1.628,0,0,0-.2-.493c-.022-.045-.022-.135-.067-.179L59.76,9.881a.022.022,0,0,0-.022-.022,2.5,2.5,0,0,0-.359-.538c-.067-.112-.135-.2-.2-.314a3.446,3.446,0,0,0-.426-.381c-.09-.09-.2-.224-.292-.314a4.209,4.209,0,0,0-.4-.269c-.157-.09-.314-.224-.471-.314a.078.078,0,0,1-.045-.022,1.973,1.973,0,0,1-.381-.135c-.157-.067-.336-.135-.471-.179a1.96,1.96,0,0,0-.493-.112,3.486,3.486,0,0,0-.471-.09,3.956,3.956,0,0,0-.516,0,3.619,3.619,0,0,0-.493,0,3.221,3.221,0,0,0-.493.09,1.453,1.453,0,0,0-.471.112,3.2,3.2,0,0,0-.493.179c-.135.067-.269.112-.4.179a.078.078,0,0,1-.045.022c-.157.09-.314.224-.471.314a4.206,4.206,0,0,0-.4.269,4.147,4.147,0,0,1-.314.314c-.135.135-.269.269-.4.381-.09.112-.112.2-.2.314a2.812,2.812,0,0,0-.359.538l-.022.022L37.823,34.555l-6.415-13.01a.224.224,0,0,1-.09-.112,3.368,3.368,0,0,0-.336-.516,2.273,2.273,0,0,0-.224-.359c-.135-.135-.247-.269-.381-.381s-.224-.247-.359-.359a1.451,1.451,0,0,0-.336-.224,5.071,5.071,0,0,0-.449-.292.49.49,0,0,1-.112-.09c-.112-.045-.2-.067-.292-.112-.2-.067-.381-.157-.538-.2-.179-.045-.314-.067-.471-.112a3.725,3.725,0,0,0-.493-.067,1.924,1.924,0,0,0-.493-.045,2.009,2.009,0,0,0-.516.045,3.4,3.4,0,0,0-.471.067,3.181,3.181,0,0,0-.493.112,4.9,4.9,0,0,0-.516.2,2.721,2.721,0,0,0-.314.112c-.045.022-.067.067-.112.09a2.4,2.4,0,0,0-.471.292c-.135.09-.247.179-.381.269-.135.112-.247.247-.359.359-.135.112-.247.247-.381.381-.09.135-.179.247-.269.381a3.44,3.44,0,0,1-.314.471.191.191,0,0,1-.067.112l-10.9,22.027a.813.813,0,0,0-.067.157c-.09.179-.135.359-.2.516-.045.157-.112.314-.157.471-.022.135-.022.292-.045.471,0,.157-.022.336-.022.516,0,.067-.022.09-.022.157a1.515,1.515,0,0,0,.045.314,4.019,4.019,0,0,0,.045.538,2.9,2.9,0,0,0,.112.471c.045.157.09.314.157.493a1.88,1.88,0,0,0,.2.426,4.751,4.751,0,0,0,.247.471c.09.112.179.269.269.381.112.157.224.269.336.426.135.112.247.2.381.336a2.58,2.58,0,0,0,.381.314c.157.112.314.2.493.314a1.508,1.508,0,0,1,.247.157.319.319,0,0,1,.135.045,6.375,6.375,0,0,0,.785.292c.09.022.179.067.292.09a5.238,5.238,0,0,0,1.054.112H72.747a6.132,6.132,0,0,0,1.122-.112,1.048,1.048,0,0,1,.314-.09,3.292,3.292,0,0,0,.763-.336c.067-.022.112-.022.179-.045a2.366,2.366,0,0,1,.247-.157c.135-.09.292-.179.449-.292.112-.09.269-.224.381-.336.135-.112.224-.224.359-.359A.768.768,0,0,1,76.762,48.933Zm-21.578-25.5L64.178,40.7H46.167ZM26.832,35.385l2.624,5.338H24.162Z" transform="translate(230.356 153.861)" fill="url(#linear-gradient)"/>
  <path id="Path_85" data-name="Path 85" d="M32.2,15.1H16.816a5.125,5.125,0,1,1,0-10.251H32.2a5.125,5.125,0,1,1,0,10.251Z" transform="translate(250.287 103.831)" fill="#474f59"/>
</svg>
