<svg xmlns="http://www.w3.org/2000/svg" width="68.353" height="53.931" viewBox="0 0 68.353 53.931">
  <g id="oZnXt5.tif_1_" transform="translate(0.002)">
    <g id="Group_110" data-name="Group 110" transform="translate(-0.002)">
      <path id="Path_234" data-name="Path 234" d="M14.431.057c-.787.364-1.583.708-2.358,1.1A16.9,16.9,0,0,0,6.694,5.106,10.927,10.927,0,0,0,4.12,11.485a9.867,9.867,0,0,0,.56,4.838,14.063,14.063,0,0,0,2.758,4.115A32.71,32.71,0,0,0,16.184,26.9a2.457,2.457,0,0,0,.305.1A59.585,59.585,0,0,1,11.1,13.455h.582q26.811,0,53.621-.006a2.83,2.83,0,0,1,2.827,1.78,2.723,2.723,0,0,1,.194,1.077c.01,11.6,0,23.2.022,34.8a2.9,2.9,0,0,1-2.684,2.822c-.145,0-.29.008-.435.008H3.142A2.84,2.84,0,0,1,.216,52.084a3.426,3.426,0,0,1-.187-1.178C.02,38.613.062,26.321,0,14.029a12.319,12.319,0,0,1,4.284-9.4A18.416,18.416,0,0,1,13.838.106L14.4,0ZM64.084,17.686l-.069-.1c-.178.1-.357.188-.532.287A185.056,185.056,0,0,1,46.6,26.426,85.2,85.2,0,0,1,33.654,31,33.953,33.953,0,0,1,24.5,32.288a40.3,40.3,0,0,1-5.569-.5,22.606,22.606,0,0,1-9.467-3.914,33.709,33.709,0,0,1-6.39-6.021c-.092-.11-.2-.206-.392-.4v.622q0,13.745,0,27.49A1.535,1.535,0,0,0,4.43,51.317H36.324c.169,0,.337-.015.506-.023l.058-.109A72.763,72.763,0,0,1,23.406,37.771c.154,0,.262,0,.369,0a32.142,32.142,0,0,0,6.239-.62,50.65,50.65,0,0,0,14.542-5.295,96.673,96.673,0,0,0,18.269-13.02C63.251,18.461,63.664,18.07,64.084,17.686Z" transform="translate(0.002)"/>
    </g>
  </g>
</svg>
