<svg id="Group_389" data-name="Group 389" xmlns="http://www.w3.org/2000/svg" width="48" height="48" viewBox="0 0 24 24">
  <path id="Path_292" data-name="Path 292" d="M.5,24a.5.5,0,0,1-.384-.821l10-12a.5.5,0,0,1,.542-.154L16.287,12.9,23.078,2.23a.5.5,0,0,1,.843.537l-7,11a.5.5,0,0,1-.58.206l-5.676-1.892L.884,23.82A.5.5,0,0,1,.5,24Z" fill="#29b5ff"/>
  <path id="Path_293" data-name="Path 293" d="M.5,24a.5.5,0,0,1-.5-.5V.5a.5.5,0,0,1,1,0v23A.5.5,0,0,1,.5,24Z" fill="#29b5ff"/>
  <path id="Path_294" data-name="Path 294" d="M23.5,24H.5a.5.5,0,0,1,0-1h23a.5.5,0,0,1,0,1Z" fill="#29b5ff"/>
</svg>
