<svg xmlns="http://www.w3.org/2000/svg" width="35.564" height="35.557" viewBox="0 0 35.564 35.557">
  <path id="Path_109" data-name="Path 109" d="M17.776,35.558a18.3,18.3,0,0,1-2.874-.228,1.277,1.277,0,0,1-1.058-1.053l-.78-4.89a1.3,1.3,0,0,0-.156-.061l-4.016,2.9a1.253,1.253,0,0,1-1.493,0A17.892,17.892,0,0,1,5.2,30.361a19.571,19.571,0,0,1-1.877-2.206,1.279,1.279,0,0,1,0-1.5l2.907-4c-.022-.056-.045-.1-.061-.15l-4.885-.78A1.265,1.265,0,0,1,.237,20.664a17.752,17.752,0,0,1,0-5.77,1.29,1.29,0,0,1,1.058-1.058l4.879-.78c.017-.039.039-.095.061-.15l-2.9-4a1.28,1.28,0,0,1-.006-1.493A18.539,18.539,0,0,1,5.2,5.2,18.07,18.07,0,0,1,7.416,3.331a1.27,1.27,0,0,1,1.5,0l3.994,2.907c.05-.022.1-.045.156-.067l.78-4.885A1.278,1.278,0,0,1,14.9.234a17.943,17.943,0,0,1,5.776,0,1.259,1.259,0,0,1,1.047,1.053l.78,4.885c.056.022.111.045.156.067l4.01-2.9a1.253,1.253,0,0,1,1.493,0A18.555,18.555,0,0,1,30.352,5.2a18.689,18.689,0,0,1,1.871,2.2,1.262,1.262,0,0,1,0,1.5l-2.907,4.01c.022.056.045.111.067.156l4.885.78A1.277,1.277,0,0,1,35.326,14.9a17.6,17.6,0,0,1,0,5.77,1.29,1.29,0,0,1-1.064,1.053l-4.879.78c-.022.05-.039.095-.061.15l2.907,4a1.271,1.271,0,0,1,.006,1.493,17.394,17.394,0,0,1-1.883,2.211,17.721,17.721,0,0,1-2.206,1.871,1.3,1.3,0,0,1-1.493-.006l-4-2.907a1.386,1.386,0,0,1-.162.061l-.774,4.89a1.265,1.265,0,0,1-1.053,1.053A17.4,17.4,0,0,1,17.776,35.558Zm-1.565-2.623a16.326,16.326,0,0,0,3.13,0l.752-4.684a1.276,1.276,0,0,1,.835-1.008,10.3,10.3,0,0,0,1.292-.535,1.294,1.294,0,0,1,1.32.106l3.838,2.79a14.854,14.854,0,0,0,1.164-1.047,13.069,13.069,0,0,0,1.047-1.17L26.8,23.549a1.3,1.3,0,0,1-.095-1.32,10.815,10.815,0,0,0,.535-1.292,1.271,1.271,0,0,1,1.008-.841l4.679-.746a15.13,15.13,0,0,0,.006-3.136l-4.69-.746a1.277,1.277,0,0,1-1.008-.852,11.061,11.061,0,0,0-.529-1.292,1.273,1.273,0,0,1,.106-1.309L29.6,8.176A13.475,13.475,0,0,0,28.548,7a15.309,15.309,0,0,0-1.164-1.047L23.552,8.739a1.3,1.3,0,0,1-1.314.117,9.891,9.891,0,0,0-1.281-.529A1.281,1.281,0,0,1,20.1,7.313l-.752-4.69a14.346,14.346,0,0,0-3.13.006l-.757,4.684a1.28,1.28,0,0,1-.841,1.014,8.113,8.113,0,0,0-1.292.529,1.308,1.308,0,0,1-1.32-.117L8.174,5.96A13.058,13.058,0,0,0,7.01,7.012,13.14,13.14,0,0,0,5.957,8.176l2.785,3.838a1.271,1.271,0,0,1,.111,1.314,10.429,10.429,0,0,0-.535,1.287,1.268,1.268,0,0,1-1.008.852l-4.679.746a14.754,14.754,0,0,0,0,3.136L7.31,20.1a1.271,1.271,0,0,1,1,.847,11.753,11.753,0,0,0,.54,1.292,1.284,1.284,0,0,1-.111,1.314l-2.79,3.843A14.963,14.963,0,0,0,7,28.556,14.092,14.092,0,0,0,8.168,29.6l3.838-2.779a1.26,1.26,0,0,1,1.314-.117,8.457,8.457,0,0,0,1.3.529,1.28,1.28,0,0,1,.841,1.014Zm1.571-7.068a8.087,8.087,0,0,1,0-16.175,8.087,8.087,0,0,1,0,16.175Zm0-13.618A5.524,5.524,0,1,0,21.7,13.869,5.493,5.493,0,0,0,17.781,12.248Z" transform="translate(-0.001)" fill="#fff"/>
</svg>
