<svg id="Group_654" data-name="Group 654" xmlns="http://www.w3.org/2000/svg" width="25.534" height="23.9" viewBox="0 0 25.534 23.9">
  <g id="Group_653" data-name="Group 653">
    <path id="Path_516" data-name="Path 516" d="M24.306.968C24.255.255,23.236,0,22.675,0H2.8C2.24,0,1.221.255,1.17.968L0,14.829C-.053,15.7.966,16,1.68,16H23.847c.662,0,1.733-.357,1.682-1.172Zm.306,13.759h0a.958.958,0,0,1-.866.408H1.68c-.357,0-.917-.2-.917-.662L1.884.968C1.935.561,2.5.459,2.8.459H22.726c.306,0,.866.153.917.51l1.07,13.5c-.051.1-.051.153-.1.255,0-.051.051-.051,0,0" transform="translate(0.004)" fill="#ff7600"/>
    <path id="Path_517" data-name="Path 517" d="M10.97,2a1.675,1.675,0,0,0-.866-.2H6.078c-.459-.051-1.223.153-1.274.713L4.6,5.054c0,.612.764.815,1.223.815H9.951c.459,0,1.274-.2,1.274-.815l.051-2.548A.484.484,0,0,0,10.97,2m-.459,3.058c0,.255-.357.306-.51.306H5.874a.553.553,0,0,1-.459-.2.178.178,0,0,0-.051-.1l.153-2.548c.051-.2.357-.306.51-.306h4.026c.153,0,.51.1.51.306Z" transform="translate(-2.254 -0.875)" fill="#ff7600"/>
    <path id="Path_518" data-name="Path 518" d="M18.857,5.573a1.718,1.718,0,0,0,.866.255h4.128c.459,0,1.274-.2,1.223-.815l-.051-2.548c0-.561-.815-.764-1.223-.764H19.774c-.459,0-1.223.2-1.223.764L18.5,5.012a.627.627,0,0,0,.357.561m.408-3.109c0-.255.306-.306.51-.306h4.077c.2,0,.51.051.51.306l.051,2.548c0,.255-.306.306-.51.306H19.774c-.2,0-.51-.1-.51-.306Z" transform="translate(-9.071 -0.834)" fill="#ff7600"/>
    <path id="Path_519" data-name="Path 519" d="M32.659,5.573c-.051,0-.051-.051,0,0s.051,0,0,0a1.907,1.907,0,0,0,.917.255H37.7c.459,0,1.274-.2,1.223-.815l-.2-2.548c-.051-.561-.815-.764-1.274-.764H33.423c-.408,0-1.223.2-1.223.764l.051,2.548a.789.789,0,0,0,.408.561m.306-3.21a.553.553,0,0,1,.459-.2h4.026c.153,0,.51.1.51.306l.153,2.548c0,.255-.306.306-.51.306H33.474c-.2,0-.51-.1-.51-.306l-.1-2.548.1-.1" transform="translate(-15.789 -0.834)" fill="#ff7600"/>
    <path id="Path_520" data-name="Path 520" d="M10.521,10.555a1.718,1.718,0,0,0-.866-.255H5.527c-.459,0-1.274.2-1.325.815l-.2,2.7c-.051.612.764.866,1.223.866H9.5c.51,0,1.325-.2,1.325-.866l.051-2.7a.551.551,0,0,0-.357-.561m-.459,3.261c0,.255-.357.357-.561.357H5.272c-.2,0-.51-.1-.51-.357l.2-2.7c0-.255.357-.357.561-.357H9.705c.2,0,.51.1.51.357Z" transform="translate(-1.958 -5.051)" fill="#ff7600"/>
    <path id="Path_521" data-name="Path 521" d="M18.657,14.428h0a1.907,1.907,0,0,0,.917.255h4.281c.459,0,1.274-.2,1.274-.866l-.051-2.7c0-.612-.815-.815-1.274-.815H19.625c-.459,0-1.274.2-1.274.815l-.051,2.7a.777.777,0,0,0,.357.612m.459-3.312c0-.255.306-.306.51-.306H23.8c.2,0,.51.1.51.306l.051,2.7c0,.255-.306.357-.51.357H19.574c-.2,0-.51-.1-.51-.357Z" transform="translate(-8.973 -5.051)" fill="#ff7600"/>
    <path id="Path_522" data-name="Path 522" d="M32.956,14.428h0a1.907,1.907,0,0,0,.917.255h4.281c.459,0,1.274-.2,1.223-.866l-.2-2.7c-.051-.612-.866-.815-1.325-.815H33.721c-.459,0-1.274.2-1.223.815l.051,2.7a.838.838,0,0,0,.408.612m.306-3.465a.553.553,0,0,1,.459-.2H37.9c.2,0,.51.1.561.306l.2,2.7c0,.255-.306.357-.51.357H33.874c-.2,0-.51-.1-.561-.357l-.1-2.7a.158.158,0,0,1,.051-.1" transform="translate(-15.934 -5.051)" fill="#ff7600"/>
    <path id="Path_523" data-name="Path 523" d="M10.075,19.655a1.478,1.478,0,0,0-.917-.255H4.878c-.51,0-1.325.255-1.376.866l-.2,2.9c-.051.662.764.917,1.274.917H9.005c.51,0,1.376-.255,1.376-.917l.1-2.9a1.014,1.014,0,0,0-.408-.612m-.51,3.516v-.1c0,.255-.357.357-.561.357H4.572c-.2,0-.51-.1-.51-.357l.2-2.8c0-.255.357-.357.561-.357H9.158c.2,0,.51.1.51.357Z" transform="translate(-1.614 -9.514)" fill="#ff7600"/>
    <path id="Path_524" data-name="Path 524" d="M24.93,20.01h0a1.372,1.372,0,0,0-1.223-.51H19.427c-.51,0-1.274.255-1.325.866L18,23.22c0,.662.815.917,1.325.917h4.433c.51,0,1.325-.255,1.325-.917l-.051-2.9a.724.724,0,0,0-.1-.306m-.662,3.261c-.051.051-.051.1-.1.1a.945.945,0,0,1-.357.1H19.376c-.2,0-.561-.1-.561-.357l.051-2.8c0-.255.357-.357.561-.357h4.332c.2,0,.51.1.51.357l.051,2.8a.187.187,0,0,1-.051.153" transform="translate(-8.825 -9.563)" fill="#ff7600"/>
    <path id="Path_525" data-name="Path 525" d="M39.272,19.655c0,.051.051.051,0,0h0a1.907,1.907,0,0,0-.917-.255H34.074c-.51,0-1.274.255-1.274.866l.1,2.9c0,.662.866.917,1.376.917h4.433c.51,0,1.325-.255,1.274-.917l-.2-2.9a1.5,1.5,0,0,0-.51-.612m-.2,3.567a.591.591,0,0,1-.51.2H34.176c-.2,0-.561-.1-.561-.357l-.1-2.8c0-.255.306-.357.51-.357H38.3c.2,0,.561.1.561.357l.2,2.8a.1.1,0,0,1,0,.153" transform="translate(-16.083 -9.514)" fill="#ff7600"/>
    <path id="Path_526" data-name="Path 526" d="M25.14,39.625a6.058,6.058,0,0,0-4.281-3.159V33h-.764v3.261a6.5,6.5,0,0,0-1.019-.051,6.829,6.829,0,0,0-1.019.051V33h-.815v3.414a6.2,6.2,0,0,0-4.281,3.159.336.336,0,0,0,.153.459.321.321,0,0,0,.459-.153,6.034,6.034,0,0,1,5.453-3.007,6.034,6.034,0,0,1,5.453,3.007.317.317,0,0,0,.306.2.187.187,0,0,0,.153-.051c.255-.051.306-.255.2-.408" transform="translate(-6.334 -16.183)" fill="#ff7600"/>
  </g>
</svg>
