<svg xmlns="http://www.w3.org/2000/svg" width="182.801" height="182.8" viewBox="0 0 182.801 182.8">
  <g id="Group_108" data-name="Group 108" opacity="0.242">
    <path id="Path_229" data-name="Path 229" d="M152.251,0H30.55A30.55,30.55,0,0,0,0,30.55v121.7A30.55,30.55,0,0,0,30.55,182.8h121.7a30.546,30.546,0,0,0,30.55-30.542V30.55A30.541,30.541,0,0,0,152.267,0Zm-2.684,139.938a9.638,9.638,0,0,1-9.638,9.633H42.892a9.637,9.637,0,0,1-9.642-9.633h0V42.9a9.637,9.637,0,0,1,9.633-9.642h97.042a9.638,9.638,0,0,1,9.638,9.638v97.046h0Z" fill="#2e3b4e"/>
    <path id="Path_230" data-name="Path 230" d="M253.479,297.8a5.55,5.55,0,0,1-5.533-5.562V253.508a5.548,5.548,0,0,1,5.533-5.562h38.792a5.543,5.543,0,0,1,5.533,5.563v38.734a5.546,5.546,0,0,1-5.533,5.563Z" transform="translate(-181.475 -181.474)" fill="#2e3b4e"/>
  </g>
</svg>
