<svg xmlns="http://www.w3.org/2000/svg" width="255.338" height="104.46" viewBox="0 0 255.338 104.46">
  <path id="Path_228" data-name="Path 228" d="M232.625,38.356c-5.144,0-4.607,6.322-4.82,13.071h8.57c0-7.607,0-13.071-3.75-13.071Zm-4.82,24.107c0,6.106,3,7.284,8.035,7.284,5.786,0,13.606-1.715,16.606-2.25V82.283a55.308,55.308,0,0,1-16.606,2.891c-12.75,0-28.286-2.035-28.286-29.248,0-24,12.214-29.677,25.071-29.677,13.179,0,22.714,6.75,22.714,29.463v6.751H227.805ZM177.548,41.249a13.09,13.09,0,0,0-4.82,1.715V70.39a14.037,14.037,0,0,0,3.428.537c3.536,0,5.679-3,5.679-15.535,0-12.75-.966-14.143-4.287-14.143ZM179.9,85.175A33.412,33.412,0,0,1,172.727,84V104.46H152.371V27.321h16.5l3,3.536a18.411,18.411,0,0,1,12.107-4.607c8.356,0,18.213,2.357,18.213,29.141,0,29.358-14.784,29.785-22.285,29.785ZM133.618,20.357a10.082,10.082,0,0,1-10.07-10.179,10.072,10.072,0,1,1,20.142,0,10.083,10.083,0,0,1-10.072,10.179ZM123.44,84.1V27.321H143.8V84.1Zm-12.326-40.82a13.312,13.312,0,0,0-6.75,1.929V84.1H84.008V27.321h16.178l3,5.464a9.394,9.394,0,0,1,9.107-6.536,13.98,13.98,0,0,1,6.32,1.178V44.354A30.124,30.124,0,0,0,111.114,43.285ZM72.433,69.748c1.286,0,5.786-.642,7.284-.858V83.354a77.041,77.041,0,0,1-14.463,1.821c-5.786,0-16.606-.642-16.606-16.391v-28.5h-7.5V27.321h7.5L51.22,14.464l17.785-4.285V27.321H79.719L77.041,40.286H69.006V65.142c0,3.856,1.177,4.606,3.427,4.606ZM19.822,43.713c0,2.25,1.5,3,5.036,4.607L27,49.285c5.035,2.25,12,5.893,12,16.607,0,17.142-12.75,19.284-21.856,19.284A58.771,58.771,0,0,1,.858,82.5V67.82c3.642.966,9.965,2.464,12.749,2.464,3.107,0,5.464-.427,5.464-3.214,0-2.143-1.5-3.106-4.821-4.606l-2.572-1.179C6.858,59.035,0,55.179,0,44.786,0,29.572,11.892,26.252,21.857,26.252a40.715,40.715,0,0,1,15,2.678V43.179a52.824,52.824,0,0,0-12.749-2.25c-2.464,0-4.285.641-4.285,2.784Z" fill="#359ad5" opacity="0.242"/>
</svg>
