<svg id="Group_387" data-name="Group 387" xmlns="http://www.w3.org/2000/svg" width="48" height="48" viewBox="0 0 24 24">
  <path id="Path_295" data-name="Path 295" d="M14.5,24h-5a.5.5,0,0,1-.5-.5v-11a.5.5,0,0,1,.5-.5h5a.5.5,0,0,1,.5.5v11A.5.5,0,0,1,14.5,24ZM10,23h4V13H10Z" fill="#1da2f4"/>
  <g id="Group_215" data-name="Group 215">
    <path id="Path_296" data-name="Path 296" d="M5.5,24H.5a.5.5,0,0,1-.5-.5V7a.5.5,0,0,1,.5-.5h5A.5.5,0,0,1,6,7V23.5A.5.5,0,0,1,5.5,24ZM1,23H5V7.5H1Z" fill="#1da2f4"/>
  </g>
  <path id="Path_297" data-name="Path 297" d="M23.5,24h-5a.5.5,0,0,1-.5-.5V.5a.5.5,0,0,1,.5-.5h5a.5.5,0,0,1,.5.5v23A.5.5,0,0,1,23.5,24ZM19,23h4V1H19Z" fill="#1da2f4"/>
</svg>
