<svg id="Group_705" data-name="Group 705" xmlns="http://www.w3.org/2000/svg" width="26.596" height="22.808" viewBox="0 0 26.596 22.808">
  <path id="Path_558" data-name="Path 558" d="M25.807,22.808H.789A.791.791,0,0,1,0,22.018a.746.746,0,0,1,.789-.789H25.807a.789.789,0,0,1,0,1.578Zm0-3.63H.789A.791.791,0,0,1,0,18.388V.789A.791.791,0,0,1,.789,0H25.807A.791.791,0,0,1,26.6.789V18.467A.845.845,0,0,1,25.807,19.177ZM1.5,17.678H25.017V1.5H1.5Zm7.892-2.841A.711.711,0,0,1,9,14.758a.8.8,0,0,1-.395-.631V5.051A.7.7,0,0,1,9,4.419a.717.717,0,0,1,.789,0L17.52,9a.8.8,0,0,1,.395.631.7.7,0,0,1-.395.631l-7.734,4.5A.591.591,0,0,1,9.391,14.837Zm.789-8.444v6.392l5.445-3.157Z" fill="#fff"/>
</svg>
