<svg xmlns="http://www.w3.org/2000/svg" width="106.637" height="59.775" viewBox="0 0 106.637 59.775">
  <g id="Group_484" data-name="Group 484" transform="translate(-713 -529.766)">
    <path id="Path_238" data-name="Path 238" d="M72.785,59.775H12.632A12.645,12.645,0,0,1,0,47.148V12.632A12.649,12.649,0,0,1,12.632,0H72.785A12.649,12.649,0,0,1,85.417,12.632v.855L98.081,3.325a5.262,5.262,0,0,1,8.556,4.1V50.908a5.262,5.262,0,0,1-8.556,4.1L85.417,44.848v2.294A12.649,12.649,0,0,1,72.785,59.775ZM12.632,3.885a8.76,8.76,0,0,0-8.748,8.748v34.51a8.756,8.756,0,0,0,8.748,8.743H72.785a8.759,8.759,0,0,0,8.748-8.743v-10.4l18.982,15.238a1.378,1.378,0,0,0,2.237-1.077V7.432a1.378,1.378,0,0,0-2.237-1.077L81.533,21.593v-8.96a8.757,8.757,0,0,0-8.748-8.748H12.632Z" transform="translate(713 529.766)" fill="#fff"/>
    <path id="Path_239" data-name="Path 239" d="M13.49,35.787a8.257,8.257,0,0,1-8.24-8.256V10.667A8.243,8.243,0,0,1,17.359,3.38L33.28,11.812a8.244,8.244,0,0,1,.005,14.575h0L17.354,34.819A8.219,8.219,0,0,1,13.49,35.787ZM13.5,6.3a4.386,4.386,0,0,0-2.248.627,4.336,4.336,0,0,0-2.113,3.745V27.531a4.336,4.336,0,0,0,2.113,3.745,4.387,4.387,0,0,0,4.294.114l15.926-8.432a4.369,4.369,0,0,0,0-7.717L15.541,6.809A4.372,4.372,0,0,0,13.5,6.3Z" transform="translate(734.941 539.837)" fill="#fff"/>
  </g>
</svg>
