<svg xmlns="http://www.w3.org/2000/svg" width="146" height="146" viewBox="0 0 73.001 73.001">
  <path id="Path_184" data-name="Path 184" d="M72.493,30.417H51.187L66.253,15.351a36.682,36.682,0,0,0-3.944-4.662h0a36.692,36.692,0,0,0-4.658-3.94L42.584,21.814V.508A36.729,36.729,0,0,0,36.52,0h-.039a36.727,36.727,0,0,0-6.064.508V21.814L15.351,6.748a36.685,36.685,0,0,0-4.66,3.942l-.005.005a36.686,36.686,0,0,0-3.938,4.656L21.814,30.417H.507S0,34.419,0,36.487v.026a36.744,36.744,0,0,0,.508,6.071H21.814L6.749,57.65a36.712,36.712,0,0,0,8.6,8.6L30.417,51.187V72.493A36.751,36.751,0,0,0,36.475,73h.052a36.765,36.765,0,0,0,6.057-.507V51.187L57.65,66.253a36.692,36.692,0,0,0,4.659-3.941l0,0a36.718,36.718,0,0,0,3.941-4.659L51.187,42.584H72.493A36.726,36.726,0,0,0,73,36.526v-.052A36.784,36.784,0,0,0,72.493,30.417Zm-26.868,6.1a21.828,21.828,0,0,1-1.4,7.706,21.839,21.839,0,0,1-7.708,1.4h-.031a21.835,21.835,0,0,1-7.706-1.4,21.838,21.838,0,0,1-1.4-7.708v-.032a21.862,21.862,0,0,1,1.4-7.706,21.835,21.835,0,0,1,7.708-1.4h.031a21.826,21.826,0,0,1,7.708,1.4,21.824,21.824,0,0,1,1.4,7.706Z" fill="#ff4a00"/>
</svg>
