<svg xmlns="http://www.w3.org/2000/svg" xmlns:xlink="http://www.w3.org/1999/xlink" width="56.01" height="56.009" viewBox="0 0 56.01 56.009">
  <defs>
    <linearGradient id="linear-gradient" x1="0.5" y1="0.321" x2="0.5" y2="1" gradientUnits="objectBoundingBox">
      <stop offset="0" stop-color="#0a5594"/>
      <stop offset="1" stop-color="#00a0ff"/>
    </linearGradient>
  </defs>
  <g id="phone" transform="translate(0.5 0.5)">
    <g id="Group_4" data-name="Group 4">
      <path id="Path_10" data-name="Path 10" d="M50.6,36.107a31.232,31.232,0,0,1-9.808-1.562,4.483,4.483,0,0,0-4.36.919l-6.185,4.669A34.182,34.182,0,0,1,14.873,24.768L19.4,18.744A4.446,4.446,0,0,0,20.5,14.239,31.28,31.28,0,0,1,18.93,4.414,4.419,4.419,0,0,0,14.516,0H4.414A4.419,4.419,0,0,0,0,4.414a50.652,50.652,0,0,0,50.6,50.6A4.419,4.419,0,0,0,55.01,50.6V40.521A4.419,4.419,0,0,0,50.6,36.107Z" stroke="#000" stroke-width="1" fill="url(#linear-gradient)"/>
    </g>
  </g>
</svg>
